<svg width="683" height="399" viewBox="0 0 683 399" fill="none" xmlns="http://www.w3.org/2000/svg">
<rect x="21" y="17" width="641" height="365" rx="10" fill="white"/>
<rect x="528" y="44" width="100" height="33" rx="10" fill="#7209B7"/>
<path d="M546.904 64.728H542.248L541.448 67H539.544L543.528 55.864H545.64L549.624 67H547.704L546.904 64.728ZM546.392 63.24L544.584 58.072L542.76 63.24H546.392ZM550.748 62.552C550.748 61.6667 550.93 60.8827 551.292 60.2C551.666 59.5173 552.167 58.9893 552.796 58.616C553.436 58.232 554.146 58.04 554.924 58.04C555.5 58.04 556.066 58.168 556.62 58.424C557.186 58.6693 557.634 59 557.964 59.416V55.16H559.804V67H557.964V65.672C557.666 66.0987 557.25 66.4507 556.716 66.728C556.194 67.0053 555.591 67.144 554.908 67.144C554.14 67.144 553.436 66.952 552.796 66.568C552.167 66.1733 551.666 65.6293 551.292 64.936C550.93 64.232 550.748 63.4373 550.748 62.552ZM557.964 62.584C557.964 61.976 557.836 61.448 557.58 61C557.335 60.552 557.01 60.2107 556.604 59.976C556.199 59.7413 555.762 59.624 555.292 59.624C554.823 59.624 554.386 59.7413 553.98 59.976C553.575 60.2 553.244 60.536 552.988 60.984C552.743 61.4213 552.62 61.944 552.62 62.552C552.62 63.16 552.743 63.6933 552.988 64.152C553.244 64.6107 553.575 64.9627 553.98 65.208C554.396 65.4427 554.834 65.56 555.292 65.56C555.762 65.56 556.199 65.4427 556.604 65.208C557.01 64.9733 557.335 64.632 557.58 64.184C557.836 63.7253 557.964 63.192 557.964 62.584ZM561.592 62.552C561.592 61.6667 561.773 60.8827 562.136 60.2C562.509 59.5173 563.011 58.9893 563.64 58.616C564.28 58.232 564.989 58.04 565.768 58.04C566.344 58.04 566.909 58.168 567.464 58.424C568.029 58.6693 568.477 59 568.808 59.416V55.16H570.648V67H568.808V65.672C568.509 66.0987 568.093 66.4507 567.56 66.728C567.037 67.0053 566.435 67.144 565.752 67.144C564.984 67.144 564.28 66.952 563.64 66.568C563.011 66.1733 562.509 65.6293 562.136 64.936C561.773 64.232 561.592 63.4373 561.592 62.552ZM568.808 62.584C568.808 61.976 568.68 61.448 568.424 61C568.179 60.552 567.853 60.2107 567.448 59.976C567.043 59.7413 566.605 59.624 566.136 59.624C565.667 59.624 565.229 59.7413 564.824 59.976C564.419 60.2 564.088 60.536 563.832 60.984C563.587 61.4213 563.464 61.944 563.464 62.552C563.464 63.16 563.587 63.6933 563.832 64.152C564.088 64.6107 564.419 64.9627 564.824 65.208C565.24 65.4427 565.677 65.56 566.136 65.56C566.605 65.56 567.043 65.4427 567.448 65.208C567.853 64.9733 568.179 64.632 568.424 64.184C568.68 63.7253 568.808 63.192 568.808 62.584ZM579.024 55.88V67H577.2V55.88H579.024ZM584.619 67.144C583.925 67.144 583.301 67.0213 582.747 66.776C582.203 66.52 581.771 66.1787 581.451 65.752C581.131 65.3147 580.96 64.8293 580.939 64.296H582.827C582.859 64.6693 583.035 64.984 583.355 65.24C583.685 65.4853 584.096 65.608 584.587 65.608C585.099 65.608 585.493 65.512 585.771 65.32C586.059 65.1173 586.203 64.8613 586.203 64.552C586.203 64.2213 586.043 63.976 585.723 63.816C585.413 63.656 584.917 63.48 584.235 63.288C583.573 63.1067 583.035 62.9307 582.619 62.76C582.203 62.5893 581.84 62.328 581.531 61.976C581.232 61.624 581.083 61.16 581.083 60.584C581.083 60.1147 581.221 59.688 581.499 59.304C581.776 58.9093 582.171 58.6 582.683 58.376C583.205 58.152 583.803 58.04 584.475 58.04C585.477 58.04 586.283 58.296 586.891 58.808C587.509 59.3093 587.84 59.9973 587.883 60.872H586.059C586.027 60.4773 585.867 60.1627 585.579 59.928C585.291 59.6933 584.901 59.576 584.411 59.576C583.931 59.576 583.563 59.6667 583.307 59.848C583.051 60.0293 582.923 60.2693 582.923 60.568C582.923 60.8027 583.008 61 583.179 61.16C583.349 61.32 583.557 61.448 583.803 61.544C584.048 61.6293 584.411 61.7413 584.891 61.88C585.531 62.0507 586.053 62.2267 586.459 62.408C586.875 62.5787 587.232 62.8347 587.531 63.176C587.829 63.5173 587.984 63.9707 587.995 64.536C587.995 65.0373 587.856 65.4853 587.579 65.88C587.301 66.2747 586.907 66.584 586.395 66.808C585.893 67.032 585.301 67.144 584.619 67.144ZM593.166 67.144C592.472 67.144 591.848 67.0213 591.294 66.776C590.75 66.52 590.318 66.1787 589.998 65.752C589.678 65.3147 589.507 64.8293 589.486 64.296H591.374C591.406 64.6693 591.582 64.984 591.902 65.24C592.232 65.4853 592.643 65.608 593.134 65.608C593.646 65.608 594.04 65.512 594.318 65.32C594.606 65.1173 594.75 64.8613 594.75 64.552C594.75 64.2213 594.59 63.976 594.27 63.816C593.96 63.656 593.464 63.48 592.782 63.288C592.12 63.1067 591.582 62.9307 591.166 62.76C590.75 62.5893 590.387 62.328 590.078 61.976C589.779 61.624 589.63 61.16 589.63 60.584C589.63 60.1147 589.768 59.688 590.046 59.304C590.323 58.9093 590.718 58.6 591.23 58.376C591.752 58.152 592.35 58.04 593.022 58.04C594.024 58.04 594.83 58.296 595.438 58.808C596.056 59.3093 596.387 59.9973 596.43 60.872H594.606C594.574 60.4773 594.414 60.1627 594.126 59.928C593.838 59.6933 593.448 59.576 592.958 59.576C592.478 59.576 592.11 59.6667 591.854 59.848C591.598 60.0293 591.47 60.2693 591.47 60.568C591.47 60.8027 591.555 61 591.726 61.16C591.896 61.32 592.104 61.448 592.35 61.544C592.595 61.6293 592.958 61.7413 593.438 61.88C594.078 62.0507 594.6 62.2267 595.006 62.408C595.422 62.5787 595.779 62.8347 596.078 63.176C596.376 63.5173 596.531 63.9707 596.542 64.536C596.542 65.0373 596.403 65.4853 596.126 65.88C595.848 66.2747 595.454 66.584 594.942 66.808C594.44 67.032 593.848 67.144 593.166 67.144ZM606.497 58.184V67H604.673V65.96C604.385 66.3227 604.006 66.6107 603.537 66.824C603.078 67.0267 602.587 67.128 602.065 67.128C601.371 67.128 600.747 66.984 600.193 66.696C599.649 66.408 599.217 65.9813 598.897 65.416C598.587 64.8507 598.433 64.168 598.433 63.368V58.184H600.241V63.096C600.241 63.8853 600.438 64.4933 600.833 64.92C601.227 65.336 601.766 65.544 602.449 65.544C603.131 65.544 603.67 65.336 604.065 64.92C604.47 64.4933 604.673 63.8853 604.673 63.096V58.184H606.497ZM616.983 62.376C616.983 62.7067 616.962 63.0053 616.919 63.272H610.183C610.236 63.976 610.498 64.5413 610.967 64.968C611.436 65.3947 612.012 65.608 612.695 65.608C613.676 65.608 614.37 65.1973 614.775 64.376H616.743C616.476 65.1867 615.991 65.8533 615.287 66.376C614.594 66.888 613.73 67.144 612.695 67.144C611.852 67.144 611.095 66.9573 610.423 66.584C609.762 66.2 609.239 65.6667 608.855 64.984C608.482 64.2907 608.295 63.4907 608.295 62.584C608.295 61.6773 608.476 60.8827 608.839 60.2C609.212 59.5067 609.73 58.9733 610.391 58.6C611.063 58.2267 611.831 58.04 612.695 58.04C613.527 58.04 614.268 58.2213 614.919 58.584C615.57 58.9467 616.076 59.4587 616.439 60.12C616.802 60.7707 616.983 61.5227 616.983 62.376ZM615.079 61.8C615.068 61.128 614.828 60.5893 614.359 60.184C613.89 59.7787 613.308 59.576 612.615 59.576C611.986 59.576 611.447 59.7787 610.999 60.184C610.551 60.5787 610.284 61.1173 610.199 61.8H615.079Z" fill="white"/>
<path d="M66.22 57.24C66.22 57.9467 66.0533 58.6133 65.72 59.24C65.3867 59.8667 64.8533 60.38 64.12 60.78C63.3867 61.1667 62.4467 61.36 61.3 61.36H58.78V67H56.5V53.1H61.3C62.3667 53.1 63.2667 53.2867 64 53.66C64.7467 54.02 65.3 54.5133 65.66 55.14C66.0333 55.7667 66.22 56.4667 66.22 57.24ZM61.3 59.5C62.1667 59.5 62.8133 59.3067 63.24 58.92C63.6667 58.52 63.88 57.96 63.88 57.24C63.88 55.72 63.02 54.96 61.3 54.96H58.78V59.5H61.3ZM70.6745 57.58C71.0079 57.02 71.4479 56.5867 71.9945 56.28C72.5545 55.96 73.2145 55.8 73.9745 55.8V58.16H73.3945C72.5012 58.16 71.8212 58.3867 71.3545 58.84C70.9012 59.2933 70.6745 60.08 70.6745 61.2V67H68.3945V55.98H70.6745V57.58ZM80.8503 67.18C79.8103 67.18 78.8703 66.9467 78.0303 66.48C77.1903 66 76.5303 65.3333 76.0503 64.48C75.5703 63.6133 75.3303 62.6133 75.3303 61.48C75.3303 60.36 75.577 59.3667 76.0703 58.5C76.5636 57.6333 77.237 56.9667 78.0903 56.5C78.9436 56.0333 79.897 55.8 80.9503 55.8C82.0036 55.8 82.957 56.0333 83.8103 56.5C84.6636 56.9667 85.337 57.6333 85.8303 58.5C86.3236 59.3667 86.5703 60.36 86.5703 61.48C86.5703 62.6 86.317 63.5933 85.8103 64.46C85.3036 65.3267 84.6103 66 83.7303 66.48C82.8636 66.9467 81.9036 67.18 80.8503 67.18ZM80.8503 65.2C81.437 65.2 81.9836 65.06 82.4903 64.78C83.0103 64.5 83.4303 64.08 83.7503 63.52C84.0703 62.96 84.2303 62.28 84.2303 61.48C84.2303 60.68 84.077 60.0067 83.7703 59.46C83.4636 58.9 83.057 58.48 82.5503 58.2C82.0436 57.92 81.497 57.78 80.9103 57.78C80.3236 57.78 79.777 57.92 79.2703 58.2C78.777 58.48 78.3836 58.9 78.0903 59.46C77.797 60.0067 77.6503 60.68 77.6503 61.48C77.6503 62.6667 77.9503 63.5867 78.5503 64.24C79.1636 64.88 79.9303 65.2 80.8503 65.2ZM89.9842 54.52C89.5709 54.52 89.2242 54.38 88.9442 54.1C88.6642 53.82 88.5242 53.4733 88.5242 53.06C88.5242 52.6467 88.6642 52.3 88.9442 52.02C89.2242 51.74 89.5709 51.6 89.9842 51.6C90.3842 51.6 90.7242 51.74 91.0042 52.02C91.2842 52.3 91.4242 52.6467 91.4242 53.06C91.4242 53.4733 91.2842 53.82 91.0042 54.1C90.7242 54.38 90.3842 54.52 89.9842 54.52ZM91.1042 69.16C91.1042 70.24 90.8309 71.02 90.2842 71.5C89.7509 71.9933 88.9709 72.24 87.9442 72.24H86.7642V70.32H87.5442C88.0109 70.32 88.3376 70.2267 88.5242 70.04C88.7242 69.8667 88.8242 69.5733 88.8242 69.16V55.98H91.1042V69.16ZM104.198 61.22C104.198 61.6333 104.171 62.0067 104.118 62.34H95.6977C95.7643 63.22 96.091 63.9267 96.6777 64.46C97.2643 64.9933 97.9843 65.26 98.8377 65.26C100.064 65.26 100.931 64.7467 101.438 63.72H103.898C103.564 64.7333 102.958 65.5667 102.078 66.22C101.211 66.86 100.131 67.18 98.8377 67.18C97.7843 67.18 96.8377 66.9467 95.9977 66.48C95.171 66 94.5177 65.3333 94.0377 64.48C93.571 63.6133 93.3377 62.6133 93.3377 61.48C93.3377 60.3467 93.5643 59.3533 94.0177 58.5C94.4843 57.6333 95.131 56.9667 95.9577 56.5C96.7977 56.0333 97.7577 55.8 98.8377 55.8C99.8777 55.8 100.804 56.0267 101.618 56.48C102.431 56.9333 103.064 57.5733 103.518 58.4C103.971 59.2133 104.198 60.1533 104.198 61.22ZM101.818 60.5C101.804 59.66 101.504 58.9867 100.918 58.48C100.331 57.9733 99.6043 57.72 98.7377 57.72C97.951 57.72 97.2777 57.9733 96.7177 58.48C96.1577 58.9733 95.8243 59.6467 95.7177 60.5H101.818ZM105.681 61.48C105.681 60.3467 105.908 59.3533 106.361 58.5C106.828 57.6333 107.468 56.9667 108.281 56.5C109.095 56.0333 110.028 55.8 111.081 55.8C112.415 55.8 113.515 56.12 114.381 56.76C115.261 57.3867 115.855 58.2867 116.161 59.46H113.701C113.501 58.9133 113.181 58.4867 112.741 58.18C112.301 57.8733 111.748 57.72 111.081 57.72C110.148 57.72 109.401 58.0533 108.841 58.72C108.295 59.3733 108.021 60.2933 108.021 61.48C108.021 62.6667 108.295 63.5933 108.841 64.26C109.401 64.9267 110.148 65.26 111.081 65.26C112.401 65.26 113.275 64.68 113.701 63.52H116.161C115.841 64.64 115.241 65.5333 114.361 66.2C113.481 66.8533 112.388 67.18 111.081 67.18C110.028 67.18 109.095 66.9467 108.281 66.48C107.468 66 106.828 65.3333 106.361 64.48C105.908 63.6133 105.681 62.6133 105.681 61.48ZM121.094 57.84V63.94C121.094 64.3533 121.187 64.6533 121.374 64.84C121.574 65.0133 121.907 65.1 122.374 65.1H123.774V67H121.974C120.947 67 120.16 66.76 119.614 66.28C119.067 65.8 118.794 65.02 118.794 63.94V57.84H117.494V55.98H118.794V53.24H121.094V55.98H123.774V57.84H121.094ZM142.49 67H140.21L133.35 56.62V67H131.07V53.08H133.35L140.21 63.44V53.08H142.49V67ZM144.724 61.44C144.724 60.3333 144.951 59.3533 145.404 58.5C145.871 57.6467 146.498 56.9867 147.284 56.52C148.084 56.04 148.964 55.8 149.924 55.8C150.791 55.8 151.544 55.9733 152.184 56.32C152.838 56.6533 153.358 57.0733 153.744 57.58V55.98H156.044V67H153.744V65.36C153.358 65.88 152.831 66.3133 152.164 66.66C151.498 67.0067 150.738 67.18 149.884 67.18C148.938 67.18 148.071 66.94 147.284 66.46C146.498 65.9667 145.871 65.2867 145.404 64.42C144.951 63.54 144.724 62.5467 144.724 61.44ZM153.744 61.48C153.744 60.72 153.584 60.06 153.264 59.5C152.958 58.94 152.551 58.5133 152.044 58.22C151.538 57.9267 150.991 57.78 150.404 57.78C149.818 57.78 149.271 57.9267 148.764 58.22C148.258 58.5 147.844 58.92 147.524 59.48C147.218 60.0267 147.064 60.68 147.064 61.44C147.064 62.2 147.218 62.8667 147.524 63.44C147.844 64.0133 148.258 64.4533 148.764 64.76C149.284 65.0533 149.831 65.2 150.404 65.2C150.991 65.2 151.538 65.0533 152.044 64.76C152.551 64.4667 152.958 64.04 153.264 63.48C153.584 62.9067 153.744 62.24 153.744 61.48ZM172.379 55.8C173.246 55.8 174.019 55.98 174.699 56.34C175.392 56.7 175.932 57.2333 176.319 57.94C176.719 58.6467 176.919 59.5 176.919 60.5V67H174.659V60.84C174.659 59.8533 174.412 59.1 173.919 58.58C173.426 58.0467 172.752 57.78 171.899 57.78C171.046 57.78 170.366 58.0467 169.859 58.58C169.366 59.1 169.119 59.8533 169.119 60.84V67H166.859V60.84C166.859 59.8533 166.612 59.1 166.119 58.58C165.626 58.0467 164.952 57.78 164.099 57.78C163.246 57.78 162.566 58.0467 162.059 58.58C161.566 59.1 161.319 59.8533 161.319 60.84V67H159.039V55.98H161.319V57.24C161.692 56.7867 162.166 56.4333 162.739 56.18C163.312 55.9267 163.926 55.8 164.579 55.8C165.459 55.8 166.246 55.9867 166.939 56.36C167.632 56.7333 168.166 57.2733 168.539 57.98C168.872 57.3133 169.392 56.7867 170.099 56.4C170.806 56 171.566 55.8 172.379 55.8ZM189.92 61.22C189.92 61.6333 189.894 62.0067 189.84 62.34H181.42C181.487 63.22 181.814 63.9267 182.4 64.46C182.987 64.9933 183.707 65.26 184.56 65.26C185.787 65.26 186.654 64.7467 187.16 63.72H189.62C189.287 64.7333 188.68 65.5667 187.8 66.22C186.934 66.86 185.854 67.18 184.56 67.18C183.507 67.18 182.56 66.9467 181.72 66.48C180.894 66 180.24 65.3333 179.76 64.48C179.294 63.6133 179.06 62.6133 179.06 61.48C179.06 60.3467 179.287 59.3533 179.74 58.5C180.207 57.6333 180.854 56.9667 181.68 56.5C182.52 56.0333 183.48 55.8 184.56 55.8C185.6 55.8 186.527 56.0267 187.34 56.48C188.154 56.9333 188.787 57.5733 189.24 58.4C189.694 59.2133 189.92 60.1533 189.92 61.22ZM187.54 60.5C187.527 59.66 187.227 58.9867 186.64 58.48C186.054 57.9733 185.327 57.72 184.46 57.72C183.674 57.72 183 57.9733 182.44 58.48C181.88 58.9733 181.547 59.6467 181.44 60.5H187.54ZM205.819 58.8V60.72H197.599V58.8H205.819ZM216.534 53.1V67H214.254V53.1H216.534ZM223.527 67.18C222.661 67.18 221.881 67.0267 221.187 66.72C220.507 66.4 219.967 65.9733 219.567 65.44C219.167 64.8933 218.954 64.2867 218.927 63.62H221.287C221.327 64.0867 221.547 64.48 221.947 64.8C222.361 65.1067 222.874 65.26 223.487 65.26C224.127 65.26 224.621 65.14 224.967 64.9C225.327 64.6467 225.507 64.3267 225.507 63.94C225.507 63.5267 225.307 63.22 224.907 63.02C224.521 62.82 223.901 62.6 223.047 62.36C222.221 62.1333 221.547 61.9133 221.027 61.7C220.507 61.4867 220.054 61.16 219.667 60.72C219.294 60.28 219.107 59.7 219.107 58.98C219.107 58.3933 219.281 57.86 219.627 57.38C219.974 56.8867 220.467 56.5 221.107 56.22C221.761 55.94 222.507 55.8 223.347 55.8C224.601 55.8 225.607 56.12 226.367 56.76C227.141 57.3867 227.554 58.2467 227.607 59.34H225.327C225.287 58.8467 225.087 58.4533 224.727 58.16C224.367 57.8667 223.881 57.72 223.267 57.72C222.667 57.72 222.207 57.8333 221.887 58.06C221.567 58.2867 221.407 58.5867 221.407 58.96C221.407 59.2533 221.514 59.5 221.727 59.7C221.941 59.9 222.201 60.06 222.507 60.18C222.814 60.2867 223.267 60.4267 223.867 60.6C224.667 60.8133 225.321 61.0333 225.827 61.26C226.347 61.4733 226.794 61.7933 227.167 62.22C227.541 62.6467 227.734 63.2133 227.747 63.92C227.747 64.5467 227.574 65.1067 227.227 65.6C226.881 66.0933 226.387 66.48 225.747 66.76C225.121 67.04 224.381 67.18 223.527 67.18ZM234.211 67.18C233.344 67.18 232.564 67.0267 231.871 66.72C231.191 66.4 230.651 65.9733 230.251 65.44C229.851 64.8933 229.638 64.2867 229.611 63.62H231.971C232.011 64.0867 232.231 64.48 232.631 64.8C233.044 65.1067 233.558 65.26 234.171 65.26C234.811 65.26 235.304 65.14 235.651 64.9C236.011 64.6467 236.191 64.3267 236.191 63.94C236.191 63.5267 235.991 63.22 235.591 63.02C235.204 62.82 234.584 62.6 233.731 62.36C232.904 62.1333 232.231 61.9133 231.711 61.7C231.191 61.4867 230.738 61.16 230.351 60.72C229.978 60.28 229.791 59.7 229.791 58.98C229.791 58.3933 229.964 57.86 230.311 57.38C230.658 56.8867 231.151 56.5 231.791 56.22C232.444 55.94 233.191 55.8 234.031 55.8C235.284 55.8 236.291 56.12 237.051 56.76C237.824 57.3867 238.238 58.2467 238.291 59.34H236.011C235.971 58.8467 235.771 58.4533 235.411 58.16C235.051 57.8667 234.564 57.72 233.951 57.72C233.351 57.72 232.891 57.8333 232.571 58.06C232.251 58.2867 232.091 58.5867 232.091 58.96C232.091 59.2533 232.198 59.5 232.411 59.7C232.624 59.9 232.884 60.06 233.191 60.18C233.498 60.2867 233.951 60.4267 234.551 60.6C235.351 60.8133 236.004 61.0333 236.511 61.26C237.031 61.4733 237.478 61.7933 237.851 62.22C238.224 62.6467 238.418 63.2133 238.431 63.92C238.431 64.5467 238.258 65.1067 237.911 65.6C237.564 66.0933 237.071 66.48 236.431 66.76C235.804 67.04 235.064 67.18 234.211 67.18ZM250.875 55.98V67H248.595V65.7C248.235 66.1533 247.761 66.5133 247.175 66.78C246.601 67.0333 245.988 67.16 245.335 67.16C244.468 67.16 243.688 66.98 242.995 66.62C242.315 66.26 241.775 65.7267 241.375 65.02C240.988 64.3133 240.795 63.46 240.795 62.46V55.98H243.055V62.12C243.055 63.1067 243.301 63.8667 243.795 64.4C244.288 64.92 244.961 65.18 245.815 65.18C246.668 65.18 247.341 64.92 247.835 64.4C248.341 63.8667 248.595 63.1067 248.595 62.12V55.98H250.875ZM263.983 61.22C263.983 61.6333 263.956 62.0067 263.903 62.34H255.483C255.549 63.22 255.876 63.9267 256.463 64.46C257.049 64.9933 257.769 65.26 258.623 65.26C259.849 65.26 260.716 64.7467 261.223 63.72H263.683C263.349 64.7333 262.743 65.5667 261.863 66.22C260.996 66.86 259.916 67.18 258.623 67.18C257.569 67.18 256.623 66.9467 255.783 66.48C254.956 66 254.303 65.3333 253.823 64.48C253.356 63.6133 253.123 62.6133 253.123 61.48C253.123 60.3467 253.349 59.3533 253.803 58.5C254.269 57.6333 254.916 56.9667 255.743 56.5C256.583 56.0333 257.543 55.8 258.623 55.8C259.663 55.8 260.589 56.0267 261.403 56.48C262.216 56.9333 262.849 57.5733 263.303 58.4C263.756 59.2133 263.983 60.1533 263.983 61.22ZM261.603 60.5C261.589 59.66 261.289 58.9867 260.703 58.48C260.116 57.9733 259.389 57.72 258.523 57.72C257.736 57.72 257.063 57.9733 256.503 58.48C255.943 58.9733 255.609 59.6467 255.503 60.5H261.603ZM270.227 67.18C269.36 67.18 268.58 67.0267 267.887 66.72C267.207 66.4 266.667 65.9733 266.267 65.44C265.867 64.8933 265.653 64.2867 265.627 63.62H267.987C268.027 64.0867 268.247 64.48 268.647 64.8C269.06 65.1067 269.573 65.26 270.187 65.26C270.827 65.26 271.32 65.14 271.667 64.9C272.027 64.6467 272.207 64.3267 272.207 63.94C272.207 63.5267 272.007 63.22 271.607 63.02C271.22 62.82 270.6 62.6 269.747 62.36C268.92 62.1333 268.247 61.9133 267.727 61.7C267.207 61.4867 266.753 61.16 266.367 60.72C265.993 60.28 265.807 59.7 265.807 58.98C265.807 58.3933 265.98 57.86 266.327 57.38C266.673 56.8867 267.167 56.5 267.807 56.22C268.46 55.94 269.207 55.8 270.047 55.8C271.3 55.8 272.307 56.12 273.067 56.76C273.84 57.3867 274.253 58.2467 274.307 59.34H272.027C271.987 58.8467 271.787 58.4533 271.427 58.16C271.067 57.8667 270.58 57.72 269.967 57.72C269.367 57.72 268.907 57.8333 268.587 58.06C268.267 58.2867 268.107 58.5867 268.107 58.96C268.107 59.2533 268.213 59.5 268.427 59.7C268.64 59.9 268.9 60.06 269.207 60.18C269.513 60.2867 269.967 60.4267 270.567 60.6C271.367 60.8133 272.02 61.0333 272.527 61.26C273.047 61.4733 273.493 61.7933 273.867 62.22C274.24 62.6467 274.433 63.2133 274.447 63.92C274.447 64.5467 274.273 65.1067 273.927 65.6C273.58 66.0933 273.087 66.48 272.447 66.76C271.82 67.04 271.08 67.18 270.227 67.18Z" fill="black"/>
<path d="M64.072 136.768V138.96H61.096V148H58.36V138.96H55.384V136.768H64.072ZM69.5091 148.128C68.6345 148.128 67.8451 147.941 67.1411 147.568C66.4478 147.195 65.8985 146.661 65.4931 145.968C65.0985 145.275 64.9011 144.464 64.9011 143.536C64.9011 142.619 65.1038 141.813 65.5091 141.12C65.9145 140.416 66.4691 139.877 67.1731 139.504C67.8771 139.131 68.6665 138.944 69.5411 138.944C70.4158 138.944 71.2051 139.131 71.9091 139.504C72.6131 139.877 73.1678 140.416 73.5731 141.12C73.9785 141.813 74.1811 142.619 74.1811 143.536C74.1811 144.453 73.9731 145.264 73.5571 145.968C73.1518 146.661 72.5918 147.195 71.8771 147.568C71.1731 147.941 70.3838 148.128 69.5091 148.128ZM69.5091 145.76C70.0318 145.76 70.4745 145.568 70.8371 145.184C71.2105 144.8 71.3971 144.251 71.3971 143.536C71.3971 142.821 71.2158 142.272 70.8531 141.888C70.5011 141.504 70.0638 141.312 69.5411 141.312C69.0078 141.312 68.5651 141.504 68.2131 141.888C67.8611 142.261 67.6851 142.811 67.6851 143.536C67.6851 144.251 67.8558 144.8 68.1971 145.184C68.5491 145.568 68.9865 145.76 69.5091 145.76ZM83.2313 136.768C84.4153 136.768 85.4499 137.003 86.3353 137.472C87.2206 137.941 87.9033 138.603 88.3833 139.456C88.8739 140.299 89.1193 141.275 89.1193 142.384C89.1193 143.483 88.8739 144.459 88.3833 145.312C87.9033 146.165 87.2153 146.827 86.3193 147.296C85.4339 147.765 84.4046 148 83.2313 148H79.0233V136.768H83.2313ZM83.0553 145.632C84.0899 145.632 84.8953 145.349 85.4713 144.784C86.0473 144.219 86.3353 143.419 86.3353 142.384C86.3353 141.349 86.0473 140.544 85.4713 139.968C84.8953 139.392 84.0899 139.104 83.0553 139.104H81.7593V145.632H83.0553ZM94.7123 148.128C93.8376 148.128 93.0483 147.941 92.3443 147.568C91.6509 147.195 91.1016 146.661 90.6963 145.968C90.3016 145.275 90.1043 144.464 90.1043 143.536C90.1043 142.619 90.3069 141.813 90.7122 141.12C91.1176 140.416 91.6723 139.877 92.3763 139.504C93.0803 139.131 93.8696 138.944 94.7443 138.944C95.6189 138.944 96.4083 139.131 97.1123 139.504C97.8163 139.877 98.3709 140.416 98.7763 141.12C99.1816 141.813 99.3843 142.619 99.3843 143.536C99.3843 144.453 99.1763 145.264 98.7603 145.968C98.3549 146.661 97.7949 147.195 97.0803 147.568C96.3763 147.941 95.5869 148.128 94.7123 148.128ZM94.7123 145.76C95.2349 145.76 95.6776 145.568 96.0403 145.184C96.4136 144.8 96.6003 144.251 96.6003 143.536C96.6003 142.821 96.4189 142.272 96.0563 141.888C95.7043 141.504 95.2669 141.312 94.7443 141.312C94.2109 141.312 93.7683 141.504 93.4163 141.888C93.0643 142.261 92.8883 142.811 92.8883 143.536C92.8883 144.251 93.0589 144.8 93.4003 145.184C93.7523 145.568 94.1896 145.76 94.7123 145.76Z" fill="black"/>
<path d="M58.728 309.768V321H55.992V309.768H58.728ZM66.1508 311.976C67.1961 311.976 68.0281 312.317 68.6468 313C69.2761 313.672 69.5908 314.6 69.5908 315.784V321H66.8708V316.152C66.8708 315.555 66.7161 315.091 66.4068 314.76C66.0974 314.429 65.6814 314.264 65.1588 314.264C64.6361 314.264 64.2201 314.429 63.9108 314.76C63.6014 315.091 63.4468 315.555 63.4468 316.152V321H60.7108V312.072H63.4468V313.256C63.7241 312.861 64.0974 312.552 64.5668 312.328C65.0361 312.093 65.5641 311.976 66.1508 311.976ZM83.4426 313.384C83.4426 314.035 83.2933 314.632 82.9946 315.176C82.696 315.709 82.2373 316.141 81.6186 316.472C81 316.803 80.232 316.968 79.3146 316.968H77.6186V321H74.8826V309.768H79.3146C80.2106 309.768 80.968 309.923 81.5866 310.232C82.2053 310.541 82.6693 310.968 82.9786 311.512C83.288 312.056 83.4426 312.68 83.4426 313.384ZM79.1066 314.792C79.6293 314.792 80.0186 314.669 80.2746 314.424C80.5306 314.179 80.6586 313.832 80.6586 313.384C80.6586 312.936 80.5306 312.589 80.2746 312.344C80.0186 312.099 79.6293 311.976 79.1066 311.976H77.6186V314.792H79.1066ZM87.603 313.56C87.923 313.069 88.323 312.685 88.803 312.408C89.283 312.12 89.8163 311.976 90.403 311.976V314.872H89.651C88.9683 314.872 88.4563 315.021 88.115 315.32C87.7737 315.608 87.603 316.12 87.603 316.856V321H84.867V312.072H87.603V313.56ZM95.7748 321.128C94.9001 321.128 94.1108 320.941 93.4068 320.568C92.7134 320.195 92.1641 319.661 91.7588 318.968C91.3641 318.275 91.1668 317.464 91.1668 316.536C91.1668 315.619 91.3694 314.813 91.7747 314.12C92.1801 313.416 92.7348 312.877 93.4388 312.504C94.1428 312.131 94.9321 311.944 95.8068 311.944C96.6814 311.944 97.4708 312.131 98.1748 312.504C98.8788 312.877 99.4334 313.416 99.8388 314.12C100.244 314.813 100.447 315.619 100.447 316.536C100.447 317.453 100.239 318.264 99.8228 318.968C99.4174 319.661 98.8574 320.195 98.1428 320.568C97.4388 320.941 96.6494 321.128 95.7748 321.128ZM95.7748 318.76C96.2974 318.76 96.7401 318.568 97.1028 318.184C97.4761 317.8 97.6628 317.251 97.6628 316.536C97.6628 315.821 97.4814 315.272 97.1188 314.888C96.7668 314.504 96.3294 314.312 95.8068 314.312C95.2734 314.312 94.8308 314.504 94.4788 314.888C94.1268 315.261 93.9508 315.811 93.9508 316.536C93.9508 317.251 94.1214 317.8 94.4628 318.184C94.8148 318.568 95.2521 318.76 95.7748 318.76ZM105.29 311.944C105.92 311.944 106.469 312.072 106.938 312.328C107.418 312.584 107.786 312.92 108.042 313.336V312.072H110.778V320.984C110.778 321.805 110.613 322.547 110.282 323.208C109.962 323.88 109.466 324.413 108.794 324.808C108.133 325.203 107.306 325.4 106.314 325.4C104.992 325.4 103.92 325.085 103.098 324.456C102.277 323.837 101.808 322.995 101.69 321.928H104.394C104.48 322.269 104.682 322.536 105.002 322.728C105.322 322.931 105.717 323.032 106.186 323.032C106.752 323.032 107.2 322.867 107.53 322.536C107.872 322.216 108.042 321.699 108.042 320.984V319.72C107.776 320.136 107.408 320.477 106.938 320.744C106.469 321 105.92 321.128 105.29 321.128C104.554 321.128 103.888 320.941 103.29 320.568C102.693 320.184 102.218 319.645 101.866 318.952C101.525 318.248 101.354 317.437 101.354 316.52C101.354 315.603 101.525 314.797 101.866 314.104C102.218 313.411 102.693 312.877 103.29 312.504C103.888 312.131 104.554 311.944 105.29 311.944ZM108.042 316.536C108.042 315.853 107.85 315.315 107.466 314.92C107.093 314.525 106.634 314.328 106.09 314.328C105.546 314.328 105.082 314.525 104.698 314.92C104.325 315.304 104.138 315.837 104.138 316.52C104.138 317.203 104.325 317.747 104.698 318.152C105.082 318.547 105.546 318.744 106.09 318.744C106.634 318.744 107.093 318.547 107.466 318.152C107.85 317.757 108.042 317.219 108.042 316.536ZM115.494 313.56C115.814 313.069 116.214 312.685 116.694 312.408C117.174 312.12 117.707 311.976 118.294 311.976V314.872H117.542C116.859 314.872 116.347 315.021 116.006 315.32C115.664 315.608 115.494 316.12 115.494 316.856V321H112.758V312.072H115.494V313.56ZM128.017 316.392C128.017 316.648 128.001 316.915 127.969 317.192H121.777C121.82 317.747 121.996 318.173 122.305 318.472C122.625 318.76 123.015 318.904 123.473 318.904C124.156 318.904 124.631 318.616 124.897 318.04H127.809C127.66 318.627 127.388 319.155 126.993 319.624C126.609 320.093 126.124 320.461 125.537 320.728C124.951 320.995 124.295 321.128 123.569 321.128C122.695 321.128 121.916 320.941 121.233 320.568C120.551 320.195 120.017 319.661 119.633 318.968C119.249 318.275 119.057 317.464 119.057 316.536C119.057 315.608 119.244 314.797 119.617 314.104C120.001 313.411 120.535 312.877 121.217 312.504C121.9 312.131 122.684 311.944 123.569 311.944C124.433 311.944 125.201 312.125 125.873 312.488C126.545 312.851 127.068 313.368 127.441 314.04C127.825 314.712 128.017 315.496 128.017 316.392ZM125.217 315.672C125.217 315.203 125.057 314.829 124.737 314.552C124.417 314.275 124.017 314.136 123.537 314.136C123.079 314.136 122.689 314.269 122.369 314.536C122.06 314.803 121.868 315.181 121.793 315.672H125.217ZM133.093 321.128C132.314 321.128 131.621 320.995 131.013 320.728C130.405 320.461 129.925 320.099 129.573 319.64C129.221 319.171 129.023 318.648 128.981 318.072H131.685C131.717 318.381 131.861 318.632 132.117 318.824C132.373 319.016 132.687 319.112 133.061 319.112C133.402 319.112 133.663 319.048 133.845 318.92C134.037 318.781 134.133 318.605 134.133 318.392C134.133 318.136 133.999 317.949 133.733 317.832C133.466 317.704 133.034 317.565 132.437 317.416C131.797 317.267 131.263 317.112 130.837 316.952C130.41 316.781 130.042 316.52 129.733 316.168C129.423 315.805 129.269 315.32 129.269 314.712C129.269 314.2 129.407 313.736 129.685 313.32C129.973 312.893 130.389 312.557 130.933 312.312C131.487 312.067 132.143 311.944 132.901 311.944C134.021 311.944 134.901 312.221 135.541 312.776C136.191 313.331 136.565 314.067 136.661 314.984H134.133C134.09 314.675 133.951 314.429 133.717 314.248C133.493 314.067 133.194 313.976 132.821 313.976C132.501 313.976 132.255 314.04 132.085 314.168C131.914 314.285 131.829 314.451 131.829 314.664C131.829 314.92 131.962 315.112 132.229 315.24C132.506 315.368 132.933 315.496 133.509 315.624C134.17 315.795 134.709 315.965 135.125 316.136C135.541 316.296 135.903 316.563 136.213 316.936C136.533 317.299 136.698 317.789 136.709 318.408C136.709 318.931 136.559 319.4 136.261 319.816C135.973 320.221 135.551 320.541 134.997 320.776C134.453 321.011 133.818 321.128 133.093 321.128ZM142.015 321.128C141.236 321.128 140.543 320.995 139.935 320.728C139.327 320.461 138.847 320.099 138.495 319.64C138.143 319.171 137.945 318.648 137.903 318.072H140.607C140.639 318.381 140.783 318.632 141.039 318.824C141.295 319.016 141.609 319.112 141.983 319.112C142.324 319.112 142.585 319.048 142.767 318.92C142.959 318.781 143.055 318.605 143.055 318.392C143.055 318.136 142.921 317.949 142.655 317.832C142.388 317.704 141.956 317.565 141.359 317.416C140.719 317.267 140.185 317.112 139.759 316.952C139.332 316.781 138.964 316.52 138.655 316.168C138.345 315.805 138.191 315.32 138.191 314.712C138.191 314.2 138.329 313.736 138.607 313.32C138.895 312.893 139.311 312.557 139.855 312.312C140.409 312.067 141.065 311.944 141.823 311.944C142.943 311.944 143.823 312.221 144.463 312.776C145.113 313.331 145.487 314.067 145.583 314.984H143.055C143.012 314.675 142.873 314.429 142.639 314.248C142.415 314.067 142.116 313.976 141.743 313.976C141.423 313.976 141.177 314.04 141.007 314.168C140.836 314.285 140.751 314.451 140.751 314.664C140.751 314.92 140.884 315.112 141.151 315.24C141.428 315.368 141.855 315.496 142.431 315.624C143.092 315.795 143.631 315.965 144.047 316.136C144.463 316.296 144.825 316.563 145.135 316.936C145.455 317.299 145.62 317.789 145.631 318.408C145.631 318.931 145.481 319.4 145.183 319.816C144.895 320.221 144.473 320.541 143.919 320.776C143.375 321.011 142.74 321.128 142.015 321.128Z" fill="black"/>
<line x1="55" y1="155.5" x2="628" y2="155.5" stroke="black" stroke-opacity="0.5"/>
<line x1="55" y1="328.5" x2="628" y2="328.5" stroke="black" stroke-opacity="0.5"/>
<path d="M79.728 169.768V181H76.992V169.768H79.728ZM85.3428 181.128C84.5641 181.128 83.8708 180.995 83.2628 180.728C82.6548 180.461 82.1748 180.099 81.8228 179.64C81.4708 179.171 81.2734 178.648 81.2308 178.072H83.9348C83.9668 178.381 84.1108 178.632 84.3668 178.824C84.6228 179.016 84.9374 179.112 85.3108 179.112C85.6521 179.112 85.9134 179.048 86.0948 178.92C86.2868 178.781 86.3828 178.605 86.3828 178.392C86.3828 178.136 86.2494 177.949 85.9828 177.832C85.7161 177.704 85.2841 177.565 84.6868 177.416C84.0468 177.267 83.5134 177.112 83.0868 176.952C82.6601 176.781 82.2921 176.52 81.9828 176.168C81.6734 175.805 81.5188 175.32 81.5188 174.712C81.5188 174.2 81.6574 173.736 81.9348 173.32C82.2228 172.893 82.6388 172.557 83.1828 172.312C83.7374 172.067 84.3934 171.944 85.1508 171.944C86.2708 171.944 87.1508 172.221 87.7908 172.776C88.4414 173.331 88.8148 174.067 88.9108 174.984H86.3828C86.3401 174.675 86.2014 174.429 85.9668 174.248C85.7428 174.067 85.4441 173.976 85.0708 173.976C84.7508 173.976 84.5054 174.04 84.3348 174.168C84.1641 174.285 84.0788 174.451 84.0788 174.664C84.0788 174.92 84.2121 175.112 84.4788 175.24C84.7561 175.368 85.1828 175.496 85.7588 175.624C86.4201 175.795 86.9588 175.965 87.3748 176.136C87.7908 176.296 88.1534 176.563 88.4628 176.936C88.7828 177.299 88.9481 177.789 88.9588 178.408C88.9588 178.931 88.8094 179.4 88.5108 179.816C88.2228 180.221 87.8014 180.541 87.2468 180.776C86.7028 181.011 86.0681 181.128 85.3428 181.128ZM94.2646 181.128C93.486 181.128 92.7926 180.995 92.1846 180.728C91.5766 180.461 91.0966 180.099 90.7446 179.64C90.3926 179.171 90.1953 178.648 90.1526 178.072H92.8566C92.8886 178.381 93.0326 178.632 93.2886 178.824C93.5446 179.016 93.8593 179.112 94.2326 179.112C94.574 179.112 94.8353 179.048 95.0166 178.92C95.2086 178.781 95.3046 178.605 95.3046 178.392C95.3046 178.136 95.1713 177.949 94.9046 177.832C94.638 177.704 94.206 177.565 93.6086 177.416C92.9686 177.267 92.4353 177.112 92.0086 176.952C91.582 176.781 91.214 176.52 90.9046 176.168C90.5953 175.805 90.4406 175.32 90.4406 174.712C90.4406 174.2 90.5793 173.736 90.8566 173.32C91.1446 172.893 91.5606 172.557 92.1046 172.312C92.6593 172.067 93.3153 171.944 94.0726 171.944C95.1926 171.944 96.0726 172.221 96.7126 172.776C97.3633 173.331 97.7366 174.067 97.8326 174.984H95.3046C95.262 174.675 95.1233 174.429 94.8886 174.248C94.6646 174.067 94.366 173.976 93.9926 173.976C93.6726 173.976 93.4273 174.04 93.2566 174.168C93.086 174.285 93.0006 174.451 93.0006 174.664C93.0006 174.92 93.134 175.112 93.4006 175.24C93.678 175.368 94.1046 175.496 94.6806 175.624C95.342 175.795 95.8806 175.965 96.2966 176.136C96.7126 176.296 97.0753 176.563 97.3846 176.936C97.7046 177.299 97.87 177.789 97.8806 178.408C97.8806 178.931 97.7313 179.4 97.4326 179.816C97.1446 180.221 96.7233 180.541 96.1686 180.776C95.6246 181.011 94.99 181.128 94.2646 181.128ZM108.371 172.072V181H105.635V179.784C105.357 180.179 104.979 180.499 104.499 180.744C104.029 180.979 103.507 181.096 102.931 181.096C102.248 181.096 101.645 180.947 101.123 180.648C100.6 180.339 100.195 179.896 99.9065 179.32C99.6185 178.744 99.4745 178.067 99.4745 177.288V172.072H102.195V176.92C102.195 177.517 102.349 177.981 102.659 178.312C102.968 178.643 103.384 178.808 103.907 178.808C104.44 178.808 104.861 178.643 105.171 178.312C105.48 177.981 105.635 177.517 105.635 176.92V172.072H108.371ZM118.752 176.392C118.752 176.648 118.736 176.915 118.704 177.192H112.512C112.554 177.747 112.73 178.173 113.04 178.472C113.36 178.76 113.749 178.904 114.208 178.904C114.89 178.904 115.365 178.616 115.632 178.04H118.544C118.394 178.627 118.122 179.155 117.728 179.624C117.344 180.093 116.858 180.461 116.272 180.728C115.685 180.995 115.029 181.128 114.304 181.128C113.429 181.128 112.65 180.941 111.968 180.568C111.285 180.195 110.752 179.661 110.368 178.968C109.984 178.275 109.792 177.464 109.792 176.536C109.792 175.608 109.978 174.797 110.352 174.104C110.736 173.411 111.269 172.877 111.952 172.504C112.634 172.131 113.418 171.944 114.304 171.944C115.168 171.944 115.936 172.125 116.608 172.488C117.28 172.851 117.802 173.368 118.176 174.04C118.56 174.712 118.752 175.496 118.752 176.392ZM115.952 175.672C115.952 175.203 115.792 174.829 115.472 174.552C115.152 174.275 114.752 174.136 114.272 174.136C113.813 174.136 113.424 174.269 113.104 174.536C112.794 174.803 112.602 175.181 112.528 175.672H115.952ZM123.026 171.864V169.32H127.458V181H124.61V171.864H123.026Z" fill="black"/>
<rect x="572" y="165" width="39" height="21" fill="#C6F6D5"/>
<path d="M580.268 178.896H583.088V180H578.9V171.66H580.268V178.896ZM588.036 180.084C587.26 180.084 586.544 179.904 585.888 179.544C585.24 179.176 584.724 178.668 584.34 178.02C583.964 177.364 583.776 176.628 583.776 175.812C583.776 174.996 583.964 174.264 584.34 173.616C584.724 172.968 585.24 172.464 585.888 172.104C586.544 171.736 587.26 171.552 588.036 171.552C588.82 171.552 589.536 171.736 590.184 172.104C590.84 172.464 591.356 172.968 591.732 173.616C592.108 174.264 592.296 174.996 592.296 175.812C592.296 176.628 592.108 177.364 591.732 178.02C591.356 178.668 590.84 179.176 590.184 179.544C589.536 179.904 588.82 180.084 588.036 180.084ZM588.036 178.896C588.588 178.896 589.08 178.772 589.512 178.524C589.944 178.268 590.28 177.908 590.52 177.444C590.768 176.972 590.892 176.428 590.892 175.812C590.892 175.196 590.768 174.656 590.52 174.192C590.28 173.728 589.944 173.372 589.512 173.124C589.08 172.876 588.588 172.752 588.036 172.752C587.484 172.752 586.992 172.876 586.56 173.124C586.128 173.372 585.788 173.728 585.54 174.192C585.3 174.656 585.18 175.196 585.18 175.812C585.18 176.428 585.3 176.972 585.54 177.444C585.788 177.908 586.128 178.268 586.56 178.524C586.992 178.772 587.484 178.896 588.036 178.896ZM604.502 171.66L602.03 180H600.482L598.73 173.688L596.87 180L595.334 180.012L592.97 171.66H594.422L596.15 178.452L598.022 171.66H599.558L601.298 178.416L603.038 171.66H604.502Z" fill="black"/>
<line x1="76" y1="193.5" x2="611" y2="193.5" stroke="black" stroke-opacity="0.5"/>
<path d="M79.728 207.768V219H76.992V207.768H79.728ZM85.3428 219.128C84.5641 219.128 83.8708 218.995 83.2628 218.728C82.6548 218.461 82.1748 218.099 81.8228 217.64C81.4708 217.171 81.2734 216.648 81.2308 216.072H83.9348C83.9668 216.381 84.1108 216.632 84.3668 216.824C84.6228 217.016 84.9374 217.112 85.3108 217.112C85.6521 217.112 85.9134 217.048 86.0948 216.92C86.2868 216.781 86.3828 216.605 86.3828 216.392C86.3828 216.136 86.2494 215.949 85.9828 215.832C85.7161 215.704 85.2841 215.565 84.6868 215.416C84.0468 215.267 83.5134 215.112 83.0868 214.952C82.6601 214.781 82.2921 214.52 81.9828 214.168C81.6734 213.805 81.5188 213.32 81.5188 212.712C81.5188 212.2 81.6574 211.736 81.9348 211.32C82.2228 210.893 82.6388 210.557 83.1828 210.312C83.7374 210.067 84.3934 209.944 85.1508 209.944C86.2708 209.944 87.1508 210.221 87.7908 210.776C88.4414 211.331 88.8148 212.067 88.9108 212.984H86.3828C86.3401 212.675 86.2014 212.429 85.9668 212.248C85.7428 212.067 85.4441 211.976 85.0708 211.976C84.7508 211.976 84.5054 212.04 84.3348 212.168C84.1641 212.285 84.0788 212.451 84.0788 212.664C84.0788 212.92 84.2121 213.112 84.4788 213.24C84.7561 213.368 85.1828 213.496 85.7588 213.624C86.4201 213.795 86.9588 213.965 87.3748 214.136C87.7908 214.296 88.1534 214.563 88.4628 214.936C88.7828 215.299 88.9481 215.789 88.9588 216.408C88.9588 216.931 88.8094 217.4 88.5108 217.816C88.2228 218.221 87.8014 218.541 87.2468 218.776C86.7028 219.011 86.0681 219.128 85.3428 219.128ZM94.2646 219.128C93.486 219.128 92.7926 218.995 92.1846 218.728C91.5766 218.461 91.0966 218.099 90.7446 217.64C90.3926 217.171 90.1953 216.648 90.1526 216.072H92.8566C92.8886 216.381 93.0326 216.632 93.2886 216.824C93.5446 217.016 93.8593 217.112 94.2326 217.112C94.574 217.112 94.8353 217.048 95.0166 216.92C95.2086 216.781 95.3046 216.605 95.3046 216.392C95.3046 216.136 95.1713 215.949 94.9046 215.832C94.638 215.704 94.206 215.565 93.6086 215.416C92.9686 215.267 92.4353 215.112 92.0086 214.952C91.582 214.781 91.214 214.52 90.9046 214.168C90.5953 213.805 90.4406 213.32 90.4406 212.712C90.4406 212.2 90.5793 211.736 90.8566 211.32C91.1446 210.893 91.5606 210.557 92.1046 210.312C92.6593 210.067 93.3153 209.944 94.0726 209.944C95.1926 209.944 96.0726 210.221 96.7126 210.776C97.3633 211.331 97.7366 212.067 97.8326 212.984H95.3046C95.262 212.675 95.1233 212.429 94.8886 212.248C94.6646 212.067 94.366 211.976 93.9926 211.976C93.6726 211.976 93.4273 212.04 93.2566 212.168C93.086 212.285 93.0006 212.451 93.0006 212.664C93.0006 212.92 93.134 213.112 93.4006 213.24C93.678 213.368 94.1046 213.496 94.6806 213.624C95.342 213.795 95.8806 213.965 96.2966 214.136C96.7126 214.296 97.0753 214.563 97.3846 214.936C97.7046 215.299 97.87 215.789 97.8806 216.408C97.8806 216.931 97.7313 217.4 97.4326 217.816C97.1446 218.221 96.7233 218.541 96.1686 218.776C95.6246 219.011 94.99 219.128 94.2646 219.128ZM108.371 210.072V219H105.635V217.784C105.357 218.179 104.979 218.499 104.499 218.744C104.029 218.979 103.507 219.096 102.931 219.096C102.248 219.096 101.645 218.947 101.123 218.648C100.6 218.339 100.195 217.896 99.9065 217.32C99.6185 216.744 99.4745 216.067 99.4745 215.288V210.072H102.195V214.92C102.195 215.517 102.349 215.981 102.659 216.312C102.968 216.643 103.384 216.808 103.907 216.808C104.44 216.808 104.861 216.643 105.171 216.312C105.48 215.981 105.635 215.517 105.635 214.92V210.072H108.371ZM118.752 214.392C118.752 214.648 118.736 214.915 118.704 215.192H112.512C112.554 215.747 112.73 216.173 113.04 216.472C113.36 216.76 113.749 216.904 114.208 216.904C114.89 216.904 115.365 216.616 115.632 216.04H118.544C118.394 216.627 118.122 217.155 117.728 217.624C117.344 218.093 116.858 218.461 116.272 218.728C115.685 218.995 115.029 219.128 114.304 219.128C113.429 219.128 112.65 218.941 111.968 218.568C111.285 218.195 110.752 217.661 110.368 216.968C109.984 216.275 109.792 215.464 109.792 214.536C109.792 213.608 109.978 212.797 110.352 212.104C110.736 211.411 111.269 210.877 111.952 210.504C112.634 210.131 113.418 209.944 114.304 209.944C115.168 209.944 115.936 210.125 116.608 210.488C117.28 210.851 117.802 211.368 118.176 212.04C118.56 212.712 118.752 213.496 118.752 214.392ZM115.952 213.672C115.952 213.203 115.792 212.829 115.472 212.552C115.152 212.275 114.752 212.136 114.272 212.136C113.813 212.136 113.424 212.269 113.104 212.536C112.794 212.803 112.602 213.181 112.528 213.672H115.952ZM123.218 216.808C123.58 216.52 123.746 216.387 123.714 216.408C124.759 215.544 125.58 214.835 126.178 214.28C126.786 213.725 127.298 213.144 127.714 212.536C128.13 211.928 128.338 211.336 128.338 210.76C128.338 210.323 128.236 209.981 128.034 209.736C127.831 209.491 127.527 209.368 127.122 209.368C126.716 209.368 126.396 209.523 126.162 209.832C125.938 210.131 125.826 210.557 125.826 211.112H123.186C123.207 210.205 123.399 209.448 123.762 208.84C124.135 208.232 124.62 207.784 125.218 207.496C125.826 207.208 126.498 207.064 127.234 207.064C128.503 207.064 129.458 207.389 130.098 208.04C130.748 208.691 131.074 209.539 131.074 210.584C131.074 211.725 130.684 212.787 129.906 213.768C129.127 214.739 128.135 215.688 126.93 216.616H131.25V218.84H123.218V216.808Z" fill="black"/>
<rect x="572" y="203" width="39" height="21" fill="#C6F6D5"/>
<path d="M580.268 216.896H583.088V218H578.9V209.66H580.268V216.896ZM588.036 218.084C587.26 218.084 586.544 217.904 585.888 217.544C585.24 217.176 584.724 216.668 584.34 216.02C583.964 215.364 583.776 214.628 583.776 213.812C583.776 212.996 583.964 212.264 584.34 211.616C584.724 210.968 585.24 210.464 585.888 210.104C586.544 209.736 587.26 209.552 588.036 209.552C588.82 209.552 589.536 209.736 590.184 210.104C590.84 210.464 591.356 210.968 591.732 211.616C592.108 212.264 592.296 212.996 592.296 213.812C592.296 214.628 592.108 215.364 591.732 216.02C591.356 216.668 590.84 217.176 590.184 217.544C589.536 217.904 588.82 218.084 588.036 218.084ZM588.036 216.896C588.588 216.896 589.08 216.772 589.512 216.524C589.944 216.268 590.28 215.908 590.52 215.444C590.768 214.972 590.892 214.428 590.892 213.812C590.892 213.196 590.768 212.656 590.52 212.192C590.28 211.728 589.944 211.372 589.512 211.124C589.08 210.876 588.588 210.752 588.036 210.752C587.484 210.752 586.992 210.876 586.56 211.124C586.128 211.372 585.788 211.728 585.54 212.192C585.3 212.656 585.18 213.196 585.18 213.812C585.18 214.428 585.3 214.972 585.54 215.444C585.788 215.908 586.128 216.268 586.56 216.524C586.992 216.772 587.484 216.896 588.036 216.896ZM604.502 209.66L602.03 218H600.482L598.73 211.688L596.87 218L595.334 218.012L592.97 209.66H594.422L596.15 216.452L598.022 209.66H599.558L601.298 216.416L603.038 209.66H604.502Z" fill="black"/>
<line x1="76" y1="231.5" x2="611" y2="231.5" stroke="black" stroke-opacity="0.5"/>
<path d="M79.728 245.768V257H76.992V245.768H79.728ZM85.3428 257.128C84.5641 257.128 83.8708 256.995 83.2628 256.728C82.6548 256.461 82.1748 256.099 81.8228 255.64C81.4708 255.171 81.2734 254.648 81.2308 254.072H83.9348C83.9668 254.381 84.1108 254.632 84.3668 254.824C84.6228 255.016 84.9374 255.112 85.3108 255.112C85.6521 255.112 85.9134 255.048 86.0948 254.92C86.2868 254.781 86.3828 254.605 86.3828 254.392C86.3828 254.136 86.2494 253.949 85.9828 253.832C85.7161 253.704 85.2841 253.565 84.6868 253.416C84.0468 253.267 83.5134 253.112 83.0868 252.952C82.6601 252.781 82.2921 252.52 81.9828 252.168C81.6734 251.805 81.5188 251.32 81.5188 250.712C81.5188 250.2 81.6574 249.736 81.9348 249.32C82.2228 248.893 82.6388 248.557 83.1828 248.312C83.7374 248.067 84.3934 247.944 85.1508 247.944C86.2708 247.944 87.1508 248.221 87.7908 248.776C88.4414 249.331 88.8148 250.067 88.9108 250.984H86.3828C86.3401 250.675 86.2014 250.429 85.9668 250.248C85.7428 250.067 85.4441 249.976 85.0708 249.976C84.7508 249.976 84.5054 250.04 84.3348 250.168C84.1641 250.285 84.0788 250.451 84.0788 250.664C84.0788 250.92 84.2121 251.112 84.4788 251.24C84.7561 251.368 85.1828 251.496 85.7588 251.624C86.4201 251.795 86.9588 251.965 87.3748 252.136C87.7908 252.296 88.1534 252.563 88.4628 252.936C88.7828 253.299 88.9481 253.789 88.9588 254.408C88.9588 254.931 88.8094 255.4 88.5108 255.816C88.2228 256.221 87.8014 256.541 87.2468 256.776C86.7028 257.011 86.0681 257.128 85.3428 257.128ZM94.2646 257.128C93.486 257.128 92.7926 256.995 92.1846 256.728C91.5766 256.461 91.0966 256.099 90.7446 255.64C90.3926 255.171 90.1953 254.648 90.1526 254.072H92.8566C92.8886 254.381 93.0326 254.632 93.2886 254.824C93.5446 255.016 93.8593 255.112 94.2326 255.112C94.574 255.112 94.8353 255.048 95.0166 254.92C95.2086 254.781 95.3046 254.605 95.3046 254.392C95.3046 254.136 95.1713 253.949 94.9046 253.832C94.638 253.704 94.206 253.565 93.6086 253.416C92.9686 253.267 92.4353 253.112 92.0086 252.952C91.582 252.781 91.214 252.52 90.9046 252.168C90.5953 251.805 90.4406 251.32 90.4406 250.712C90.4406 250.2 90.5793 249.736 90.8566 249.32C91.1446 248.893 91.5606 248.557 92.1046 248.312C92.6593 248.067 93.3153 247.944 94.0726 247.944C95.1926 247.944 96.0726 248.221 96.7126 248.776C97.3633 249.331 97.7366 250.067 97.8326 250.984H95.3046C95.262 250.675 95.1233 250.429 94.8886 250.248C94.6646 250.067 94.366 249.976 93.9926 249.976C93.6726 249.976 93.4273 250.04 93.2566 250.168C93.086 250.285 93.0006 250.451 93.0006 250.664C93.0006 250.92 93.134 251.112 93.4006 251.24C93.678 251.368 94.1046 251.496 94.6806 251.624C95.342 251.795 95.8806 251.965 96.2966 252.136C96.7126 252.296 97.0753 252.563 97.3846 252.936C97.7046 253.299 97.87 253.789 97.8806 254.408C97.8806 254.931 97.7313 255.4 97.4326 255.816C97.1446 256.221 96.7233 256.541 96.1686 256.776C95.6246 257.011 94.99 257.128 94.2646 257.128ZM108.371 248.072V257H105.635V255.784C105.357 256.179 104.979 256.499 104.499 256.744C104.029 256.979 103.507 257.096 102.931 257.096C102.248 257.096 101.645 256.947 101.123 256.648C100.6 256.339 100.195 255.896 99.9065 255.32C99.6185 254.744 99.4745 254.067 99.4745 253.288V248.072H102.195V252.92C102.195 253.517 102.349 253.981 102.659 254.312C102.968 254.643 103.384 254.808 103.907 254.808C104.44 254.808 104.861 254.643 105.171 254.312C105.48 253.981 105.635 253.517 105.635 252.92V248.072H108.371ZM118.752 252.392C118.752 252.648 118.736 252.915 118.704 253.192H112.512C112.554 253.747 112.73 254.173 113.04 254.472C113.36 254.76 113.749 254.904 114.208 254.904C114.89 254.904 115.365 254.616 115.632 254.04H118.544C118.394 254.627 118.122 255.155 117.728 255.624C117.344 256.093 116.858 256.461 116.272 256.728C115.685 256.995 115.029 257.128 114.304 257.128C113.429 257.128 112.65 256.941 111.968 256.568C111.285 256.195 110.752 255.661 110.368 254.968C109.984 254.275 109.792 253.464 109.792 252.536C109.792 251.608 109.978 250.797 110.352 250.104C110.736 249.411 111.269 248.877 111.952 248.504C112.634 248.131 113.418 247.944 114.304 247.944C115.168 247.944 115.936 248.125 116.608 248.488C117.28 248.851 117.802 249.368 118.176 250.04C118.56 250.712 118.752 251.496 118.752 252.392ZM115.952 251.672C115.952 251.203 115.792 250.829 115.472 250.552C115.152 250.275 114.752 250.136 114.272 250.136C113.813 250.136 113.424 250.269 113.104 250.536C112.794 250.803 112.602 251.181 112.528 251.672H115.952ZM123.41 248.616C123.452 247.475 123.826 246.595 124.53 245.976C125.234 245.357 126.188 245.048 127.394 245.048C128.194 245.048 128.876 245.187 129.442 245.464C130.018 245.741 130.45 246.12 130.738 246.6C131.036 247.08 131.186 247.619 131.186 248.216C131.186 248.92 131.01 249.496 130.658 249.944C130.306 250.381 129.895 250.68 129.426 250.84V250.904C130.034 251.107 130.514 251.443 130.866 251.912C131.218 252.381 131.394 252.984 131.394 253.72C131.394 254.381 131.239 254.968 130.93 255.48C130.631 255.981 130.188 256.376 129.602 256.664C129.026 256.952 128.338 257.096 127.538 257.096C126.258 257.096 125.234 256.781 124.466 256.152C123.708 255.523 123.308 254.573 123.266 253.304H125.922C125.932 253.773 126.066 254.147 126.322 254.424C126.578 254.691 126.951 254.824 127.442 254.824C127.858 254.824 128.178 254.707 128.402 254.472C128.636 254.227 128.754 253.907 128.754 253.512C128.754 253 128.588 252.632 128.258 252.408C127.938 252.173 127.42 252.056 126.706 252.056H126.194V249.832H126.706C127.25 249.832 127.687 249.741 128.018 249.56C128.359 249.368 128.53 249.032 128.53 248.552C128.53 248.168 128.423 247.869 128.21 247.656C127.996 247.443 127.703 247.336 127.33 247.336C126.924 247.336 126.62 247.459 126.418 247.704C126.226 247.949 126.114 248.253 126.082 248.616H123.41Z" fill="black"/>
<rect x="572" y="241" width="39" height="21" fill="#C6F6D5"/>
<path d="M580.268 254.896H583.088V256H578.9V247.66H580.268V254.896ZM588.036 256.084C587.26 256.084 586.544 255.904 585.888 255.544C585.24 255.176 584.724 254.668 584.34 254.02C583.964 253.364 583.776 252.628 583.776 251.812C583.776 250.996 583.964 250.264 584.34 249.616C584.724 248.968 585.24 248.464 585.888 248.104C586.544 247.736 587.26 247.552 588.036 247.552C588.82 247.552 589.536 247.736 590.184 248.104C590.84 248.464 591.356 248.968 591.732 249.616C592.108 250.264 592.296 250.996 592.296 251.812C592.296 252.628 592.108 253.364 591.732 254.02C591.356 254.668 590.84 255.176 590.184 255.544C589.536 255.904 588.82 256.084 588.036 256.084ZM588.036 254.896C588.588 254.896 589.08 254.772 589.512 254.524C589.944 254.268 590.28 253.908 590.52 253.444C590.768 252.972 590.892 252.428 590.892 251.812C590.892 251.196 590.768 250.656 590.52 250.192C590.28 249.728 589.944 249.372 589.512 249.124C589.08 248.876 588.588 248.752 588.036 248.752C587.484 248.752 586.992 248.876 586.56 249.124C586.128 249.372 585.788 249.728 585.54 250.192C585.3 250.656 585.18 251.196 585.18 251.812C585.18 252.428 585.3 252.972 585.54 253.444C585.788 253.908 586.128 254.268 586.56 254.524C586.992 254.772 587.484 254.896 588.036 254.896ZM604.502 247.66L602.03 256H600.482L598.73 249.688L596.87 256L595.334 256.012L592.97 247.66H594.422L596.15 254.452L598.022 247.66H599.558L601.298 254.416L603.038 247.66H604.502Z" fill="black"/>
<line x1="76" y1="269.5" x2="611" y2="269.5" stroke="black" stroke-opacity="0.5"/>
</svg>
