<svg width="683" height="399" viewBox="0 0 683 399" fill="none" xmlns="http://www.w3.org/2000/svg">
<rect x="21" y="17" width="641" height="365" rx="10" fill="white"/>
<rect x="402" y="331" width="78" height="33" rx="10" fill="#7209B7"/>
<path d="M146.88 65.16H141.06L140.06 68H137.68L142.66 54.08H145.3L150.28 68H147.88L146.88 65.16ZM146.24 63.3L143.98 56.84L141.7 63.3H146.24ZM151.685 62.44C151.685 61.3333 151.912 60.3533 152.365 59.5C152.832 58.6467 153.459 57.9867 154.245 57.52C155.045 57.04 155.932 56.8 156.905 56.8C157.625 56.8 158.332 56.96 159.025 57.28C159.732 57.5867 160.292 58 160.705 58.52V53.2H163.005V68H160.705V66.34C160.332 66.8733 159.812 67.3133 159.145 67.66C158.492 68.0067 157.739 68.18 156.885 68.18C155.925 68.18 155.045 67.94 154.245 67.46C153.459 66.9667 152.832 66.2867 152.365 65.42C151.912 64.54 151.685 63.5467 151.685 62.44ZM160.705 62.48C160.705 61.72 160.545 61.06 160.225 60.5C159.919 59.94 159.512 59.5133 159.005 59.22C158.499 58.9267 157.952 58.78 157.365 58.78C156.779 58.78 156.232 58.9267 155.725 59.22C155.219 59.5 154.805 59.92 154.485 60.48C154.179 61.0267 154.025 61.68 154.025 62.44C154.025 63.2 154.179 63.8667 154.485 64.44C154.805 65.0133 155.219 65.4533 155.725 65.76C156.245 66.0533 156.792 66.2 157.365 66.2C157.952 66.2 158.499 66.0533 159.005 65.76C159.512 65.4667 159.919 65.04 160.225 64.48C160.545 63.9067 160.705 63.24 160.705 62.48ZM165.24 62.44C165.24 61.3333 165.467 60.3533 165.92 59.5C166.387 58.6467 167.013 57.9867 167.8 57.52C168.6 57.04 169.487 56.8 170.46 56.8C171.18 56.8 171.887 56.96 172.58 57.28C173.287 57.5867 173.847 58 174.26 58.52V53.2H176.56V68H174.26V66.34C173.887 66.8733 173.367 67.3133 172.7 67.66C172.047 68.0067 171.293 68.18 170.44 68.18C169.48 68.18 168.6 67.94 167.8 67.46C167.013 66.9667 166.387 66.2867 165.92 65.42C165.467 64.54 165.24 63.5467 165.24 62.44ZM174.26 62.48C174.26 61.72 174.1 61.06 173.78 60.5C173.473 59.94 173.067 59.5133 172.56 59.22C172.053 58.9267 171.507 58.78 170.92 58.78C170.333 58.78 169.787 58.9267 169.28 59.22C168.773 59.5 168.36 59.92 168.04 60.48C167.733 61.0267 167.58 61.68 167.58 62.44C167.58 63.2 167.733 63.8667 168.04 64.44C168.36 65.0133 168.773 65.4533 169.28 65.76C169.8 66.0533 170.347 66.2 170.92 66.2C171.507 66.2 172.053 66.0533 172.56 65.76C173.067 65.4667 173.473 65.04 173.78 64.48C174.1 63.9067 174.26 63.24 174.26 62.48ZM190.31 56.8C191.177 56.8 191.95 56.98 192.63 57.34C193.323 57.7 193.863 58.2333 194.25 58.94C194.637 59.6467 194.83 60.5 194.83 61.5V68H192.57V61.84C192.57 60.8533 192.323 60.1 191.83 59.58C191.337 59.0467 190.663 58.78 189.81 58.78C188.957 58.78 188.277 59.0467 187.77 59.58C187.277 60.1 187.03 60.8533 187.03 61.84V68H184.75V56.98H187.03V58.24C187.403 57.7867 187.877 57.4333 188.45 57.18C189.037 56.9267 189.657 56.8 190.31 56.8ZM207.838 62.22C207.838 62.6333 207.812 63.0067 207.758 63.34H199.338C199.405 64.22 199.732 64.9267 200.318 65.46C200.905 65.9933 201.625 66.26 202.478 66.26C203.705 66.26 204.572 65.7467 205.078 64.72H207.538C207.205 65.7333 206.598 66.5667 205.718 67.22C204.852 67.86 203.772 68.18 202.478 68.18C201.425 68.18 200.478 67.9467 199.638 67.48C198.812 67 198.158 66.3333 197.678 65.48C197.212 64.6133 196.978 63.6133 196.978 62.48C196.978 61.3467 197.205 60.3533 197.658 59.5C198.125 58.6333 198.772 57.9667 199.598 57.5C200.438 57.0333 201.398 56.8 202.478 56.8C203.518 56.8 204.445 57.0267 205.258 57.48C206.072 57.9333 206.705 58.5733 207.158 59.4C207.612 60.2133 207.838 61.1533 207.838 62.22ZM205.458 61.5C205.445 60.66 205.145 59.9867 204.558 59.48C203.972 58.9733 203.245 58.72 202.378 58.72C201.592 58.72 200.918 58.9733 200.358 59.48C199.798 59.9733 199.465 60.6467 199.358 61.5H205.458ZM224.882 56.98L221.462 68H219.062L216.842 59.86L214.622 68H212.222L208.782 56.98H211.102L213.402 65.84L215.742 56.98H218.122L220.362 65.8L222.642 56.98H224.882ZM232.941 55.52C232.528 55.52 232.181 55.38 231.901 55.1C231.621 54.82 231.481 54.4733 231.481 54.06C231.481 53.6467 231.621 53.3 231.901 53.02C232.181 52.74 232.528 52.6 232.941 52.6C233.341 52.6 233.681 52.74 233.961 53.02C234.241 53.3 234.381 53.6467 234.381 54.06C234.381 54.4733 234.241 54.82 233.961 55.1C233.681 55.38 233.341 55.52 232.941 55.52ZM234.061 56.98V68H231.781V56.98H234.061ZM241.055 68.18C240.188 68.18 239.408 68.0267 238.715 67.72C238.035 67.4 237.495 66.9733 237.095 66.44C236.695 65.8933 236.481 65.2867 236.455 64.62H238.815C238.855 65.0867 239.075 65.48 239.475 65.8C239.888 66.1067 240.401 66.26 241.015 66.26C241.655 66.26 242.148 66.14 242.495 65.9C242.855 65.6467 243.035 65.3267 243.035 64.94C243.035 64.5267 242.835 64.22 242.435 64.02C242.048 63.82 241.428 63.6 240.575 63.36C239.748 63.1333 239.075 62.9133 238.555 62.7C238.035 62.4867 237.581 62.16 237.195 61.72C236.821 61.28 236.635 60.7 236.635 59.98C236.635 59.3933 236.808 58.86 237.155 58.38C237.501 57.8867 237.995 57.5 238.635 57.22C239.288 56.94 240.035 56.8 240.875 56.8C242.128 56.8 243.135 57.12 243.895 57.76C244.668 58.3867 245.081 59.2467 245.135 60.34H242.855C242.815 59.8467 242.615 59.4533 242.255 59.16C241.895 58.8667 241.408 58.72 240.795 58.72C240.195 58.72 239.735 58.8333 239.415 59.06C239.095 59.2867 238.935 59.5867 238.935 59.96C238.935 60.2533 239.041 60.5 239.255 60.7C239.468 60.9 239.728 61.06 240.035 61.18C240.341 61.2867 240.795 61.4267 241.395 61.6C242.195 61.8133 242.848 62.0333 243.355 62.26C243.875 62.4733 244.321 62.7933 244.695 63.22C245.068 63.6467 245.261 64.2133 245.275 64.92C245.275 65.5467 245.101 66.1067 244.755 66.6C244.408 67.0933 243.915 67.48 243.275 67.76C242.648 68.04 241.908 68.18 241.055 68.18ZM251.738 68.18C250.872 68.18 250.092 68.0267 249.398 67.72C248.718 67.4 248.178 66.9733 247.778 66.44C247.378 65.8933 247.165 65.2867 247.138 64.62H249.498C249.538 65.0867 249.758 65.48 250.158 65.8C250.572 66.1067 251.085 66.26 251.698 66.26C252.338 66.26 252.832 66.14 253.178 65.9C253.538 65.6467 253.718 65.3267 253.718 64.94C253.718 64.5267 253.518 64.22 253.118 64.02C252.732 63.82 252.112 63.6 251.258 63.36C250.432 63.1333 249.758 62.9133 249.238 62.7C248.718 62.4867 248.265 62.16 247.878 61.72C247.505 61.28 247.318 60.7 247.318 59.98C247.318 59.3933 247.492 58.86 247.838 58.38C248.185 57.8867 248.678 57.5 249.318 57.22C249.972 56.94 250.718 56.8 251.558 56.8C252.812 56.8 253.818 57.12 254.578 57.76C255.352 58.3867 255.765 59.2467 255.818 60.34H253.538C253.498 59.8467 253.298 59.4533 252.938 59.16C252.578 58.8667 252.092 58.72 251.478 58.72C250.878 58.72 250.418 58.8333 250.098 59.06C249.778 59.2867 249.618 59.5867 249.618 59.96C249.618 60.2533 249.725 60.5 249.938 60.7C250.152 60.9 250.412 61.06 250.718 61.18C251.025 61.2867 251.478 61.4267 252.078 61.6C252.878 61.8133 253.532 62.0333 254.038 62.26C254.558 62.4733 255.005 62.7933 255.378 63.22C255.752 63.6467 255.945 64.2133 255.958 64.92C255.958 65.5467 255.785 66.1067 255.438 66.6C255.092 67.0933 254.598 67.48 253.958 67.76C253.332 68.04 252.592 68.18 251.738 68.18ZM268.402 56.98V68H266.122V66.7C265.762 67.1533 265.289 67.5133 264.702 67.78C264.129 68.0333 263.515 68.16 262.862 68.16C261.995 68.16 261.215 67.98 260.522 67.62C259.842 67.26 259.302 66.7267 258.902 66.02C258.515 65.3133 258.322 64.46 258.322 63.46V56.98H260.582V63.12C260.582 64.1067 260.829 64.8667 261.322 65.4C261.815 65.92 262.489 66.18 263.342 66.18C264.195 66.18 264.869 65.92 265.362 65.4C265.869 64.8667 266.122 64.1067 266.122 63.12V56.98H268.402ZM281.51 62.22C281.51 62.6333 281.483 63.0067 281.43 63.34H273.01C273.077 64.22 273.403 64.9267 273.99 65.46C274.577 65.9933 275.297 66.26 276.15 66.26C277.377 66.26 278.243 65.7467 278.75 64.72H281.21C280.877 65.7333 280.27 66.5667 279.39 67.22C278.523 67.86 277.443 68.18 276.15 68.18C275.097 68.18 274.15 67.9467 273.31 67.48C272.483 67 271.83 66.3333 271.35 65.48C270.883 64.6133 270.65 63.6133 270.65 62.48C270.65 61.3467 270.877 60.3533 271.33 59.5C271.797 58.6333 272.443 57.9667 273.27 57.5C274.11 57.0333 275.07 56.8 276.15 56.8C277.19 56.8 278.117 57.0267 278.93 57.48C279.743 57.9333 280.377 58.5733 280.83 59.4C281.283 60.2133 281.51 61.1533 281.51 62.22ZM279.13 61.5C279.117 60.66 278.817 59.9867 278.23 59.48C277.643 58.9733 276.917 58.72 276.05 58.72C275.263 58.72 274.59 58.9733 274.03 59.48C273.47 59.9733 273.137 60.6467 273.03 61.5H279.13Z" fill="black"/>
<rect x="137" y="114" width="410" height="33" rx="2" fill="#D9D9D9"/>
<path d="M147.336 103H145.512L140.024 94.696V103H138.2V91.864H140.024L145.512 100.152V91.864H147.336V103ZM149.123 98.552C149.123 97.6667 149.305 96.8827 149.667 96.2C150.041 95.5173 150.542 94.9893 151.171 94.616C151.811 94.232 152.515 94.04 153.283 94.04C153.977 94.04 154.579 94.1787 155.091 94.456C155.614 94.7227 156.03 95.0587 156.339 95.464V94.184H158.179V103H156.339V101.688C156.03 102.104 155.609 102.451 155.075 102.728C154.542 103.005 153.934 103.144 153.251 103.144C152.494 103.144 151.801 102.952 151.171 102.568C150.542 102.173 150.041 101.629 149.667 100.936C149.305 100.232 149.123 99.4373 149.123 98.552ZM156.339 98.584C156.339 97.976 156.211 97.448 155.955 97C155.71 96.552 155.385 96.2107 154.979 95.976C154.574 95.7413 154.137 95.624 153.667 95.624C153.198 95.624 152.761 95.7413 152.355 95.976C151.95 96.2 151.619 96.536 151.363 96.984C151.118 97.4213 150.995 97.944 150.995 98.552C150.995 99.16 151.118 99.6933 151.363 100.152C151.619 100.611 151.95 100.963 152.355 101.208C152.771 101.443 153.209 101.56 153.667 101.56C154.137 101.56 154.574 101.443 154.979 101.208C155.385 100.973 155.71 100.632 155.955 100.184C156.211 99.7253 156.339 99.192 156.339 98.584ZM171.247 94.04C171.94 94.04 172.559 94.184 173.103 94.472C173.658 94.76 174.09 95.1867 174.399 95.752C174.719 96.3173 174.879 97 174.879 97.8V103H173.071V98.072C173.071 97.2827 172.874 96.68 172.479 96.264C172.084 95.8373 171.546 95.624 170.863 95.624C170.18 95.624 169.636 95.8373 169.231 96.264C168.836 96.68 168.639 97.2827 168.639 98.072V103H166.831V98.072C166.831 97.2827 166.634 96.68 166.239 96.264C165.844 95.8373 165.306 95.624 164.623 95.624C163.94 95.624 163.396 95.8373 162.991 96.264C162.596 96.68 162.399 97.2827 162.399 98.072V103H160.575V94.184H162.399V95.192C162.698 94.8293 163.076 94.5467 163.535 94.344C163.994 94.1413 164.484 94.04 165.007 94.04C165.711 94.04 166.34 94.1893 166.895 94.488C167.45 94.7867 167.876 95.2187 168.175 95.784C168.442 95.2507 168.858 94.8293 169.423 94.52C169.988 94.2 170.596 94.04 171.247 94.04ZM185.28 98.376C185.28 98.7067 185.259 99.0053 185.216 99.272H178.48C178.533 99.976 178.795 100.541 179.264 100.968C179.733 101.395 180.309 101.608 180.992 101.608C181.973 101.608 182.667 101.197 183.072 100.376H185.04C184.773 101.187 184.288 101.853 183.584 102.376C182.891 102.888 182.027 103.144 180.992 103.144C180.149 103.144 179.392 102.957 178.72 102.584C178.059 102.2 177.536 101.667 177.152 100.984C176.779 100.291 176.592 99.4907 176.592 98.584C176.592 97.6773 176.773 96.8827 177.136 96.2C177.509 95.5067 178.027 94.9733 178.688 94.6C179.36 94.2267 180.128 94.04 180.992 94.04C181.824 94.04 182.565 94.2213 183.216 94.584C183.867 94.9467 184.373 95.4587 184.736 96.12C185.099 96.7707 185.28 97.5227 185.28 98.376ZM183.376 97.8C183.365 97.128 183.125 96.5893 182.656 96.184C182.187 95.7787 181.605 95.576 180.912 95.576C180.283 95.576 179.744 95.7787 179.296 96.184C178.848 96.5787 178.581 97.1173 178.496 97.8H183.376Z" fill="black"/>
<path d="M161.384 125.88V127.368H158.424V137H156.6V127.368H153.624V125.88H161.384ZM171.311 132.376C171.311 132.707 171.29 133.005 171.247 133.272H164.511C164.565 133.976 164.826 134.541 165.295 134.968C165.765 135.395 166.341 135.608 167.023 135.608C168.005 135.608 168.698 135.197 169.103 134.376H171.071C170.805 135.187 170.319 135.853 169.615 136.376C168.922 136.888 168.058 137.144 167.023 137.144C166.181 137.144 165.423 136.957 164.751 136.584C164.09 136.2 163.567 135.667 163.183 134.984C162.81 134.291 162.623 133.491 162.623 132.584C162.623 131.677 162.805 130.883 163.167 130.2C163.541 129.507 164.058 128.973 164.719 128.6C165.391 128.227 166.159 128.04 167.023 128.04C167.855 128.04 168.597 128.221 169.247 128.584C169.898 128.947 170.405 129.459 170.767 130.12C171.13 130.771 171.311 131.523 171.311 132.376ZM169.407 131.8C169.397 131.128 169.157 130.589 168.687 130.184C168.218 129.779 167.637 129.576 166.943 129.576C166.314 129.576 165.775 129.779 165.327 130.184C164.879 130.579 164.613 131.117 164.527 131.8H169.407ZM176.306 137.144C175.613 137.144 174.989 137.021 174.434 136.776C173.89 136.52 173.458 136.179 173.138 135.752C172.818 135.315 172.648 134.829 172.626 134.296H174.514C174.546 134.669 174.722 134.984 175.042 135.24C175.373 135.485 175.784 135.608 176.274 135.608C176.786 135.608 177.181 135.512 177.458 135.32C177.746 135.117 177.89 134.861 177.89 134.552C177.89 134.221 177.73 133.976 177.41 133.816C177.101 133.656 176.605 133.48 175.922 133.288C175.261 133.107 174.722 132.931 174.306 132.76C173.89 132.589 173.528 132.328 173.218 131.976C172.92 131.624 172.77 131.16 172.77 130.584C172.77 130.115 172.909 129.688 173.186 129.304C173.464 128.909 173.858 128.6 174.37 128.376C174.893 128.152 175.49 128.04 176.162 128.04C177.165 128.04 177.97 128.296 178.578 128.808C179.197 129.309 179.528 129.997 179.57 130.872H177.746C177.714 130.477 177.554 130.163 177.266 129.928C176.978 129.693 176.589 129.576 176.098 129.576C175.618 129.576 175.25 129.667 174.994 129.848C174.738 130.029 174.61 130.269 174.61 130.568C174.61 130.803 174.696 131 174.866 131.16C175.037 131.32 175.245 131.448 175.49 131.544C175.736 131.629 176.098 131.741 176.578 131.88C177.218 132.051 177.741 132.227 178.146 132.408C178.562 132.579 178.92 132.835 179.218 133.176C179.517 133.517 179.672 133.971 179.682 134.536C179.682 135.037 179.544 135.485 179.266 135.88C178.989 136.275 178.594 136.584 178.082 136.808C177.581 137.032 176.989 137.144 176.306 137.144ZM183.781 129.672V134.552C183.781 134.883 183.856 135.123 184.005 135.272C184.165 135.411 184.432 135.48 184.805 135.48H185.925V137H184.485C183.664 137 183.034 136.808 182.597 136.424C182.16 136.04 181.941 135.416 181.941 134.552V129.672H180.901V128.184H181.941V125.992H183.781V128.184H185.925V129.672H183.781ZM192.691 127.016C192.36 127.016 192.083 126.904 191.859 126.68C191.635 126.456 191.523 126.179 191.523 125.848C191.523 125.517 191.635 125.24 191.859 125.016C192.083 124.792 192.36 124.68 192.691 124.68C193.011 124.68 193.283 124.792 193.507 125.016C193.731 125.24 193.843 125.517 193.843 125.848C193.843 126.179 193.731 126.456 193.507 126.68C193.283 126.904 193.011 127.016 192.691 127.016ZM193.587 128.184V137H191.763V128.184H193.587ZM199.181 137.144C198.488 137.144 197.864 137.021 197.309 136.776C196.765 136.52 196.333 136.179 196.013 135.752C195.693 135.315 195.523 134.829 195.501 134.296H197.389C197.421 134.669 197.597 134.984 197.917 135.24C198.248 135.485 198.659 135.608 199.149 135.608C199.661 135.608 200.056 135.512 200.333 135.32C200.621 135.117 200.765 134.861 200.765 134.552C200.765 134.221 200.605 133.976 200.285 133.816C199.976 133.656 199.48 133.48 198.797 133.288C198.136 133.107 197.597 132.931 197.181 132.76C196.765 132.589 196.403 132.328 196.093 131.976C195.795 131.624 195.645 131.16 195.645 130.584C195.645 130.115 195.784 129.688 196.061 129.304C196.339 128.909 196.733 128.6 197.245 128.376C197.768 128.152 198.365 128.04 199.037 128.04C200.04 128.04 200.845 128.296 201.453 128.808C202.072 129.309 202.403 129.997 202.445 130.872H200.621C200.589 130.477 200.429 130.163 200.141 129.928C199.853 129.693 199.464 129.576 198.973 129.576C198.493 129.576 198.125 129.667 197.869 129.848C197.613 130.029 197.485 130.269 197.485 130.568C197.485 130.803 197.571 131 197.741 131.16C197.912 131.32 198.12 131.448 198.365 131.544C198.611 131.629 198.973 131.741 199.453 131.88C200.093 132.051 200.616 132.227 201.021 132.408C201.437 132.579 201.795 132.835 202.093 133.176C202.392 133.517 202.547 133.971 202.557 134.536C202.557 135.037 202.419 135.485 202.141 135.88C201.864 136.275 201.469 136.584 200.957 136.808C200.456 137.032 199.864 137.144 199.181 137.144ZM207.728 137.144C207.035 137.144 206.411 137.021 205.856 136.776C205.312 136.52 204.88 136.179 204.56 135.752C204.24 135.315 204.069 134.829 204.048 134.296H205.936C205.968 134.669 206.144 134.984 206.464 135.24C206.795 135.485 207.205 135.608 207.696 135.608C208.208 135.608 208.603 135.512 208.88 135.32C209.168 135.117 209.312 134.861 209.312 134.552C209.312 134.221 209.152 133.976 208.832 133.816C208.523 133.656 208.027 133.48 207.344 133.288C206.683 133.107 206.144 132.931 205.728 132.76C205.312 132.589 204.949 132.328 204.64 131.976C204.341 131.624 204.192 131.16 204.192 130.584C204.192 130.115 204.331 129.688 204.608 129.304C204.885 128.909 205.28 128.6 205.792 128.376C206.315 128.152 206.912 128.04 207.584 128.04C208.587 128.04 209.392 128.296 210 128.808C210.619 129.309 210.949 129.997 210.992 130.872H209.168C209.136 130.477 208.976 130.163 208.688 129.928C208.4 129.693 208.011 129.576 207.52 129.576C207.04 129.576 206.672 129.667 206.416 129.848C206.16 130.029 206.032 130.269 206.032 130.568C206.032 130.803 206.117 131 206.288 131.16C206.459 131.32 206.667 131.448 206.912 131.544C207.157 131.629 207.52 131.741 208 131.88C208.64 132.051 209.163 132.227 209.568 132.408C209.984 132.579 210.341 132.835 210.64 133.176C210.939 133.517 211.093 133.971 211.104 134.536C211.104 135.037 210.965 135.485 210.688 135.88C210.411 136.275 210.016 136.584 209.504 136.808C209.003 137.032 208.411 137.144 207.728 137.144ZM221.059 128.184V137H219.235V135.96C218.947 136.323 218.568 136.611 218.099 136.824C217.64 137.027 217.15 137.128 216.627 137.128C215.934 137.128 215.31 136.984 214.755 136.696C214.211 136.408 213.779 135.981 213.459 135.416C213.15 134.851 212.995 134.168 212.995 133.368V128.184H214.803V133.096C214.803 133.885 215 134.493 215.395 134.92C215.79 135.336 216.328 135.544 217.011 135.544C217.694 135.544 218.232 135.336 218.627 134.92C219.032 134.493 219.235 133.885 219.235 133.096V128.184H221.059ZM231.546 132.376C231.546 132.707 231.524 133.005 231.482 133.272H224.746C224.799 133.976 225.06 134.541 225.53 134.968C225.999 135.395 226.575 135.608 227.258 135.608C228.239 135.608 228.932 135.197 229.338 134.376H231.306C231.039 135.187 230.554 135.853 229.85 136.376C229.156 136.888 228.292 137.144 227.258 137.144C226.415 137.144 225.658 136.957 224.986 136.584C224.324 136.2 223.802 135.667 223.418 134.984C223.044 134.291 222.858 133.491 222.858 132.584C222.858 131.677 223.039 130.883 223.402 130.2C223.775 129.507 224.292 128.973 224.954 128.6C225.626 128.227 226.394 128.04 227.258 128.04C228.09 128.04 228.831 128.221 229.482 128.584C230.132 128.947 230.639 129.459 231.002 130.12C231.364 130.771 231.546 131.523 231.546 132.376ZM229.642 131.8C229.631 131.128 229.391 130.589 228.922 130.184C228.452 129.779 227.871 129.576 227.178 129.576C226.548 129.576 226.01 129.779 225.562 130.184C225.114 130.579 224.847 131.117 224.762 131.8H229.642Z" fill="black"/>
<rect x="137" y="194" width="410" height="33" rx="2" fill="#D9D9D9"/>
<path d="M141.832 171.88C143.016 171.88 144.051 172.109 144.936 172.568C145.832 173.016 146.52 173.667 147 174.52C147.491 175.363 147.736 176.349 147.736 177.48C147.736 178.611 147.491 179.592 147 180.424C146.52 181.256 145.832 181.896 144.936 182.344C144.051 182.781 143.016 183 141.832 183H138.2V171.88H141.832ZM141.832 181.512C143.133 181.512 144.131 181.16 144.824 180.456C145.517 179.752 145.864 178.76 145.864 177.48C145.864 176.189 145.517 175.181 144.824 174.456C144.131 173.731 143.133 173.368 141.832 173.368H140.024V181.512H141.832ZM157.624 178.376C157.624 178.707 157.602 179.005 157.56 179.272H150.824C150.877 179.976 151.138 180.541 151.608 180.968C152.077 181.395 152.653 181.608 153.336 181.608C154.317 181.608 155.01 181.197 155.416 180.376H157.384C157.117 181.187 156.632 181.853 155.928 182.376C155.234 182.888 154.37 183.144 153.336 183.144C152.493 183.144 151.736 182.957 151.064 182.584C150.402 182.2 149.88 181.667 149.496 180.984C149.122 180.291 148.936 179.491 148.936 178.584C148.936 177.677 149.117 176.883 149.48 176.2C149.853 175.507 150.37 174.973 151.032 174.6C151.704 174.227 152.472 174.04 153.336 174.04C154.168 174.04 154.909 174.221 155.56 174.584C156.21 174.947 156.717 175.459 157.08 176.12C157.442 176.771 157.624 177.523 157.624 178.376ZM155.72 177.8C155.709 177.128 155.469 176.589 155 176.184C154.53 175.779 153.949 175.576 153.256 175.576C152.626 175.576 152.088 175.779 151.64 176.184C151.192 176.579 150.925 177.117 150.84 177.8H155.72ZM162.619 183.144C161.925 183.144 161.301 183.021 160.747 182.776C160.203 182.52 159.771 182.179 159.451 181.752C159.131 181.315 158.96 180.829 158.939 180.296H160.827C160.859 180.669 161.035 180.984 161.355 181.24C161.685 181.485 162.096 181.608 162.587 181.608C163.099 181.608 163.493 181.512 163.771 181.32C164.059 181.117 164.203 180.861 164.203 180.552C164.203 180.221 164.043 179.976 163.723 179.816C163.413 179.656 162.917 179.48 162.235 179.288C161.573 179.107 161.035 178.931 160.619 178.76C160.203 178.589 159.84 178.328 159.531 177.976C159.232 177.624 159.083 177.16 159.083 176.584C159.083 176.115 159.221 175.688 159.499 175.304C159.776 174.909 160.171 174.6 160.683 174.376C161.205 174.152 161.803 174.04 162.475 174.04C163.477 174.04 164.283 174.296 164.891 174.808C165.509 175.309 165.84 175.997 165.883 176.872H164.059C164.027 176.477 163.867 176.163 163.579 175.928C163.291 175.693 162.901 175.576 162.411 175.576C161.931 175.576 161.563 175.667 161.307 175.848C161.051 176.029 160.923 176.269 160.923 176.568C160.923 176.803 161.008 177 161.179 177.16C161.349 177.32 161.557 177.448 161.803 177.544C162.048 177.629 162.411 177.741 162.891 177.88C163.531 178.051 164.053 178.227 164.459 178.408C164.875 178.579 165.232 178.835 165.531 179.176C165.829 179.517 165.984 179.971 165.995 180.536C165.995 181.037 165.856 181.485 165.579 181.88C165.301 182.275 164.907 182.584 164.395 182.808C163.893 183.032 163.301 183.144 162.619 183.144ZM167.358 178.584C167.358 177.677 167.539 176.883 167.902 176.2C168.275 175.507 168.787 174.973 169.438 174.6C170.088 174.227 170.835 174.04 171.678 174.04C172.744 174.04 173.624 174.296 174.318 174.808C175.022 175.309 175.496 176.029 175.742 176.968H173.774C173.614 176.531 173.358 176.189 173.006 175.944C172.654 175.699 172.211 175.576 171.678 175.576C170.931 175.576 170.334 175.843 169.886 176.376C169.448 176.899 169.23 177.635 169.23 178.584C169.23 179.533 169.448 180.275 169.886 180.808C170.334 181.341 170.931 181.608 171.678 181.608C172.734 181.608 173.432 181.144 173.774 180.216H175.742C175.486 181.112 175.006 181.827 174.302 182.36C173.598 182.883 172.723 183.144 171.678 183.144C170.835 183.144 170.088 182.957 169.438 182.584C168.787 182.2 168.275 181.667 167.902 180.984C167.539 180.291 167.358 179.491 167.358 178.584ZM179.383 175.464C179.65 175.016 180.002 174.669 180.439 174.424C180.887 174.168 181.415 174.04 182.023 174.04V175.928H181.559C180.845 175.928 180.301 176.109 179.927 176.472C179.565 176.835 179.383 177.464 179.383 178.36V183H177.559V174.184H179.383V175.464ZM184.628 173.016C184.297 173.016 184.02 172.904 183.796 172.68C183.572 172.456 183.46 172.179 183.46 171.848C183.46 171.517 183.572 171.24 183.796 171.016C184.02 170.792 184.297 170.68 184.628 170.68C184.948 170.68 185.22 170.792 185.444 171.016C185.668 171.24 185.78 171.517 185.78 171.848C185.78 172.179 185.668 172.456 185.444 172.68C185.22 172.904 184.948 173.016 184.628 173.016ZM185.524 174.184V183H183.7V174.184H185.524ZM189.743 175.48C190.052 175.075 190.473 174.733 191.007 174.456C191.54 174.179 192.143 174.04 192.815 174.04C193.583 174.04 194.281 174.232 194.911 174.616C195.551 174.989 196.052 175.517 196.415 176.2C196.777 176.883 196.959 177.667 196.959 178.552C196.959 179.437 196.777 180.232 196.415 180.936C196.052 181.629 195.551 182.173 194.911 182.568C194.281 182.952 193.583 183.144 192.815 183.144C192.143 183.144 191.545 183.011 191.023 182.744C190.5 182.467 190.073 182.125 189.743 181.72V187.192H187.919V174.184H189.743V175.48ZM195.103 178.552C195.103 177.944 194.975 177.421 194.719 176.984C194.473 176.536 194.143 176.2 193.727 175.976C193.321 175.741 192.884 175.624 192.415 175.624C191.956 175.624 191.519 175.741 191.103 175.976C190.697 176.211 190.367 176.552 190.111 177C189.865 177.448 189.743 177.976 189.743 178.584C189.743 179.192 189.865 179.725 190.111 180.184C190.367 180.632 190.697 180.973 191.103 181.208C191.519 181.443 191.956 181.56 192.415 181.56C192.884 181.56 193.321 181.443 193.727 181.208C194.143 180.963 194.473 180.611 194.719 180.152C194.975 179.693 195.103 179.16 195.103 178.552ZM200.891 175.672V180.552C200.891 180.883 200.965 181.123 201.115 181.272C201.275 181.411 201.541 181.48 201.915 181.48H203.035V183H201.595C200.773 183 200.144 182.808 199.707 182.424C199.269 182.04 199.051 181.416 199.051 180.552V175.672H198.011V174.184H199.051V171.992H200.891V174.184H203.035V175.672H200.891ZM205.644 173.016C205.313 173.016 205.036 172.904 204.812 172.68C204.588 172.456 204.476 172.179 204.476 171.848C204.476 171.517 204.588 171.24 204.812 171.016C205.036 170.792 205.313 170.68 205.644 170.68C205.964 170.68 206.236 170.792 206.46 171.016C206.684 171.24 206.796 171.517 206.796 171.848C206.796 172.179 206.684 172.456 206.46 172.68C206.236 172.904 205.964 173.016 205.644 173.016ZM206.54 174.184V183H204.716V174.184H206.54ZM212.758 183.144C211.926 183.144 211.174 182.957 210.502 182.584C209.83 182.2 209.302 181.667 208.918 180.984C208.534 180.291 208.342 179.491 208.342 178.584C208.342 177.688 208.54 176.893 208.934 176.2C209.329 175.507 209.868 174.973 210.55 174.6C211.233 174.227 211.996 174.04 212.838 174.04C213.681 174.04 214.444 174.227 215.126 174.6C215.809 174.973 216.348 175.507 216.742 176.2C217.137 176.893 217.334 177.688 217.334 178.584C217.334 179.48 217.132 180.275 216.726 180.968C216.321 181.661 215.766 182.2 215.062 182.584C214.369 182.957 213.601 183.144 212.758 183.144ZM212.758 181.56C213.228 181.56 213.665 181.448 214.07 181.224C214.486 181 214.822 180.664 215.078 180.216C215.334 179.768 215.462 179.224 215.462 178.584C215.462 177.944 215.34 177.405 215.094 176.968C214.849 176.52 214.524 176.184 214.118 175.96C213.713 175.736 213.276 175.624 212.806 175.624C212.337 175.624 211.9 175.736 211.494 175.96C211.1 176.184 210.785 176.52 210.55 176.968C210.316 177.405 210.198 177.944 210.198 178.584C210.198 179.533 210.438 180.269 210.918 180.792C211.409 181.304 212.022 181.56 212.758 181.56ZM223.586 174.04C224.279 174.04 224.898 174.184 225.442 174.472C225.996 174.76 226.428 175.187 226.738 175.752C227.047 176.317 227.202 177 227.202 177.8V183H225.394V178.072C225.394 177.283 225.196 176.68 224.802 176.264C224.407 175.837 223.868 175.624 223.186 175.624C222.503 175.624 221.959 175.837 221.554 176.264C221.159 176.68 220.962 177.283 220.962 178.072V183H219.138V174.184H220.962V175.192C221.26 174.829 221.639 174.547 222.098 174.344C222.567 174.141 223.063 174.04 223.586 174.04Z" fill="black"/>
<path d="M157.832 205.88C159.016 205.88 160.051 206.109 160.936 206.568C161.832 207.016 162.52 207.667 163 208.52C163.491 209.363 163.736 210.349 163.736 211.48C163.736 212.611 163.491 213.592 163 214.424C162.52 215.256 161.832 215.896 160.936 216.344C160.051 216.781 159.016 217 157.832 217H154.2V205.88H157.832ZM157.832 215.512C159.133 215.512 160.131 215.16 160.824 214.456C161.517 213.752 161.864 212.76 161.864 211.48C161.864 210.189 161.517 209.181 160.824 208.456C160.131 207.731 159.133 207.368 157.832 207.368H156.024V215.512H157.832ZM173.624 212.376C173.624 212.707 173.602 213.005 173.56 213.272H166.824C166.877 213.976 167.138 214.541 167.608 214.968C168.077 215.395 168.653 215.608 169.336 215.608C170.317 215.608 171.01 215.197 171.416 214.376H173.384C173.117 215.187 172.632 215.853 171.928 216.376C171.234 216.888 170.37 217.144 169.336 217.144C168.493 217.144 167.736 216.957 167.064 216.584C166.402 216.2 165.88 215.667 165.496 214.984C165.122 214.291 164.936 213.491 164.936 212.584C164.936 211.677 165.117 210.883 165.48 210.2C165.853 209.507 166.37 208.973 167.032 208.6C167.704 208.227 168.472 208.04 169.336 208.04C170.168 208.04 170.909 208.221 171.56 208.584C172.21 208.947 172.717 209.459 173.08 210.12C173.442 210.771 173.624 211.523 173.624 212.376ZM171.72 211.8C171.709 211.128 171.469 210.589 171 210.184C170.53 209.779 169.949 209.576 169.256 209.576C168.626 209.576 168.088 209.779 167.64 210.184C167.192 210.579 166.925 211.117 166.84 211.8H171.72ZM178.619 217.144C177.925 217.144 177.301 217.021 176.747 216.776C176.203 216.52 175.771 216.179 175.451 215.752C175.131 215.315 174.96 214.829 174.939 214.296H176.827C176.859 214.669 177.035 214.984 177.355 215.24C177.685 215.485 178.096 215.608 178.587 215.608C179.099 215.608 179.493 215.512 179.771 215.32C180.059 215.117 180.203 214.861 180.203 214.552C180.203 214.221 180.043 213.976 179.723 213.816C179.413 213.656 178.917 213.48 178.235 213.288C177.573 213.107 177.035 212.931 176.619 212.76C176.203 212.589 175.84 212.328 175.531 211.976C175.232 211.624 175.083 211.16 175.083 210.584C175.083 210.115 175.221 209.688 175.499 209.304C175.776 208.909 176.171 208.6 176.683 208.376C177.205 208.152 177.803 208.04 178.475 208.04C179.477 208.04 180.283 208.296 180.891 208.808C181.509 209.309 181.84 209.997 181.883 210.872H180.059C180.027 210.477 179.867 210.163 179.579 209.928C179.291 209.693 178.901 209.576 178.411 209.576C177.931 209.576 177.563 209.667 177.307 209.848C177.051 210.029 176.923 210.269 176.923 210.568C176.923 210.803 177.008 211 177.179 211.16C177.349 211.32 177.557 211.448 177.803 211.544C178.048 211.629 178.411 211.741 178.891 211.88C179.531 212.051 180.053 212.227 180.459 212.408C180.875 212.579 181.232 212.835 181.531 213.176C181.829 213.517 181.984 213.971 181.995 214.536C181.995 215.037 181.856 215.485 181.579 215.88C181.301 216.275 180.907 216.584 180.395 216.808C179.893 217.032 179.301 217.144 178.619 217.144ZM183.358 212.584C183.358 211.677 183.539 210.883 183.902 210.2C184.275 209.507 184.787 208.973 185.438 208.6C186.088 208.227 186.835 208.04 187.678 208.04C188.744 208.04 189.624 208.296 190.318 208.808C191.022 209.309 191.496 210.029 191.742 210.968H189.774C189.614 210.531 189.358 210.189 189.006 209.944C188.654 209.699 188.211 209.576 187.678 209.576C186.931 209.576 186.334 209.843 185.886 210.376C185.448 210.899 185.23 211.635 185.23 212.584C185.23 213.533 185.448 214.275 185.886 214.808C186.334 215.341 186.931 215.608 187.678 215.608C188.734 215.608 189.432 215.144 189.774 214.216H191.742C191.486 215.112 191.006 215.827 190.302 216.36C189.598 216.883 188.723 217.144 187.678 217.144C186.835 217.144 186.088 216.957 185.438 216.584C184.787 216.2 184.275 215.667 183.902 214.984C183.539 214.291 183.358 213.491 183.358 212.584ZM195.383 209.464C195.65 209.016 196.002 208.669 196.439 208.424C196.887 208.168 197.415 208.04 198.023 208.04V209.928H197.559C196.845 209.928 196.301 210.109 195.927 210.472C195.565 210.835 195.383 211.464 195.383 212.36V217H193.559V208.184H195.383V209.464ZM200.628 207.016C200.297 207.016 200.02 206.904 199.796 206.68C199.572 206.456 199.46 206.179 199.46 205.848C199.46 205.517 199.572 205.24 199.796 205.016C200.02 204.792 200.297 204.68 200.628 204.68C200.948 204.68 201.22 204.792 201.444 205.016C201.668 205.24 201.78 205.517 201.78 205.848C201.78 206.179 201.668 206.456 201.444 206.68C201.22 206.904 200.948 207.016 200.628 207.016ZM201.524 208.184V217H199.7V208.184H201.524ZM205.743 209.48C206.052 209.075 206.473 208.733 207.007 208.456C207.54 208.179 208.143 208.04 208.815 208.04C209.583 208.04 210.281 208.232 210.911 208.616C211.551 208.989 212.052 209.517 212.415 210.2C212.777 210.883 212.959 211.667 212.959 212.552C212.959 213.437 212.777 214.232 212.415 214.936C212.052 215.629 211.551 216.173 210.911 216.568C210.281 216.952 209.583 217.144 208.815 217.144C208.143 217.144 207.545 217.011 207.023 216.744C206.5 216.467 206.073 216.125 205.743 215.72V221.192H203.919V208.184H205.743V209.48ZM211.103 212.552C211.103 211.944 210.975 211.421 210.719 210.984C210.473 210.536 210.143 210.2 209.727 209.976C209.321 209.741 208.884 209.624 208.415 209.624C207.956 209.624 207.519 209.741 207.103 209.976C206.697 210.211 206.367 210.552 206.111 211C205.865 211.448 205.743 211.976 205.743 212.584C205.743 213.192 205.865 213.725 206.111 214.184C206.367 214.632 206.697 214.973 207.103 215.208C207.519 215.443 207.956 215.56 208.415 215.56C208.884 215.56 209.321 215.443 209.727 215.208C210.143 214.963 210.473 214.611 210.719 214.152C210.975 213.693 211.103 213.16 211.103 212.552ZM216.891 209.672V214.552C216.891 214.883 216.965 215.123 217.115 215.272C217.275 215.411 217.541 215.48 217.915 215.48H219.035V217H217.595C216.773 217 216.144 216.808 215.707 216.424C215.269 216.04 215.051 215.416 215.051 214.552V209.672H214.011V208.184H215.051V205.992H216.891V208.184H219.035V209.672H216.891ZM221.644 207.016C221.313 207.016 221.036 206.904 220.812 206.68C220.588 206.456 220.476 206.179 220.476 205.848C220.476 205.517 220.588 205.24 220.812 205.016C221.036 204.792 221.313 204.68 221.644 204.68C221.964 204.68 222.236 204.792 222.46 205.016C222.684 205.24 222.796 205.517 222.796 205.848C222.796 206.179 222.684 206.456 222.46 206.68C222.236 206.904 221.964 207.016 221.644 207.016ZM222.54 208.184V217H220.716V208.184H222.54ZM228.758 217.144C227.926 217.144 227.174 216.957 226.502 216.584C225.83 216.2 225.302 215.667 224.918 214.984C224.534 214.291 224.342 213.491 224.342 212.584C224.342 211.688 224.54 210.893 224.934 210.2C225.329 209.507 225.868 208.973 226.55 208.6C227.233 208.227 227.996 208.04 228.838 208.04C229.681 208.04 230.444 208.227 231.126 208.6C231.809 208.973 232.348 209.507 232.742 210.2C233.137 210.893 233.334 211.688 233.334 212.584C233.334 213.48 233.132 214.275 232.726 214.968C232.321 215.661 231.766 216.2 231.062 216.584C230.369 216.957 229.601 217.144 228.758 217.144ZM228.758 215.56C229.228 215.56 229.665 215.448 230.07 215.224C230.486 215 230.822 214.664 231.078 214.216C231.334 213.768 231.462 213.224 231.462 212.584C231.462 211.944 231.34 211.405 231.094 210.968C230.849 210.52 230.524 210.184 230.118 209.96C229.713 209.736 229.276 209.624 228.806 209.624C228.337 209.624 227.9 209.736 227.494 209.96C227.1 210.184 226.785 210.52 226.55 210.968C226.316 211.405 226.198 211.944 226.198 212.584C226.198 213.533 226.438 214.269 226.918 214.792C227.409 215.304 228.022 215.56 228.758 215.56ZM239.586 208.04C240.279 208.04 240.898 208.184 241.442 208.472C241.996 208.76 242.428 209.187 242.738 209.752C243.047 210.317 243.202 211 243.202 211.8V217H241.394V212.072C241.394 211.283 241.196 210.68 240.802 210.264C240.407 209.837 239.868 209.624 239.186 209.624C238.503 209.624 237.959 209.837 237.554 210.264C237.159 210.68 236.962 211.283 236.962 212.072V217H235.138V208.184H236.962V209.192C237.26 208.829 237.639 208.547 238.098 208.344C238.567 208.141 239.063 208.04 239.586 208.04Z" fill="black"/>
<rect x="137" y="274" width="410" height="33" rx="2" fill="#D9D9D9"/>
<path d="M141.864 263.112C141.117 263.112 140.445 262.984 139.848 262.728C139.251 262.461 138.781 262.088 138.44 261.608C138.099 261.128 137.928 260.568 137.928 259.928H139.88C139.923 260.408 140.109 260.803 140.44 261.112C140.781 261.421 141.256 261.576 141.864 261.576C142.493 261.576 142.984 261.427 143.336 261.128C143.688 260.819 143.864 260.424 143.864 259.944C143.864 259.571 143.752 259.267 143.528 259.032C143.315 258.797 143.043 258.616 142.712 258.488C142.392 258.36 141.944 258.221 141.368 258.072C140.643 257.88 140.051 257.688 139.592 257.496C139.144 257.293 138.76 256.984 138.44 256.568C138.12 256.152 137.96 255.597 137.96 254.904C137.96 254.264 138.12 253.704 138.44 253.224C138.76 252.744 139.208 252.376 139.784 252.12C140.36 251.864 141.027 251.736 141.784 251.736C142.861 251.736 143.741 252.008 144.424 252.552C145.117 253.085 145.501 253.821 145.576 254.76H143.56C143.528 254.355 143.336 254.008 142.984 253.72C142.632 253.432 142.168 253.288 141.592 253.288C141.069 253.288 140.643 253.421 140.312 253.688C139.981 253.955 139.816 254.339 139.816 254.84C139.816 255.181 139.917 255.464 140.12 255.688C140.333 255.901 140.6 256.072 140.92 256.2C141.24 256.328 141.677 256.467 142.232 256.616C142.968 256.819 143.565 257.021 144.024 257.224C144.493 257.427 144.888 257.741 145.208 258.168C145.539 258.584 145.704 259.144 145.704 259.848C145.704 260.413 145.549 260.947 145.24 261.448C144.941 261.949 144.499 262.355 143.912 262.664C143.336 262.963 142.653 263.112 141.864 263.112ZM155.936 258.376C155.936 258.707 155.915 259.005 155.872 259.272H149.136C149.19 259.976 149.451 260.541 149.92 260.968C150.39 261.395 150.966 261.608 151.648 261.608C152.63 261.608 153.323 261.197 153.728 260.376H155.696C155.43 261.187 154.944 261.853 154.24 262.376C153.547 262.888 152.683 263.144 151.648 263.144C150.806 263.144 150.048 262.957 149.376 262.584C148.715 262.2 148.192 261.667 147.808 260.984C147.435 260.291 147.248 259.491 147.248 258.584C147.248 257.677 147.43 256.883 147.792 256.2C148.166 255.507 148.683 254.973 149.344 254.6C150.016 254.227 150.784 254.04 151.648 254.04C152.48 254.04 153.222 254.221 153.872 254.584C154.523 254.947 155.03 255.459 155.392 256.12C155.755 256.771 155.936 257.523 155.936 258.376ZM154.032 257.8C154.022 257.128 153.782 256.589 153.312 256.184C152.843 255.779 152.262 255.576 151.568 255.576C150.939 255.576 150.4 255.779 149.952 256.184C149.504 256.579 149.238 257.117 149.152 257.8H154.032ZM161.139 261.368L163.635 254.184H165.571L162.211 263H160.035L156.691 254.184H158.643L161.139 261.368ZM175.03 258.376C175.03 258.707 175.009 259.005 174.966 259.272H168.23C168.283 259.976 168.545 260.541 169.014 260.968C169.483 261.395 170.059 261.608 170.742 261.608C171.723 261.608 172.417 261.197 172.822 260.376H174.79C174.523 261.187 174.038 261.853 173.334 262.376C172.641 262.888 171.777 263.144 170.742 263.144C169.899 263.144 169.142 262.957 168.47 262.584C167.809 262.2 167.286 261.667 166.902 260.984C166.529 260.291 166.342 259.491 166.342 258.584C166.342 257.677 166.523 256.883 166.886 256.2C167.259 255.507 167.777 254.973 168.438 254.6C169.11 254.227 169.878 254.04 170.742 254.04C171.574 254.04 172.315 254.221 172.966 254.584C173.617 254.947 174.123 255.459 174.486 256.12C174.849 256.771 175.03 257.523 175.03 258.376ZM173.126 257.8C173.115 257.128 172.875 256.589 172.406 256.184C171.937 255.779 171.355 255.576 170.662 255.576C170.033 255.576 169.494 255.779 169.046 256.184C168.598 256.579 168.331 257.117 168.246 257.8H173.126ZM178.649 255.464C178.916 255.016 179.268 254.669 179.705 254.424C180.153 254.168 180.681 254.04 181.289 254.04V255.928H180.825C180.11 255.928 179.566 256.109 179.193 256.472C178.83 256.835 178.649 257.464 178.649 258.36V263H176.825V254.184H178.649V255.464ZM183.894 253.016C183.563 253.016 183.286 252.904 183.062 252.68C182.838 252.456 182.726 252.179 182.726 251.848C182.726 251.517 182.838 251.24 183.062 251.016C183.286 250.792 183.563 250.68 183.894 250.68C184.214 250.68 184.486 250.792 184.71 251.016C184.934 251.24 185.046 251.517 185.046 251.848C185.046 252.179 184.934 252.456 184.71 252.68C184.486 252.904 184.214 253.016 183.894 253.016ZM184.79 254.184V263H182.966V254.184H184.79ZM189.312 255.672V260.552C189.312 260.883 189.387 261.123 189.536 261.272C189.696 261.411 189.963 261.48 190.336 261.48H191.456V263H190.016C189.195 263 188.566 262.808 188.128 262.424C187.691 262.04 187.472 261.416 187.472 260.552V255.672H186.432V254.184H187.472V251.992H189.312V254.184H191.456V255.672H189.312ZM201.074 254.184L195.666 267.144H193.778L195.57 262.856L192.098 254.184H194.13L196.61 260.904L199.186 254.184H201.074Z" fill="black"/>
<path d="M156.024 295.528H159.784V297H154.2V285.88H156.024V295.528ZM165.133 297.144C164.301 297.144 163.549 296.957 162.877 296.584C162.205 296.2 161.677 295.667 161.293 294.984C160.909 294.291 160.717 293.491 160.717 292.584C160.717 291.688 160.915 290.893 161.309 290.2C161.704 289.507 162.243 288.973 162.925 288.6C163.608 288.227 164.371 288.04 165.213 288.04C166.056 288.04 166.819 288.227 167.501 288.6C168.184 288.973 168.723 289.507 169.117 290.2C169.512 290.893 169.709 291.688 169.709 292.584C169.709 293.48 169.507 294.275 169.101 294.968C168.696 295.661 168.141 296.2 167.437 296.584C166.744 296.957 165.976 297.144 165.133 297.144ZM165.133 295.56C165.603 295.56 166.04 295.448 166.445 295.224C166.861 295 167.197 294.664 167.453 294.216C167.709 293.768 167.837 293.224 167.837 292.584C167.837 291.944 167.715 291.405 167.469 290.968C167.224 290.52 166.899 290.184 166.493 289.96C166.088 289.736 165.651 289.624 165.181 289.624C164.712 289.624 164.275 289.736 163.869 289.96C163.475 290.184 163.16 290.52 162.925 290.968C162.691 291.405 162.573 291.944 162.573 292.584C162.573 293.533 162.813 294.269 163.293 294.792C163.784 295.304 164.397 295.56 165.133 295.56ZM183.353 288.184L180.617 297H178.697L176.921 290.488L175.145 297H173.225L170.473 288.184H172.329L174.169 295.272L176.041 288.184H177.945L179.737 295.24L181.561 288.184H183.353Z" fill="black"/>
<path d="M413.592 348.416C413.592 347.328 413.843 346.352 414.344 345.488C414.856 344.624 415.544 343.952 416.408 343.472C417.283 342.981 418.237 342.736 419.272 342.736C420.456 342.736 421.507 343.029 422.424 343.616C423.352 344.192 424.024 345.013 424.44 346.08H422.248C421.96 345.493 421.56 345.056 421.048 344.768C420.536 344.48 419.944 344.336 419.272 344.336C418.536 344.336 417.88 344.501 417.304 344.832C416.728 345.163 416.275 345.637 415.944 346.256C415.624 346.875 415.464 347.595 415.464 348.416C415.464 349.237 415.624 349.957 415.944 350.576C416.275 351.195 416.728 351.675 417.304 352.016C417.88 352.347 418.536 352.512 419.272 352.512C419.944 352.512 420.536 352.368 421.048 352.08C421.56 351.792 421.96 351.355 422.248 350.768H424.44C424.024 351.835 423.352 352.656 422.424 353.232C421.507 353.808 420.456 354.096 419.272 354.096C418.227 354.096 417.272 353.856 416.408 353.376C415.544 352.885 414.856 352.208 414.344 351.344C413.843 350.48 413.592 349.504 413.592 348.416ZM428.399 346.464C428.666 346.016 429.018 345.669 429.455 345.424C429.903 345.168 430.431 345.04 431.039 345.04V346.928H430.575C429.86 346.928 429.316 347.109 428.943 347.472C428.58 347.835 428.399 348.464 428.399 349.36V354H426.575V345.184H428.399V346.464ZM440.796 349.376C440.796 349.707 440.774 350.005 440.732 350.272H433.996C434.049 350.976 434.31 351.541 434.78 351.968C435.249 352.395 435.825 352.608 436.508 352.608C437.489 352.608 438.182 352.197 438.588 351.376H440.556C440.289 352.187 439.804 352.853 439.1 353.376C438.406 353.888 437.542 354.144 436.508 354.144C435.665 354.144 434.908 353.957 434.236 353.584C433.574 353.2 433.052 352.667 432.668 351.984C432.294 351.291 432.108 350.491 432.108 349.584C432.108 348.677 432.289 347.883 432.652 347.2C433.025 346.507 433.542 345.973 434.204 345.6C434.876 345.227 435.644 345.04 436.508 345.04C437.34 345.04 438.081 345.221 438.732 345.584C439.382 345.947 439.889 346.459 440.252 347.12C440.614 347.771 440.796 348.523 440.796 349.376ZM438.892 348.8C438.881 348.128 438.641 347.589 438.172 347.184C437.702 346.779 437.121 346.576 436.428 346.576C435.798 346.576 435.26 346.779 434.812 347.184C434.364 347.579 434.097 348.117 434.012 348.8H438.892ZM441.983 349.552C441.983 348.667 442.164 347.883 442.527 347.2C442.9 346.517 443.401 345.989 444.031 345.616C444.671 345.232 445.375 345.04 446.143 345.04C446.836 345.04 447.439 345.179 447.951 345.456C448.473 345.723 448.889 346.059 449.199 346.464V345.184H451.039V354H449.199V352.688C448.889 353.104 448.468 353.451 447.935 353.728C447.401 354.005 446.793 354.144 446.111 354.144C445.353 354.144 444.66 353.952 444.031 353.568C443.401 353.173 442.9 352.629 442.527 351.936C442.164 351.232 441.983 350.437 441.983 349.552ZM449.199 349.584C449.199 348.976 449.071 348.448 448.815 348C448.569 347.552 448.244 347.211 447.839 346.976C447.433 346.741 446.996 346.624 446.527 346.624C446.057 346.624 445.62 346.741 445.215 346.976C444.809 347.2 444.479 347.536 444.223 347.984C443.977 348.421 443.855 348.944 443.855 349.552C443.855 350.16 443.977 350.693 444.223 351.152C444.479 351.611 444.809 351.963 445.215 352.208C445.631 352.443 446.068 352.56 446.527 352.56C446.996 352.56 447.433 352.443 447.839 352.208C448.244 351.973 448.569 351.632 448.815 351.184C449.071 350.725 449.199 350.192 449.199 349.584ZM455.562 346.672V351.552C455.562 351.883 455.637 352.123 455.786 352.272C455.946 352.411 456.213 352.48 456.586 352.48H457.706V354H456.266C455.445 354 454.816 353.808 454.378 353.424C453.941 353.04 453.722 352.416 453.722 351.552V346.672H452.682V345.184H453.722V342.992H455.562V345.184H457.706V346.672H455.562ZM467.468 349.376C467.468 349.707 467.446 350.005 467.404 350.272H460.668C460.721 350.976 460.982 351.541 461.452 351.968C461.921 352.395 462.497 352.608 463.18 352.608C464.161 352.608 464.854 352.197 465.26 351.376H467.227C466.961 352.187 466.476 352.853 465.772 353.376C465.078 353.888 464.214 354.144 463.18 354.144C462.337 354.144 461.58 353.957 460.908 353.584C460.246 353.2 459.724 352.667 459.34 351.984C458.966 351.291 458.78 350.491 458.78 349.584C458.78 348.677 458.961 347.883 459.324 347.2C459.697 346.507 460.214 345.973 460.876 345.6C461.548 345.227 462.316 345.04 463.18 345.04C464.012 345.04 464.753 345.221 465.404 345.584C466.054 345.947 466.561 346.459 466.924 347.12C467.286 347.771 467.468 348.523 467.468 349.376ZM465.564 348.8C465.553 348.128 465.313 347.589 464.844 347.184C464.374 346.779 463.793 346.576 463.1 346.576C462.47 346.576 461.932 346.779 461.484 347.184C461.036 347.579 460.769 348.117 460.684 348.8H465.564Z" fill="white"/>
<path d="M489.592 348.416C489.592 347.328 489.843 346.352 490.344 345.488C490.856 344.624 491.544 343.952 492.408 343.472C493.283 342.981 494.237 342.736 495.272 342.736C496.456 342.736 497.507 343.029 498.424 343.616C499.352 344.192 500.024 345.013 500.44 346.08H498.248C497.96 345.493 497.56 345.056 497.048 344.768C496.536 344.48 495.944 344.336 495.272 344.336C494.536 344.336 493.88 344.501 493.304 344.832C492.728 345.163 492.275 345.637 491.944 346.256C491.624 346.875 491.464 347.595 491.464 348.416C491.464 349.237 491.624 349.957 491.944 350.576C492.275 351.195 492.728 351.675 493.304 352.016C493.88 352.347 494.536 352.512 495.272 352.512C495.944 352.512 496.536 352.368 497.048 352.08C497.56 351.792 497.96 351.355 498.248 350.768H500.44C500.024 351.835 499.352 352.656 498.424 353.232C497.507 353.808 496.456 354.096 495.272 354.096C494.227 354.096 493.272 353.856 492.408 353.376C491.544 352.885 490.856 352.208 490.344 351.344C489.843 350.48 489.592 349.504 489.592 348.416ZM501.967 349.552C501.967 348.667 502.148 347.883 502.511 347.2C502.884 346.517 503.386 345.989 504.015 345.616C504.655 345.232 505.359 345.04 506.127 345.04C506.82 345.04 507.423 345.179 507.935 345.456C508.458 345.723 508.874 346.059 509.183 346.464V345.184H511.023V354H509.183V352.688C508.874 353.104 508.452 353.451 507.919 353.728C507.386 354.005 506.778 354.144 506.095 354.144C505.338 354.144 504.644 353.952 504.015 353.568C503.386 353.173 502.884 352.629 502.511 351.936C502.148 351.232 501.967 350.437 501.967 349.552ZM509.183 349.584C509.183 348.976 509.055 348.448 508.799 348C508.554 347.552 508.228 347.211 507.823 346.976C507.418 346.741 506.98 346.624 506.511 346.624C506.042 346.624 505.604 346.741 505.199 346.976C504.794 347.2 504.463 347.536 504.207 347.984C503.962 348.421 503.839 348.944 503.839 349.552C503.839 350.16 503.962 350.693 504.207 351.152C504.463 351.611 504.794 351.963 505.199 352.208C505.615 352.443 506.052 352.56 506.511 352.56C506.98 352.56 507.418 352.443 507.823 352.208C508.228 351.973 508.554 351.632 508.799 351.184C509.055 350.725 509.183 350.192 509.183 349.584ZM517.867 345.04C518.56 345.04 519.179 345.184 519.723 345.472C520.277 345.76 520.709 346.187 521.019 346.752C521.328 347.317 521.483 348 521.483 348.8V354H519.675V349.072C519.675 348.283 519.477 347.68 519.083 347.264C518.688 346.837 518.149 346.624 517.467 346.624C516.784 346.624 516.24 346.837 515.835 347.264C515.44 347.68 515.243 348.283 515.243 349.072V354H513.419V345.184H515.243V346.192C515.541 345.829 515.92 345.547 516.379 345.344C516.848 345.141 517.344 345.04 517.867 345.04ZM523.201 349.584C523.201 348.677 523.383 347.883 523.745 347.2C524.119 346.507 524.631 345.973 525.281 345.6C525.932 345.227 526.679 345.04 527.521 345.04C528.588 345.04 529.468 345.296 530.161 345.808C530.865 346.309 531.34 347.029 531.585 347.968H529.617C529.457 347.531 529.201 347.189 528.849 346.944C528.497 346.699 528.055 346.576 527.521 346.576C526.775 346.576 526.177 346.843 525.729 347.376C525.292 347.899 525.073 348.635 525.073 349.584C525.073 350.533 525.292 351.275 525.729 351.808C526.177 352.341 526.775 352.608 527.521 352.608C528.577 352.608 529.276 352.144 529.617 351.216H531.585C531.329 352.112 530.849 352.827 530.145 353.36C529.441 353.883 528.567 354.144 527.521 354.144C526.679 354.144 525.932 353.957 525.281 353.584C524.631 353.2 524.119 352.667 523.745 351.984C523.383 351.291 523.201 350.491 523.201 349.584ZM541.483 349.376C541.483 349.707 541.462 350.005 541.419 350.272H534.683C534.736 350.976 534.998 351.541 535.467 351.968C535.936 352.395 536.512 352.608 537.195 352.608C538.176 352.608 538.87 352.197 539.275 351.376H541.243C540.976 352.187 540.491 352.853 539.787 353.376C539.094 353.888 538.23 354.144 537.195 354.144C536.352 354.144 535.595 353.957 534.923 353.584C534.262 353.2 533.739 352.667 533.355 351.984C532.982 351.291 532.795 350.491 532.795 349.584C532.795 348.677 532.976 347.883 533.339 347.2C533.712 346.507 534.23 345.973 534.891 345.6C535.563 345.227 536.331 345.04 537.195 345.04C538.027 345.04 538.768 345.221 539.419 345.584C540.07 345.947 540.576 346.459 540.939 347.12C541.302 347.771 541.483 348.523 541.483 349.376ZM539.579 348.8C539.568 348.128 539.328 347.589 538.859 347.184C538.39 346.779 537.808 346.576 537.115 346.576C536.486 346.576 535.947 346.779 535.499 347.184C535.051 347.579 534.784 348.117 534.699 348.8H539.579ZM545.102 342.16V354H543.278V342.16H545.102Z" fill="black"/>
</svg>
