<svg width="374" height="147" viewBox="0 0 374 147" fill="none" xmlns="http://www.w3.org/2000/svg">
<rect x="11.3953" y="10.2559" width="352.116" height="126.488" rx="10" fill="#1F1F1E"/>
<path d="M109.76 38.846L107.288 47.186H105.74L103.988 40.874L102.128 47.186L100.592 47.198L98.228 38.846H99.68L101.408 45.638L103.28 38.846H104.816L106.556 45.602L108.296 38.846H109.76ZM116.948 43.718C116.948 43.966 116.932 44.19 116.9 44.39H111.848C111.888 44.918 112.084 45.342 112.436 45.662C112.788 45.982 113.22 46.142 113.732 46.142C114.468 46.142 114.988 45.834 115.292 45.218H116.768C116.568 45.826 116.204 46.326 115.676 46.718C115.156 47.102 114.508 47.294 113.732 47.294C113.1 47.294 112.532 47.154 112.028 46.874C111.532 46.586 111.14 46.186 110.852 45.674C110.572 45.154 110.432 44.554 110.432 43.874C110.432 43.194 110.568 42.598 110.84 42.086C111.12 41.566 111.508 41.166 112.004 40.886C112.508 40.606 113.084 40.466 113.732 40.466C114.356 40.466 114.912 40.602 115.4 40.874C115.888 41.146 116.268 41.53 116.54 42.026C116.812 42.514 116.948 43.078 116.948 43.718ZM115.52 43.286C115.512 42.782 115.332 42.378 114.98 42.074C114.628 41.77 114.192 41.618 113.672 41.618C113.2 41.618 112.796 41.77 112.46 42.074C112.124 42.37 111.924 42.774 111.86 43.286H115.52ZM119.663 38.306V47.186H118.295V38.306H119.663ZM121.003 43.874C121.003 43.194 121.139 42.598 121.411 42.086C121.691 41.566 122.075 41.166 122.563 40.886C123.051 40.606 123.611 40.466 124.243 40.466C125.043 40.466 125.703 40.658 126.223 41.042C126.751 41.418 127.107 41.958 127.291 42.662H125.815C125.695 42.334 125.503 42.078 125.239 41.894C124.975 41.71 124.643 41.618 124.243 41.618C123.683 41.618 123.235 41.818 122.899 42.218C122.571 42.61 122.407 43.162 122.407 43.874C122.407 44.586 122.571 45.142 122.899 45.542C123.235 45.942 123.683 46.142 124.243 46.142C125.035 46.142 125.559 45.794 125.815 45.098H127.291C127.099 45.77 126.739 46.306 126.211 46.706C125.683 47.098 125.027 47.294 124.243 47.294C123.611 47.294 123.051 47.154 122.563 46.874C122.075 46.586 121.691 46.186 121.411 45.674C121.139 45.154 121.003 44.554 121.003 43.874ZM131.522 47.294C130.898 47.294 130.334 47.154 129.83 46.874C129.326 46.586 128.93 46.186 128.642 45.674C128.354 45.154 128.21 44.554 128.21 43.874C128.21 43.202 128.358 42.606 128.654 42.086C128.95 41.566 129.354 41.166 129.866 40.886C130.378 40.606 130.95 40.466 131.582 40.466C132.214 40.466 132.786 40.606 133.298 40.886C133.81 41.166 134.214 41.566 134.51 42.086C134.806 42.606 134.954 43.202 134.954 43.874C134.954 44.546 134.802 45.142 134.498 45.662C134.194 46.182 133.778 46.586 133.25 46.874C132.73 47.154 132.154 47.294 131.522 47.294ZM131.522 46.106C131.874 46.106 132.202 46.022 132.506 45.854C132.818 45.686 133.07 45.434 133.262 45.098C133.454 44.762 133.55 44.354 133.55 43.874C133.55 43.394 133.458 42.99 133.274 42.662C133.09 42.326 132.846 42.074 132.542 41.906C132.238 41.738 131.91 41.654 131.558 41.654C131.206 41.654 130.878 41.738 130.574 41.906C130.278 42.074 130.042 42.326 129.866 42.662C129.69 42.99 129.602 43.394 129.602 43.874C129.602 44.586 129.782 45.138 130.142 45.53C130.51 45.914 130.97 46.106 131.522 46.106ZM144.31 40.466C144.83 40.466 145.294 40.574 145.702 40.79C146.118 41.006 146.442 41.326 146.674 41.75C146.914 42.174 147.034 42.686 147.034 43.286V47.186H145.678V43.49C145.678 42.898 145.53 42.446 145.234 42.134C144.938 41.814 144.534 41.654 144.022 41.654C143.51 41.654 143.102 41.814 142.798 42.134C142.502 42.446 142.354 42.898 142.354 43.49V47.186H140.998V43.49C140.998 42.898 140.85 42.446 140.554 42.134C140.258 41.814 139.854 41.654 139.342 41.654C138.83 41.654 138.422 41.814 138.118 42.134C137.822 42.446 137.674 42.898 137.674 43.49V47.186H136.306V40.574H137.674V41.33C137.898 41.058 138.182 40.846 138.526 40.694C138.87 40.542 139.238 40.466 139.63 40.466C140.158 40.466 140.63 40.578 141.046 40.802C141.462 41.026 141.782 41.35 142.006 41.774C142.206 41.374 142.518 41.058 142.942 40.826C143.366 40.586 143.822 40.466 144.31 40.466ZM154.835 43.718C154.835 43.966 154.819 44.19 154.787 44.39H149.735C149.775 44.918 149.971 45.342 150.323 45.662C150.675 45.982 151.107 46.142 151.619 46.142C152.355 46.142 152.875 45.834 153.179 45.218H154.655C154.455 45.826 154.091 46.326 153.563 46.718C153.043 47.102 152.395 47.294 151.619 47.294C150.987 47.294 150.419 47.154 149.915 46.874C149.419 46.586 149.027 46.186 148.739 45.674C148.459 45.154 148.319 44.554 148.319 43.874C148.319 43.194 148.455 42.598 148.727 42.086C149.007 41.566 149.395 41.166 149.891 40.886C150.395 40.606 150.971 40.466 151.619 40.466C152.243 40.466 152.799 40.602 153.287 40.874C153.775 41.146 154.155 41.53 154.427 42.026C154.699 42.514 154.835 43.078 154.835 43.718ZM153.407 43.286C153.399 42.782 153.219 42.378 152.867 42.074C152.515 41.77 152.079 41.618 151.559 41.618C151.087 41.618 150.683 41.77 150.347 42.074C150.011 42.37 149.811 42.774 149.747 43.286H153.407ZM160.894 41.69V45.35C160.894 45.598 160.95 45.778 161.062 45.89C161.182 45.994 161.382 46.046 161.662 46.046H162.502V47.186H161.422C160.806 47.186 160.334 47.042 160.006 46.754C159.678 46.466 159.514 45.998 159.514 45.35V41.69H158.734V40.574H159.514V38.93H160.894V40.574H162.502V41.69H160.894ZM166.631 47.294C166.007 47.294 165.443 47.154 164.939 46.874C164.435 46.586 164.039 46.186 163.751 45.674C163.463 45.154 163.319 44.554 163.319 43.874C163.319 43.202 163.467 42.606 163.763 42.086C164.059 41.566 164.463 41.166 164.975 40.886C165.487 40.606 166.059 40.466 166.691 40.466C167.323 40.466 167.895 40.606 168.407 40.886C168.919 41.166 169.323 41.566 169.619 42.086C169.915 42.606 170.063 43.202 170.063 43.874C170.063 44.546 169.911 45.142 169.607 45.662C169.303 46.182 168.887 46.586 168.359 46.874C167.839 47.154 167.263 47.294 166.631 47.294ZM166.631 46.106C166.983 46.106 167.311 46.022 167.615 45.854C167.927 45.686 168.179 45.434 168.371 45.098C168.563 44.762 168.659 44.354 168.659 43.874C168.659 43.394 168.567 42.99 168.383 42.662C168.199 42.326 167.955 42.074 167.651 41.906C167.347 41.738 167.019 41.654 166.667 41.654C166.315 41.654 165.987 41.738 165.683 41.906C165.387 42.074 165.151 42.326 164.975 42.662C164.799 42.99 164.711 43.394 164.711 43.874C164.711 44.586 164.891 45.138 165.251 45.53C165.619 45.914 166.079 46.106 166.631 46.106Z" fill="white"/>
<path d="M179.921 38.846V39.962H177.701V47.186H176.333V39.962H174.101V38.846H179.921ZM182.674 41.534C182.874 41.198 183.138 40.938 183.466 40.754C183.802 40.562 184.198 40.466 184.654 40.466V41.882H184.306C183.77 41.882 183.362 42.018 183.082 42.29C182.81 42.562 182.674 43.034 182.674 43.706V47.186H181.306V40.574H182.674V41.534ZM186.608 39.698C186.36 39.698 186.152 39.614 185.984 39.446C185.816 39.278 185.732 39.07 185.732 38.822C185.732 38.574 185.816 38.366 185.984 38.198C186.152 38.03 186.36 37.946 186.608 37.946C186.848 37.946 187.052 38.03 187.22 38.198C187.388 38.366 187.472 38.574 187.472 38.822C187.472 39.07 187.388 39.278 187.22 39.446C187.052 39.614 186.848 39.698 186.608 39.698ZM187.28 40.574V47.186H185.912V40.574H187.28ZM188.62 43.85C188.62 43.186 188.756 42.598 189.028 42.086C189.308 41.574 189.684 41.178 190.156 40.898C190.636 40.61 191.164 40.466 191.74 40.466C192.26 40.466 192.712 40.57 193.096 40.778C193.488 40.978 193.8 41.23 194.032 41.534V40.574H195.412V47.186H194.032V46.202C193.8 46.514 193.484 46.774 193.084 46.982C192.684 47.19 192.228 47.294 191.716 47.294C191.148 47.294 190.628 47.15 190.156 46.862C189.684 46.566 189.308 46.158 189.028 45.638C188.756 45.11 188.62 44.514 188.62 43.85ZM194.032 43.874C194.032 43.418 193.936 43.022 193.744 42.686C193.56 42.35 193.316 42.094 193.012 41.918C192.708 41.742 192.38 41.654 192.028 41.654C191.676 41.654 191.348 41.742 191.044 41.918C190.74 42.086 190.492 42.338 190.3 42.674C190.116 43.002 190.024 43.394 190.024 43.85C190.024 44.306 190.116 44.706 190.3 45.05C190.492 45.394 190.74 45.658 191.044 45.842C191.356 46.018 191.684 46.106 192.028 46.106C192.38 46.106 192.708 46.018 193.012 45.842C193.316 45.666 193.56 45.41 193.744 45.074C193.936 44.73 194.032 44.33 194.032 43.874ZM198.577 38.306V47.186H197.209V38.306H198.577ZM202.773 47.294C202.253 47.294 201.785 47.202 201.369 47.018C200.961 46.826 200.637 46.57 200.397 46.25C200.157 45.922 200.029 45.558 200.013 45.158H201.429C201.453 45.438 201.585 45.674 201.825 45.866C202.073 46.05 202.381 46.142 202.749 46.142C203.133 46.142 203.429 46.07 203.637 45.926C203.853 45.774 203.961 45.582 203.961 45.35C203.961 45.102 203.841 44.918 203.601 44.798C203.369 44.678 202.997 44.546 202.485 44.402C201.989 44.266 201.585 44.134 201.273 44.006C200.961 43.878 200.689 43.682 200.457 43.418C200.233 43.154 200.121 42.806 200.121 42.374C200.121 42.022 200.225 41.702 200.433 41.414C200.641 41.118 200.937 40.886 201.321 40.718C201.713 40.55 202.161 40.466 202.665 40.466C203.417 40.466 204.021 40.658 204.477 41.042C204.941 41.418 205.189 41.934 205.221 42.59H203.853C203.829 42.294 203.709 42.058 203.493 41.882C203.277 41.706 202.985 41.618 202.617 41.618C202.257 41.618 201.981 41.686 201.789 41.822C201.597 41.958 201.501 42.138 201.501 42.362C201.501 42.538 201.565 42.686 201.693 42.806C201.821 42.926 201.977 43.022 202.161 43.094C202.345 43.158 202.617 43.242 202.977 43.346C203.457 43.474 203.849 43.606 204.153 43.742C204.465 43.87 204.733 44.062 204.957 44.318C205.181 44.574 205.297 44.914 205.305 45.338C205.305 45.714 205.201 46.05 204.993 46.346C204.785 46.642 204.489 46.874 204.105 47.042C203.729 47.21 203.285 47.294 202.773 47.294ZM215.288 38.846V39.962H213.068V47.186H211.7V39.962H209.468V38.846H215.288ZM218.041 41.534C218.241 41.198 218.505 40.938 218.833 40.754C219.169 40.562 219.565 40.466 220.021 40.466V41.882H219.673C219.137 41.882 218.729 42.018 218.449 42.29C218.177 42.562 218.041 43.034 218.041 43.706V47.186H216.673V40.574H218.041V41.534ZM220.823 43.85C220.823 43.186 220.959 42.598 221.231 42.086C221.511 41.574 221.887 41.178 222.359 40.898C222.839 40.61 223.367 40.466 223.943 40.466C224.463 40.466 224.915 40.57 225.299 40.778C225.691 40.978 226.003 41.23 226.235 41.534V40.574H227.615V47.186H226.235V46.202C226.003 46.514 225.687 46.774 225.287 46.982C224.887 47.19 224.431 47.294 223.919 47.294C223.351 47.294 222.831 47.15 222.359 46.862C221.887 46.566 221.511 46.158 221.231 45.638C220.959 45.11 220.823 44.514 220.823 43.85ZM226.235 43.874C226.235 43.418 226.139 43.022 225.947 42.686C225.763 42.35 225.519 42.094 225.215 41.918C224.911 41.742 224.583 41.654 224.231 41.654C223.879 41.654 223.551 41.742 223.247 41.918C222.943 42.086 222.695 42.338 222.503 42.674C222.319 43.002 222.227 43.394 222.227 43.85C222.227 44.306 222.319 44.706 222.503 45.05C222.695 45.394 222.943 45.658 223.247 45.842C223.559 46.018 223.887 46.106 224.231 46.106C224.583 46.106 224.911 46.018 225.215 45.842C225.519 45.666 225.763 45.41 225.947 45.074C226.139 44.73 226.235 44.33 226.235 43.874ZM228.956 43.874C228.956 43.194 229.092 42.598 229.364 42.086C229.644 41.566 230.028 41.166 230.516 40.886C231.004 40.606 231.564 40.466 232.196 40.466C232.996 40.466 233.656 40.658 234.176 41.042C234.704 41.418 235.06 41.958 235.244 42.662H233.768C233.648 42.334 233.456 42.078 233.192 41.894C232.928 41.71 232.596 41.618 232.196 41.618C231.636 41.618 231.188 41.818 230.852 42.218C230.524 42.61 230.36 43.162 230.36 43.874C230.36 44.586 230.524 45.142 230.852 45.542C231.188 45.942 231.636 46.142 232.196 46.142C232.988 46.142 233.512 45.794 233.768 45.098H235.244C235.052 45.77 234.692 46.306 234.164 46.706C233.636 47.098 232.98 47.294 232.196 47.294C231.564 47.294 231.004 47.154 230.516 46.874C230.028 46.586 229.644 46.186 229.364 45.674C229.092 45.154 228.956 44.554 228.956 43.874ZM239.223 43.886L242.271 47.186H240.423L237.975 44.342V47.186H236.607V38.306H237.975V43.466L240.375 40.574H242.271L239.223 43.886ZM249.312 43.718C249.312 43.966 249.296 44.19 249.264 44.39H244.212C244.252 44.918 244.448 45.342 244.8 45.662C245.152 45.982 245.584 46.142 246.096 46.142C246.832 46.142 247.352 45.834 247.656 45.218H249.132C248.932 45.826 248.568 46.326 248.04 46.718C247.52 47.102 246.872 47.294 246.096 47.294C245.464 47.294 244.896 47.154 244.392 46.874C243.896 46.586 243.504 46.186 243.216 45.674C242.936 45.154 242.796 44.554 242.796 43.874C242.796 43.194 242.932 42.598 243.204 42.086C243.484 41.566 243.872 41.166 244.368 40.886C244.872 40.606 245.448 40.466 246.096 40.466C246.72 40.466 247.276 40.602 247.764 40.874C248.252 41.146 248.632 41.53 248.904 42.026C249.176 42.514 249.312 43.078 249.312 43.718ZM247.884 43.286C247.876 42.782 247.696 42.378 247.344 42.074C246.992 41.77 246.556 41.618 246.036 41.618C245.564 41.618 245.16 41.77 244.824 42.074C244.488 42.37 244.288 42.774 244.224 43.286H247.884ZM252.026 41.534C252.226 41.198 252.49 40.938 252.818 40.754C253.154 40.562 253.55 40.466 254.006 40.466V41.882H253.658C253.122 41.882 252.714 42.018 252.434 42.29C252.162 42.562 252.026 43.034 252.026 43.706V47.186H250.658V40.574H252.026V41.534Z" fill="#E5BF03"/>
<path d="M84.051 64.3649V64.9229H82.941V68.5349H82.257V64.9229H81.141V64.3649H84.051ZM86.1777 68.5889C85.8657 68.5889 85.5837 68.5189 85.3317 68.3789C85.0797 68.2349 84.8817 68.0349 84.7377 67.7789C84.5937 67.5189 84.5217 67.2189 84.5217 66.8789C84.5217 66.5429 84.5957 66.2449 84.7437 65.9849C84.8917 65.7249 85.0937 65.5249 85.3497 65.3849C85.6057 65.2449 85.8917 65.1749 86.2077 65.1749C86.5237 65.1749 86.8097 65.2449 87.0657 65.3849C87.3217 65.5249 87.5237 65.7249 87.6717 65.9849C87.8197 66.2449 87.8937 66.5429 87.8937 66.8789C87.8937 67.2149 87.8177 67.5129 87.6657 67.7729C87.5137 68.0329 87.3057 68.2349 87.0417 68.3789C86.7817 68.5189 86.4937 68.5889 86.1777 68.5889ZM86.1777 67.9949C86.3537 67.9949 86.5177 67.9529 86.6697 67.8689C86.8257 67.7849 86.9517 67.6589 87.0477 67.4909C87.1437 67.3229 87.1917 67.1189 87.1917 66.8789C87.1917 66.6389 87.1457 66.4369 87.0537 66.2729C86.9617 66.1049 86.8397 65.9789 86.6877 65.8949C86.5357 65.8109 86.3717 65.7689 86.1957 65.7689C86.0197 65.7689 85.8557 65.8109 85.7037 65.8949C85.5557 65.9789 85.4377 66.1049 85.3497 66.2729C85.2617 66.4369 85.2177 66.6389 85.2177 66.8789C85.2177 67.2349 85.3077 67.5109 85.4877 67.7069C85.6717 67.8989 85.9017 67.9949 86.1777 67.9949ZM91.4605 65.1749C91.7165 65.1749 91.9425 65.2269 92.1385 65.3309C92.3385 65.4309 92.4945 65.5569 92.6065 65.7089V65.2289H93.2965V68.5889C93.2965 68.8929 93.2325 69.1629 93.1045 69.3989C92.9765 69.6389 92.7905 69.8269 92.5465 69.9629C92.3065 70.0989 92.0185 70.1669 91.6825 70.1669C91.2345 70.1669 90.8625 70.0609 90.5665 69.8489C90.2705 69.6409 90.1025 69.3569 90.0625 68.9969H90.7405C90.7925 69.1689 90.9025 69.3069 91.0705 69.4109C91.2425 69.5189 91.4465 69.5729 91.6825 69.5729C91.9585 69.5729 92.1805 69.4889 92.3485 69.3209C92.5205 69.1529 92.6065 68.9089 92.6065 68.5889V68.0369C92.4905 68.1929 92.3325 68.3249 92.1325 68.4329C91.9365 68.5369 91.7125 68.5889 91.4605 68.5889C91.1725 68.5889 90.9085 68.5169 90.6685 68.3729C90.4325 68.2249 90.2445 68.0209 90.1045 67.7609C89.9685 67.4969 89.9005 67.1989 89.9005 66.8669C89.9005 66.5349 89.9685 66.2409 90.1045 65.9849C90.2445 65.7289 90.4325 65.5309 90.6685 65.3909C90.9085 65.2469 91.1725 65.1749 91.4605 65.1749ZM92.6065 66.8789C92.6065 66.6509 92.5585 66.4529 92.4625 66.2849C92.3705 66.1169 92.2485 65.9889 92.0965 65.9009C91.9445 65.8129 91.7805 65.7689 91.6045 65.7689C91.4285 65.7689 91.2645 65.8129 91.1125 65.9009C90.9605 65.9849 90.8365 66.1109 90.7405 66.2789C90.6485 66.4429 90.6025 66.6389 90.6025 66.8669C90.6025 67.0949 90.6485 67.2949 90.7405 67.4669C90.8365 67.6389 90.9605 67.7709 91.1125 67.8629C91.2685 67.9509 91.4325 67.9949 91.6045 67.9949C91.7805 67.9949 91.9445 67.9509 92.0965 67.8629C92.2485 67.7749 92.3705 67.6469 92.4625 67.4789C92.5585 67.3069 92.6065 67.1069 92.6065 66.8789ZM97.2249 66.8009C97.2249 66.9249 97.2169 67.0369 97.2009 67.1369H94.6749C94.6949 67.4009 94.7929 67.6129 94.9689 67.7729C95.1449 67.9329 95.3609 68.0129 95.6169 68.0129C95.9849 68.0129 96.2449 67.8589 96.3969 67.5509H97.1349C97.0349 67.8549 96.8529 68.1049 96.5889 68.3009C96.3289 68.4929 96.0049 68.5889 95.6169 68.5889C95.3009 68.5889 95.0169 68.5189 94.7649 68.3789C94.5169 68.2349 94.3209 68.0349 94.1769 67.7789C94.0369 67.5189 93.9669 67.2189 93.9669 66.8789C93.9669 66.5389 94.0349 66.2409 94.1709 65.9849C94.3109 65.7249 94.5049 65.5249 94.7529 65.3849C95.0049 65.2449 95.2929 65.1749 95.6169 65.1749C95.9289 65.1749 96.2069 65.2429 96.4509 65.3789C96.6949 65.5149 96.8849 65.7069 97.0209 65.9549C97.1569 66.1989 97.2249 66.4809 97.2249 66.8009ZM96.5109 66.5849C96.5069 66.3329 96.4169 66.1309 96.2409 65.9789C96.0649 65.8269 95.8469 65.7509 95.5869 65.7509C95.3509 65.7509 95.1489 65.8269 94.9809 65.9789C94.8129 66.1269 94.7129 66.3289 94.6809 66.5849H96.5109ZM98.696 65.7869V67.6169C98.696 67.7409 98.724 67.8309 98.78 67.8869C98.84 67.9389 98.94 67.9649 99.08 67.9649H99.5V68.5349H98.96C98.652 68.5349 98.416 68.4629 98.252 68.3189C98.088 68.1749 98.006 67.9409 98.006 67.6169V65.7869H97.616V65.2289H98.006V64.4069H98.696V65.2289H99.5V65.7869H98.696ZM102.889 68.5889C102.629 68.5889 102.395 68.5429 102.187 68.4509C101.983 68.3549 101.821 68.2269 101.701 68.0669C101.581 67.9029 101.517 67.7209 101.509 67.5209H102.217C102.229 67.6609 102.295 67.7789 102.415 67.8749C102.539 67.9669 102.693 68.0129 102.877 68.0129C103.069 68.0129 103.217 67.9769 103.321 67.9049C103.429 67.8289 103.483 67.7329 103.483 67.6169C103.483 67.4929 103.423 67.4009 103.303 67.3409C103.187 67.2809 103.001 67.2149 102.745 67.1429C102.497 67.0749 102.295 67.0089 102.139 66.9449C101.983 66.8809 101.847 66.7829 101.731 66.6509C101.619 66.5189 101.563 66.3449 101.563 66.1289C101.563 65.9529 101.615 65.7929 101.719 65.6489C101.823 65.5009 101.971 65.3849 102.163 65.3009C102.359 65.2169 102.583 65.1749 102.835 65.1749C103.211 65.1749 103.513 65.2709 103.741 65.4629C103.973 65.6509 104.097 65.9089 104.113 66.2369H103.429C103.417 66.0889 103.357 65.9709 103.249 65.8829C103.141 65.7949 102.995 65.7509 102.811 65.7509C102.631 65.7509 102.493 65.7849 102.397 65.8529C102.301 65.9209 102.253 66.0109 102.253 66.1229C102.253 66.2109 102.285 66.2849 102.349 66.3449C102.413 66.4049 102.491 66.4529 102.583 66.4889C102.675 66.5209 102.811 66.5629 102.991 66.6149C103.231 66.6789 103.427 66.7449 103.579 66.8129C103.735 66.8769 103.869 66.9729 103.981 67.1009C104.093 67.2289 104.151 67.3989 104.155 67.6109C104.155 67.7989 104.103 67.9669 103.999 68.1149C103.895 68.2629 103.747 68.3789 103.555 68.4629C103.367 68.5469 103.145 68.5889 102.889 68.5889ZM105.692 65.7869V67.6169C105.692 67.7409 105.72 67.8309 105.776 67.8869C105.836 67.9389 105.936 67.9649 106.076 67.9649H106.496V68.5349H105.956C105.648 68.5349 105.412 68.4629 105.248 68.3189C105.084 68.1749 105.002 67.9409 105.002 67.6169V65.7869H104.612V65.2289H105.002V64.4069H105.692V65.2289H106.496V65.7869H105.692ZM106.899 66.8669C106.899 66.5349 106.967 66.2409 107.103 65.9849C107.243 65.7289 107.431 65.5309 107.667 65.3909C107.907 65.2469 108.171 65.1749 108.459 65.1749C108.719 65.1749 108.945 65.2269 109.137 65.3309C109.333 65.4309 109.489 65.5569 109.605 65.7089V65.2289H110.295V68.5349H109.605V68.0429C109.489 68.1989 109.331 68.3289 109.131 68.4329C108.931 68.5369 108.703 68.5889 108.447 68.5889C108.163 68.5889 107.903 68.5169 107.667 68.3729C107.431 68.2249 107.243 68.0209 107.103 67.7609C106.967 67.4969 106.899 67.1989 106.899 66.8669ZM109.605 66.8789C109.605 66.6509 109.557 66.4529 109.461 66.2849C109.369 66.1169 109.247 65.9889 109.095 65.9009C108.943 65.8129 108.779 65.7689 108.603 65.7689C108.427 65.7689 108.263 65.8129 108.111 65.9009C107.959 65.9849 107.835 66.1109 107.739 66.2789C107.647 66.4429 107.601 66.6389 107.601 66.8669C107.601 67.0949 107.647 67.2949 107.739 67.4669C107.835 67.6389 107.959 67.7709 108.111 67.8629C108.267 67.9509 108.431 67.9949 108.603 67.9949C108.779 67.9949 108.943 67.9509 109.095 67.8629C109.247 67.7749 109.369 67.6469 109.461 67.4789C109.557 67.3069 109.605 67.1069 109.605 66.8789ZM111.877 65.7089C111.977 65.5409 112.109 65.4109 112.273 65.3189C112.441 65.2229 112.639 65.1749 112.867 65.1749V65.8829H112.693C112.425 65.8829 112.221 65.9509 112.081 66.0869C111.945 66.2229 111.877 66.4589 111.877 66.7949V68.5349H111.193V65.2289H111.877V65.7089ZM114.294 65.7869V67.6169C114.294 67.7409 114.322 67.8309 114.378 67.8869C114.438 67.9389 114.538 67.9649 114.678 67.9649H115.098V68.5349H114.558C114.25 68.5349 114.014 68.4629 113.85 68.3189C113.686 68.1749 113.604 67.9409 113.604 67.6169V65.7869H113.214V65.2289H113.604V64.4069H114.294V65.2289H115.098V65.7869H114.294ZM118.758 66.8009C118.758 66.9249 118.75 67.0369 118.734 67.1369H116.208C116.228 67.4009 116.326 67.6129 116.502 67.7729C116.678 67.9329 116.894 68.0129 117.15 68.0129C117.518 68.0129 117.778 67.8589 117.93 67.5509H118.668C118.568 67.8549 118.386 68.1049 118.122 68.3009C117.862 68.4929 117.538 68.5889 117.15 68.5889C116.834 68.5889 116.55 68.5189 116.298 68.3789C116.05 68.2349 115.854 68.0349 115.71 67.7789C115.57 67.5189 115.5 67.2189 115.5 66.8789C115.5 66.5389 115.568 66.2409 115.704 65.9849C115.844 65.7249 116.038 65.5249 116.286 65.3849C116.538 65.2449 116.826 65.1749 117.15 65.1749C117.462 65.1749 117.74 65.2429 117.984 65.3789C118.228 65.5149 118.418 65.7069 118.554 65.9549C118.69 66.1989 118.758 66.4809 118.758 66.8009ZM118.044 66.5849C118.04 66.3329 117.95 66.1309 117.774 65.9789C117.598 65.8269 117.38 65.7509 117.12 65.7509C116.884 65.7509 116.682 65.8269 116.514 65.9789C116.346 66.1269 116.246 66.3289 116.214 66.5849H118.044ZM119.203 66.8669C119.203 66.5349 119.271 66.2409 119.407 65.9849C119.547 65.7289 119.735 65.5309 119.971 65.3909C120.211 65.2469 120.477 65.1749 120.769 65.1749C120.985 65.1749 121.197 65.2229 121.405 65.3189C121.617 65.4109 121.785 65.5349 121.909 65.6909V64.0949H122.599V68.5349H121.909V68.0369C121.797 68.1969 121.641 68.3289 121.441 68.4329C121.245 68.5369 121.019 68.5889 120.763 68.5889C120.475 68.5889 120.211 68.5169 119.971 68.3729C119.735 68.2249 119.547 68.0209 119.407 67.7609C119.271 67.4969 119.203 67.1989 119.203 66.8669ZM121.909 66.8789C121.909 66.6509 121.861 66.4529 121.765 66.2849C121.673 66.1169 121.551 65.9889 121.399 65.9009C121.247 65.8129 121.083 65.7689 120.907 65.7689C120.731 65.7689 120.567 65.8129 120.415 65.9009C120.263 65.9849 120.139 66.1109 120.043 66.2789C119.951 66.4429 119.905 66.6389 119.905 66.8669C119.905 67.0949 119.951 67.2949 120.043 67.4669C120.139 67.6389 120.263 67.7709 120.415 67.8629C120.571 67.9509 120.735 67.9949 120.907 67.9949C121.083 67.9949 121.247 67.9509 121.399 67.8629C121.551 67.7749 121.673 67.6469 121.765 67.4789C121.861 67.3069 121.909 67.1069 121.909 66.8789ZM124.248 67.7129L123.522 69.3689H123.078L123.504 67.7129H124.248ZM127.088 65.7149C127.204 65.5629 127.362 65.4349 127.562 65.3309C127.762 65.2269 127.988 65.1749 128.24 65.1749C128.528 65.1749 128.79 65.2469 129.026 65.3909C129.266 65.5309 129.454 65.7289 129.59 65.9849C129.726 66.2409 129.794 66.5349 129.794 66.8669C129.794 67.1989 129.726 67.4969 129.59 67.7609C129.454 68.0209 129.266 68.2249 129.026 68.3729C128.79 68.5169 128.528 68.5889 128.24 68.5889C127.988 68.5889 127.764 68.5389 127.568 68.4389C127.372 68.3349 127.212 68.2069 127.088 68.0549V70.1069H126.404V65.2289H127.088V65.7149ZM129.098 66.8669C129.098 66.6389 129.05 66.4429 128.954 66.2789C128.862 66.1109 128.738 65.9849 128.582 65.9009C128.43 65.8129 128.266 65.7689 128.09 65.7689C127.918 65.7689 127.754 65.8129 127.598 65.9009C127.446 65.9889 127.322 66.1169 127.226 66.2849C127.134 66.4529 127.088 66.6509 127.088 66.8789C127.088 67.1069 127.134 67.3069 127.226 67.4789C127.322 67.6469 127.446 67.7749 127.598 67.8629C127.754 67.9509 127.918 67.9949 128.09 67.9949C128.266 67.9949 128.43 67.9509 128.582 67.8629C128.738 67.7709 128.862 67.6389 128.954 67.4669C129.05 67.2949 129.098 67.0949 129.098 66.8669ZM131.154 64.0949V68.5349H130.47V64.0949H131.154ZM135.082 66.8009C135.082 66.9249 135.074 67.0369 135.058 67.1369H132.532C132.552 67.4009 132.65 67.6129 132.826 67.7729C133.002 67.9329 133.218 68.0129 133.474 68.0129C133.842 68.0129 134.102 67.8589 134.254 67.5509H134.992C134.892 67.8549 134.71 68.1049 134.446 68.3009C134.186 68.4929 133.862 68.5889 133.474 68.5889C133.158 68.5889 132.874 68.5189 132.622 68.3789C132.374 68.2349 132.178 68.0349 132.034 67.7789C131.894 67.5189 131.824 67.2189 131.824 66.8789C131.824 66.5389 131.892 66.2409 132.028 65.9849C132.168 65.7249 132.362 65.5249 132.61 65.3849C132.862 65.2449 133.15 65.1749 133.474 65.1749C133.786 65.1749 134.064 65.2429 134.308 65.3789C134.552 65.5149 134.742 65.7069 134.878 65.9549C135.014 66.1989 135.082 66.4809 135.082 66.8009ZM134.368 66.5849C134.364 66.3329 134.274 66.1309 134.098 65.9789C133.922 65.8269 133.704 65.7509 133.444 65.7509C133.208 65.7509 133.006 65.8269 132.838 65.9789C132.67 66.1269 132.57 66.3289 132.538 66.5849H134.368ZM135.527 66.8669C135.527 66.5349 135.595 66.2409 135.731 65.9849C135.871 65.7289 136.059 65.5309 136.295 65.3909C136.535 65.2469 136.799 65.1749 137.087 65.1749C137.347 65.1749 137.573 65.2269 137.765 65.3309C137.961 65.4309 138.117 65.5569 138.233 65.7089V65.2289H138.923V68.5349H138.233V68.0429C138.117 68.1989 137.959 68.3289 137.759 68.4329C137.559 68.5369 137.331 68.5889 137.075 68.5889C136.791 68.5889 136.531 68.5169 136.295 68.3729C136.059 68.2249 135.871 68.0209 135.731 67.7609C135.595 67.4969 135.527 67.1989 135.527 66.8669ZM138.233 66.8789C138.233 66.6509 138.185 66.4529 138.089 66.2849C137.997 66.1169 137.875 65.9889 137.723 65.9009C137.571 65.8129 137.407 65.7689 137.231 65.7689C137.055 65.7689 136.891 65.8129 136.739 65.9009C136.587 65.9849 136.463 66.1109 136.367 66.2789C136.275 66.4429 136.229 66.6389 136.229 66.8669C136.229 67.0949 136.275 67.2949 136.367 67.4669C136.463 67.6389 136.587 67.7709 136.739 67.8629C136.895 67.9509 137.059 67.9949 137.231 67.9949C137.407 67.9949 137.571 67.9509 137.723 67.8629C137.875 67.7749 137.997 67.6469 138.089 67.4789C138.185 67.3069 138.233 67.1069 138.233 66.8789ZM141.022 68.5889C140.762 68.5889 140.528 68.5429 140.32 68.4509C140.116 68.3549 139.954 68.2269 139.834 68.0669C139.714 67.9029 139.65 67.7209 139.642 67.5209H140.35C140.362 67.6609 140.428 67.7789 140.548 67.8749C140.672 67.9669 140.826 68.0129 141.01 68.0129C141.202 68.0129 141.35 67.9769 141.454 67.9049C141.562 67.8289 141.616 67.7329 141.616 67.6169C141.616 67.4929 141.556 67.4009 141.436 67.3409C141.32 67.2809 141.134 67.2149 140.878 67.1429C140.63 67.0749 140.428 67.0089 140.272 66.9449C140.116 66.8809 139.98 66.7829 139.864 66.6509C139.752 66.5189 139.696 66.3449 139.696 66.1289C139.696 65.9529 139.748 65.7929 139.852 65.6489C139.956 65.5009 140.104 65.3849 140.296 65.3009C140.492 65.2169 140.716 65.1749 140.968 65.1749C141.344 65.1749 141.646 65.2709 141.874 65.4629C142.106 65.6509 142.23 65.9089 142.246 66.2369H141.562C141.55 66.0889 141.49 65.9709 141.382 65.8829C141.274 65.7949 141.128 65.7509 140.944 65.7509C140.764 65.7509 140.626 65.7849 140.53 65.8529C140.434 65.9209 140.386 66.0109 140.386 66.1229C140.386 66.2109 140.418 66.2849 140.482 66.3449C140.546 66.4049 140.624 66.4529 140.716 66.4889C140.808 66.5209 140.944 66.5629 141.124 66.6149C141.364 66.6789 141.56 66.7449 141.712 66.8129C141.868 66.8769 142.002 66.9729 142.114 67.1009C142.226 67.2289 142.284 67.3989 142.288 67.6109C142.288 67.7989 142.236 67.9669 142.132 68.1149C142.028 68.2629 141.88 68.3789 141.688 68.4629C141.5 68.5469 141.278 68.5889 141.022 68.5889ZM146.057 66.8009C146.057 66.9249 146.049 67.0369 146.033 67.1369H143.507C143.527 67.4009 143.625 67.6129 143.801 67.7729C143.977 67.9329 144.193 68.0129 144.449 68.0129C144.817 68.0129 145.077 67.8589 145.229 67.5509H145.967C145.867 67.8549 145.685 68.1049 145.421 68.3009C145.161 68.4929 144.837 68.5889 144.449 68.5889C144.133 68.5889 143.849 68.5189 143.597 68.3789C143.349 68.2349 143.153 68.0349 143.009 67.7789C142.869 67.5189 142.799 67.2189 142.799 66.8789C142.799 66.5389 142.867 66.2409 143.003 65.9849C143.143 65.7249 143.337 65.5249 143.585 65.3849C143.837 65.2449 144.125 65.1749 144.449 65.1749C144.761 65.1749 145.039 65.2429 145.283 65.3789C145.527 65.5149 145.717 65.7069 145.853 65.9549C145.989 66.1989 146.057 66.4809 146.057 66.8009ZM145.343 66.5849C145.339 66.3329 145.249 66.1309 145.073 65.9789C144.897 65.8269 144.679 65.7509 144.419 65.7509C144.183 65.7509 143.981 65.8269 143.813 65.9789C143.645 66.1269 143.545 66.3289 143.513 66.5849H145.343ZM151.319 66.8009C151.319 66.9249 151.311 67.0369 151.295 67.1369H148.769C148.789 67.4009 148.887 67.6129 149.063 67.7729C149.239 67.9329 149.455 68.0129 149.711 68.0129C150.079 68.0129 150.339 67.8589 150.491 67.5509H151.229C151.129 67.8549 150.947 68.1049 150.683 68.3009C150.423 68.4929 150.099 68.5889 149.711 68.5889C149.395 68.5889 149.111 68.5189 148.859 68.3789C148.611 68.2349 148.415 68.0349 148.271 67.7789C148.131 67.5189 148.061 67.2189 148.061 66.8789C148.061 66.5389 148.129 66.2409 148.265 65.9849C148.405 65.7249 148.599 65.5249 148.847 65.3849C149.099 65.2449 149.387 65.1749 149.711 65.1749C150.023 65.1749 150.301 65.2429 150.545 65.3789C150.789 65.5149 150.979 65.7069 151.115 65.9549C151.251 66.1989 151.319 66.4809 151.319 66.8009ZM150.605 66.5849C150.601 66.3329 150.511 66.1309 150.335 65.9789C150.159 65.8269 149.941 65.7509 149.681 65.7509C149.445 65.7509 149.243 65.8269 149.075 65.9789C148.907 66.1269 148.807 66.3289 148.775 66.5849H150.605ZM153.66 65.1749C153.92 65.1749 154.152 65.2289 154.356 65.3369C154.564 65.4449 154.726 65.6049 154.842 65.8169C154.958 66.0289 155.016 66.2849 155.016 66.5849V68.5349H154.338V66.6869C154.338 66.3909 154.264 66.1649 154.116 66.0089C153.968 65.8489 153.766 65.7689 153.51 65.7689C153.254 65.7689 153.05 65.8489 152.898 66.0089C152.75 66.1649 152.676 66.3909 152.676 66.6869V68.5349H151.992V65.2289H152.676V65.6069C152.788 65.4709 152.93 65.3649 153.102 65.2889C153.278 65.2129 153.464 65.1749 153.66 65.1749ZM156.686 65.7869V67.6169C156.686 67.7409 156.714 67.8309 156.77 67.8869C156.83 67.9389 156.93 67.9649 157.07 67.9649H157.49V68.5349H156.95C156.642 68.5349 156.406 68.4629 156.242 68.3189C156.078 68.1749 155.996 67.9409 155.996 67.6169V65.7869H155.606V65.2289H155.996V64.4069H156.686V65.2289H157.49V65.7869H156.686ZM161.151 66.8009C161.151 66.9249 161.143 67.0369 161.127 67.1369H158.601C158.621 67.4009 158.719 67.6129 158.895 67.7729C159.071 67.9329 159.287 68.0129 159.543 68.0129C159.911 68.0129 160.171 67.8589 160.323 67.5509H161.061C160.961 67.8549 160.779 68.1049 160.515 68.3009C160.255 68.4929 159.931 68.5889 159.543 68.5889C159.227 68.5889 158.943 68.5189 158.691 68.3789C158.443 68.2349 158.247 68.0349 158.103 67.7789C157.963 67.5189 157.893 67.2189 157.893 66.8789C157.893 66.5389 157.961 66.2409 158.097 65.9849C158.237 65.7249 158.431 65.5249 158.679 65.3849C158.931 65.2449 159.219 65.1749 159.543 65.1749C159.855 65.1749 160.133 65.2429 160.377 65.3789C160.621 65.5149 160.811 65.7069 160.947 65.9549C161.083 66.1989 161.151 66.4809 161.151 66.8009ZM160.437 66.5849C160.433 66.3329 160.343 66.1309 160.167 65.9789C159.991 65.8269 159.773 65.7509 159.513 65.7509C159.277 65.7509 159.075 65.8269 158.907 65.9789C158.739 66.1269 158.639 66.3289 158.607 66.5849H160.437ZM162.508 65.7089C162.608 65.5409 162.74 65.4109 162.904 65.3189C163.072 65.2229 163.27 65.1749 163.498 65.1749V65.8829H163.324C163.056 65.8829 162.852 65.9509 162.712 66.0869C162.576 66.2229 162.508 66.4589 162.508 66.7949V68.5349H161.824V65.2289H162.508V65.7089ZM166.483 65.7869V67.6169C166.483 67.7409 166.511 67.8309 166.567 67.8869C166.627 67.9389 166.727 67.9649 166.867 67.9649H167.287V68.5349H166.747C166.439 68.5349 166.203 68.4629 166.039 68.3189C165.875 68.1749 165.793 67.9409 165.793 67.6169V65.7869H165.403V65.2289H165.793V64.4069H166.483V65.2289H167.287V65.7869H166.483ZM169.628 65.1749C169.88 65.1749 170.104 65.2289 170.3 65.3369C170.5 65.4449 170.656 65.6049 170.768 65.8169C170.884 66.0289 170.942 66.2849 170.942 66.5849V68.5349H170.264V66.6869C170.264 66.3909 170.19 66.1649 170.042 66.0089C169.894 65.8489 169.692 65.7689 169.436 65.7689C169.18 65.7689 168.976 65.8489 168.824 66.0089C168.676 66.1649 168.602 66.3909 168.602 66.6869V68.5349H167.918V64.0949H168.602V65.6129C168.718 65.4729 168.864 65.3649 169.04 65.2889C169.22 65.2129 169.416 65.1749 169.628 65.1749ZM174.844 66.8009C174.844 66.9249 174.836 67.0369 174.82 67.1369H172.294C172.314 67.4009 172.412 67.6129 172.588 67.7729C172.764 67.9329 172.98 68.0129 173.236 68.0129C173.604 68.0129 173.864 67.8589 174.016 67.5509H174.754C174.654 67.8549 174.472 68.1049 174.208 68.3009C173.948 68.4929 173.624 68.5889 173.236 68.5889C172.92 68.5889 172.636 68.5189 172.384 68.3789C172.136 68.2349 171.94 68.0349 171.796 67.7789C171.656 67.5189 171.586 67.2189 171.586 66.8789C171.586 66.5389 171.654 66.2409 171.79 65.9849C171.93 65.7249 172.124 65.5249 172.372 65.3849C172.624 65.2449 172.912 65.1749 173.236 65.1749C173.548 65.1749 173.826 65.2429 174.07 65.3789C174.314 65.5149 174.504 65.7069 174.64 65.9549C174.776 66.1989 174.844 66.4809 174.844 66.8009ZM174.13 66.5849C174.126 66.3329 174.036 66.1309 173.86 65.9789C173.684 65.8269 173.466 65.7509 173.206 65.7509C172.97 65.7509 172.768 65.8269 172.6 65.9789C172.432 66.1269 172.332 66.3289 172.3 66.5849H174.13ZM178.744 65.1749C179.004 65.1749 179.236 65.2289 179.44 65.3369C179.648 65.4449 179.81 65.6049 179.926 65.8169C180.042 66.0289 180.1 66.2849 180.1 66.5849V68.5349H179.422V66.6869C179.422 66.3909 179.348 66.1649 179.2 66.0089C179.052 65.8489 178.85 65.7689 178.594 65.7689C178.338 65.7689 178.134 65.8489 177.982 66.0089C177.834 66.1649 177.76 66.3909 177.76 66.6869V68.5349H177.076V65.2289H177.76V65.6069C177.872 65.4709 178.014 65.3649 178.186 65.2889C178.362 65.2129 178.548 65.1749 178.744 65.1749ZM180.744 66.8669C180.744 66.5349 180.812 66.2409 180.948 65.9849C181.088 65.7289 181.276 65.5309 181.512 65.3909C181.752 65.2469 182.016 65.1749 182.304 65.1749C182.564 65.1749 182.79 65.2269 182.982 65.3309C183.178 65.4309 183.334 65.5569 183.45 65.7089V65.2289H184.14V68.5349H183.45V68.0429C183.334 68.1989 183.176 68.3289 182.976 68.4329C182.776 68.5369 182.548 68.5889 182.292 68.5889C182.008 68.5889 181.748 68.5169 181.512 68.3729C181.276 68.2249 181.088 68.0209 180.948 67.7609C180.812 67.4969 180.744 67.1989 180.744 66.8669ZM183.45 66.8789C183.45 66.6509 183.402 66.4529 183.306 66.2849C183.214 66.1169 183.092 65.9889 182.94 65.9009C182.788 65.8129 182.624 65.7689 182.448 65.7689C182.272 65.7689 182.108 65.8129 181.956 65.9009C181.804 65.9849 181.68 66.1109 181.584 66.2789C181.492 66.4429 181.446 66.6389 181.446 66.8669C181.446 67.0949 181.492 67.2949 181.584 67.4669C181.68 67.6389 181.804 67.7709 181.956 67.8629C182.112 67.9509 182.276 67.9949 182.448 67.9949C182.624 67.9949 182.788 67.9509 182.94 67.8629C183.092 67.7749 183.214 67.6469 183.306 67.4789C183.402 67.3069 183.45 67.1069 183.45 66.8789ZM189.041 65.1749C189.301 65.1749 189.533 65.2289 189.737 65.3369C189.945 65.4449 190.107 65.6049 190.223 65.8169C190.343 66.0289 190.403 66.2849 190.403 66.5849V68.5349H189.725V66.6869C189.725 66.3909 189.651 66.1649 189.503 66.0089C189.355 65.8489 189.153 65.7689 188.897 65.7689C188.641 65.7689 188.437 65.8489 188.285 66.0089C188.137 66.1649 188.063 66.3909 188.063 66.6869V68.5349H187.385V66.6869C187.385 66.3909 187.311 66.1649 187.163 66.0089C187.015 65.8489 186.813 65.7689 186.557 65.7689C186.301 65.7689 186.097 65.8489 185.945 66.0089C185.797 66.1649 185.723 66.3909 185.723 66.6869V68.5349H185.039V65.2289H185.723V65.6069C185.835 65.4709 185.977 65.3649 186.149 65.2889C186.321 65.2129 186.505 65.1749 186.701 65.1749C186.965 65.1749 187.201 65.2309 187.409 65.3429C187.617 65.4549 187.777 65.6169 187.889 65.8289C187.989 65.6289 188.145 65.4709 188.357 65.3549C188.569 65.2349 188.797 65.1749 189.041 65.1749ZM194.303 66.8009C194.303 66.9249 194.295 67.0369 194.279 67.1369H191.753C191.773 67.4009 191.871 67.6129 192.047 67.7729C192.223 67.9329 192.439 68.0129 192.695 68.0129C193.063 68.0129 193.323 67.8589 193.475 67.5509H194.213C194.113 67.8549 193.931 68.1049 193.667 68.3009C193.407 68.4929 193.083 68.5889 192.695 68.5889C192.379 68.5889 192.095 68.5189 191.843 68.3789C191.595 68.2349 191.399 68.0349 191.255 67.7789C191.115 67.5189 191.045 67.2189 191.045 66.8789C191.045 66.5389 191.113 66.2409 191.249 65.9849C191.389 65.7249 191.583 65.5249 191.831 65.3849C192.083 65.2449 192.371 65.1749 192.695 65.1749C193.007 65.1749 193.285 65.2429 193.529 65.3789C193.773 65.5149 193.963 65.7069 194.099 65.9549C194.235 66.1989 194.303 66.4809 194.303 66.8009ZM193.589 66.5849C193.585 66.3329 193.495 66.1309 193.319 65.9789C193.143 65.8269 192.925 65.7509 192.665 65.7509C192.429 65.7509 192.227 65.8269 192.059 65.9789C191.891 66.1269 191.791 66.3289 191.759 66.5849H193.589ZM197.969 68.5889C197.657 68.5889 197.375 68.5189 197.123 68.3789C196.871 68.2349 196.673 68.0349 196.529 67.7789C196.385 67.5189 196.313 67.2189 196.313 66.8789C196.313 66.5429 196.387 66.2449 196.535 65.9849C196.683 65.7249 196.885 65.5249 197.141 65.3849C197.397 65.2449 197.683 65.1749 197.999 65.1749C198.315 65.1749 198.601 65.2449 198.857 65.3849C199.113 65.5249 199.315 65.7249 199.463 65.9849C199.611 66.2449 199.685 66.5429 199.685 66.8789C199.685 67.2149 199.609 67.5129 199.457 67.7729C199.305 68.0329 199.097 68.2349 198.833 68.3789C198.573 68.5189 198.285 68.5889 197.969 68.5889ZM197.969 67.9949C198.145 67.9949 198.309 67.9529 198.461 67.8689C198.617 67.7849 198.743 67.6589 198.839 67.4909C198.935 67.3229 198.983 67.1189 198.983 66.8789C198.983 66.6389 198.937 66.4369 198.845 66.2729C198.753 66.1049 198.631 65.9789 198.479 65.8949C198.327 65.8109 198.163 65.7689 197.987 65.7689C197.811 65.7689 197.647 65.8109 197.495 65.8949C197.347 65.9789 197.229 66.1049 197.141 66.2729C197.053 66.4369 197.009 66.6389 197.009 66.8789C197.009 67.2349 197.099 67.5109 197.279 67.7069C197.463 67.8989 197.693 67.9949 197.969 67.9949ZM201.747 65.7869H201.135V68.5349H200.445V65.7869H200.055V65.2289H200.445V64.9949C200.445 64.6149 200.545 64.3389 200.745 64.1669C200.949 63.9909 201.267 63.9029 201.699 63.9029V64.4729C201.491 64.4729 201.345 64.5129 201.261 64.5929C201.177 64.6689 201.135 64.8029 201.135 64.9949V65.2289H201.747V65.7869ZM206.888 65.2289L204.86 70.0889H204.152L204.824 68.4809L203.522 65.2289H204.284L205.214 67.7489L206.18 65.2289H206.888ZM208.838 68.5889C208.526 68.5889 208.244 68.5189 207.992 68.3789C207.74 68.2349 207.542 68.0349 207.398 67.7789C207.254 67.5189 207.182 67.2189 207.182 66.8789C207.182 66.5429 207.256 66.2449 207.404 65.9849C207.552 65.7249 207.754 65.5249 208.01 65.3849C208.266 65.2449 208.552 65.1749 208.868 65.1749C209.184 65.1749 209.47 65.2449 209.726 65.3849C209.982 65.5249 210.184 65.7249 210.332 65.9849C210.48 66.2449 210.554 66.5429 210.554 66.8789C210.554 67.2149 210.478 67.5129 210.326 67.7729C210.174 68.0329 209.966 68.2349 209.702 68.3789C209.442 68.5189 209.154 68.5889 208.838 68.5889ZM208.838 67.9949C209.014 67.9949 209.178 67.9529 209.33 67.8689C209.486 67.7849 209.612 67.6589 209.708 67.4909C209.804 67.3229 209.852 67.1189 209.852 66.8789C209.852 66.6389 209.806 66.4369 209.714 66.2729C209.622 66.1049 209.5 65.9789 209.348 65.8949C209.196 65.8109 209.032 65.7689 208.856 65.7689C208.68 65.7689 208.516 65.8109 208.364 65.8949C208.216 65.9789 208.098 66.1049 208.01 66.2729C207.922 66.4369 207.878 66.6389 207.878 66.8789C207.878 67.2349 207.968 67.5109 208.148 67.7069C208.332 67.8989 208.562 67.9949 208.838 67.9949ZM214.224 65.2289V68.5349H213.54V68.1449C213.432 68.2809 213.29 68.3889 213.114 68.4689C212.942 68.5449 212.758 68.5829 212.562 68.5829C212.302 68.5829 212.068 68.5289 211.86 68.4209C211.656 68.3129 211.494 68.1529 211.374 67.9409C211.258 67.7289 211.2 67.4729 211.2 67.1729V65.2289H211.878V67.0709C211.878 67.3669 211.952 67.5949 212.1 67.7549C212.248 67.9109 212.45 67.9889 212.706 67.9889C212.962 67.9889 213.164 67.9109 213.312 67.7549C213.464 67.5949 213.54 67.3669 213.54 67.0709V65.2289H214.224ZM215.811 65.7089C215.911 65.5409 216.043 65.4109 216.207 65.3189C216.375 65.2229 216.573 65.1749 216.801 65.1749V65.8829H216.627C216.359 65.8829 216.155 65.9509 216.015 66.0869C215.879 66.2229 215.811 66.4589 215.811 66.7949V68.5349H215.127V65.2289H215.811V65.7089ZM219.672 65.7209C219.788 65.5609 219.946 65.4309 220.146 65.3309C220.35 65.2269 220.576 65.1749 220.824 65.1749C221.116 65.1749 221.38 65.2449 221.616 65.3849C221.852 65.5249 222.038 65.7249 222.174 65.9849C222.31 66.2409 222.378 66.5349 222.378 66.8669C222.378 67.1989 222.31 67.4969 222.174 67.7609C222.038 68.0209 221.85 68.2249 221.61 68.3729C221.374 68.5169 221.112 68.5889 220.824 68.5889C220.568 68.5889 220.34 68.5389 220.14 68.4389C219.944 68.3389 219.788 68.2109 219.672 68.0549V68.5349H218.988V64.0949H219.672V65.7209ZM221.682 66.8669C221.682 66.6389 221.634 66.4429 221.538 66.2789C221.446 66.1109 221.322 65.9849 221.166 65.9009C221.014 65.8129 220.85 65.7689 220.674 65.7689C220.502 65.7689 220.338 65.8129 220.182 65.9009C220.03 65.9889 219.906 66.1169 219.81 66.2849C219.718 66.4529 219.672 66.6509 219.672 66.8789C219.672 67.1069 219.718 67.3069 219.81 67.4789C219.906 67.6469 220.03 67.7749 220.182 67.8629C220.338 67.9509 220.502 67.9949 220.674 67.9949C220.85 67.9949 221.014 67.9509 221.166 67.8629C221.322 67.7709 221.446 67.6389 221.538 67.4669C221.634 67.2949 221.682 67.0949 221.682 66.8669ZM226.048 65.2289V68.5349H225.364V68.1449C225.256 68.2809 225.114 68.3889 224.938 68.4689C224.766 68.5449 224.582 68.5829 224.386 68.5829C224.126 68.5829 223.892 68.5289 223.684 68.4209C223.48 68.3129 223.318 68.1529 223.198 67.9409C223.082 67.7289 223.024 67.4729 223.024 67.1729V65.2289H223.702V67.0709C223.702 67.3669 223.776 67.5949 223.924 67.7549C224.072 67.9109 224.274 67.9889 224.53 67.9889C224.786 67.9889 224.988 67.9109 225.136 67.7549C225.288 67.5949 225.364 67.3669 225.364 67.0709V65.2289H226.048ZM228.619 65.1749C228.879 65.1749 229.111 65.2289 229.315 65.3369C229.523 65.4449 229.685 65.6049 229.801 65.8169C229.917 66.0289 229.975 66.2849 229.975 66.5849V68.5349H229.297V66.6869C229.297 66.3909 229.223 66.1649 229.075 66.0089C228.927 65.8489 228.725 65.7689 228.469 65.7689C228.213 65.7689 228.009 65.8489 227.857 66.0089C227.709 66.1649 227.635 66.3909 227.635 66.6869V68.5349H226.951V65.2289H227.635V65.6069C227.747 65.4709 227.889 65.3649 228.061 65.2889C228.237 65.2129 228.423 65.1749 228.619 65.1749ZM232.179 65.1749C232.435 65.1749 232.661 65.2269 232.857 65.3309C233.057 65.4309 233.213 65.5569 233.325 65.7089V65.2289H234.015V68.5889C234.015 68.8929 233.951 69.1629 233.823 69.3989C233.695 69.6389 233.509 69.8269 233.265 69.9629C233.025 70.0989 232.737 70.1669 232.401 70.1669C231.953 70.1669 231.581 70.0609 231.285 69.8489C230.989 69.6409 230.821 69.3569 230.781 68.9969H231.459C231.511 69.1689 231.621 69.3069 231.789 69.4109C231.961 69.5189 232.165 69.5729 232.401 69.5729C232.677 69.5729 232.899 69.4889 233.067 69.3209C233.239 69.1529 233.325 68.9089 233.325 68.5889V68.0369C233.209 68.1929 233.051 68.3249 232.851 68.4329C232.655 68.5369 232.431 68.5889 232.179 68.5889C231.891 68.5889 231.627 68.5169 231.387 68.3729C231.151 68.2249 230.963 68.0209 230.823 67.7609C230.687 67.4969 230.619 67.1989 230.619 66.8669C230.619 66.5349 230.687 66.2409 230.823 65.9849C230.963 65.7289 231.151 65.5309 231.387 65.3909C231.627 65.2469 231.891 65.1749 232.179 65.1749ZM233.325 66.8789C233.325 66.6509 233.277 66.4529 233.181 66.2849C233.089 66.1169 232.967 65.9889 232.815 65.9009C232.663 65.8129 232.499 65.7689 232.323 65.7689C232.147 65.7689 231.983 65.8129 231.831 65.9009C231.679 65.9849 231.555 66.1109 231.459 66.2789C231.367 66.4429 231.321 66.6389 231.321 66.8669C231.321 67.0949 231.367 67.2949 231.459 67.4669C231.555 67.6389 231.679 67.7709 231.831 67.8629C231.987 67.9509 232.151 67.9949 232.323 67.9949C232.499 67.9949 232.663 67.9509 232.815 67.8629C232.967 67.7749 233.089 67.6469 233.181 67.4789C233.277 67.3069 233.325 67.1069 233.325 66.8789ZM235.262 64.7909C235.138 64.7909 235.034 64.7489 234.95 64.6649C234.866 64.5809 234.824 64.4769 234.824 64.3529C234.824 64.2289 234.866 64.1249 234.95 64.0409C235.034 63.9569 235.138 63.9149 235.262 63.9149C235.382 63.9149 235.484 63.9569 235.568 64.0409C235.652 64.1249 235.694 64.2289 235.694 64.3529C235.694 64.4769 235.652 64.5809 235.568 64.6649C235.484 64.7489 235.382 64.7909 235.262 64.7909ZM235.598 65.2289V68.5349H234.914V65.2289H235.598ZM239.526 66.8009C239.526 66.9249 239.518 67.0369 239.502 67.1369H236.976C236.996 67.4009 237.094 67.6129 237.27 67.7729C237.446 67.9329 237.662 68.0129 237.918 68.0129C238.286 68.0129 238.546 67.8589 238.698 67.5509H239.436C239.336 67.8549 239.154 68.1049 238.89 68.3009C238.63 68.4929 238.306 68.5889 237.918 68.5889C237.602 68.5889 237.318 68.5189 237.066 68.3789C236.818 68.2349 236.622 68.0349 236.478 67.7789C236.338 67.5189 236.268 67.2189 236.268 66.8789C236.268 66.5389 236.336 66.2409 236.472 65.9849C236.612 65.7249 236.806 65.5249 237.054 65.3849C237.306 65.2449 237.594 65.1749 237.918 65.1749C238.23 65.1749 238.508 65.2429 238.752 65.3789C238.996 65.5149 239.186 65.7069 239.322 65.9549C239.458 66.1989 239.526 66.4809 239.526 66.8009ZM238.812 66.5849C238.808 66.3329 238.718 66.1309 238.542 65.9789C238.366 65.8269 238.148 65.7509 237.888 65.7509C237.652 65.7509 237.45 65.8269 237.282 65.9789C237.114 66.1269 237.014 66.3289 236.982 66.5849H238.812ZM241.529 66.8669C241.529 66.5349 241.597 66.2409 241.733 65.9849C241.873 65.7289 242.061 65.5309 242.297 65.3909C242.537 65.2469 242.801 65.1749 243.089 65.1749C243.349 65.1749 243.575 65.2269 243.767 65.3309C243.963 65.4309 244.119 65.5569 244.235 65.7089V65.2289H244.925V68.5349H244.235V68.0429C244.119 68.1989 243.961 68.3289 243.761 68.4329C243.561 68.5369 243.333 68.5889 243.077 68.5889C242.793 68.5889 242.533 68.5169 242.297 68.3729C242.061 68.2249 241.873 68.0209 241.733 67.7609C241.597 67.4969 241.529 67.1989 241.529 66.8669ZM244.235 66.8789C244.235 66.6509 244.187 66.4529 244.091 66.2849C243.999 66.1169 243.877 65.9889 243.725 65.9009C243.573 65.8129 243.409 65.7689 243.233 65.7689C243.057 65.7689 242.893 65.8129 242.741 65.9009C242.589 65.9849 242.465 66.1109 242.369 66.2789C242.277 66.4429 242.231 66.6389 242.231 66.8669C242.231 67.0949 242.277 67.2949 242.369 67.4669C242.465 67.6389 242.589 67.7709 242.741 67.8629C242.897 67.9509 243.061 67.9949 243.233 67.9949C243.409 67.9949 243.573 67.9509 243.725 67.8629C243.877 67.7749 243.999 67.6469 244.091 67.4789C244.187 67.3069 244.235 67.1069 244.235 66.8789ZM245.596 66.8789C245.596 66.5389 245.664 66.2409 245.8 65.9849C245.94 65.7249 246.132 65.5249 246.376 65.3849C246.62 65.2449 246.9 65.1749 247.216 65.1749C247.616 65.1749 247.946 65.2709 248.206 65.4629C248.47 65.6509 248.648 65.9209 248.74 66.2729H248.002C247.942 66.1089 247.846 65.9809 247.714 65.8889C247.582 65.7969 247.416 65.7509 247.216 65.7509C246.936 65.7509 246.712 65.8509 246.544 66.0509C246.38 66.2469 246.298 66.5229 246.298 66.8789C246.298 67.2349 246.38 67.5129 246.544 67.7129C246.712 67.9129 246.936 68.0129 247.216 68.0129C247.612 68.0129 247.874 67.8389 248.002 67.4909H248.74C248.644 67.8269 248.464 68.0949 248.2 68.2949C247.936 68.4909 247.608 68.5889 247.216 68.5889C246.9 68.5889 246.62 68.5189 246.376 68.3789C246.132 68.2349 245.94 68.0349 245.8 67.7789C245.664 67.5189 245.596 67.2189 245.596 66.8789ZM249.193 66.8789C249.193 66.5389 249.261 66.2409 249.397 65.9849C249.537 65.7249 249.729 65.5249 249.973 65.3849C250.217 65.2449 250.497 65.1749 250.813 65.1749C251.213 65.1749 251.543 65.2709 251.803 65.4629C252.067 65.6509 252.245 65.9209 252.337 66.2729H251.599C251.539 66.1089 251.443 65.9809 251.311 65.8889C251.179 65.7969 251.013 65.7509 250.813 65.7509C250.533 65.7509 250.309 65.8509 250.141 66.0509C249.977 66.2469 249.895 66.5229 249.895 66.8789C249.895 67.2349 249.977 67.5129 250.141 67.7129C250.309 67.9129 250.533 68.0129 250.813 68.0129C251.209 68.0129 251.471 67.8389 251.599 67.4909H252.337C252.241 67.8269 252.061 68.0949 251.797 68.2949C251.533 68.4909 251.205 68.5889 250.813 68.5889C250.497 68.5889 250.217 68.5189 249.973 68.3789C249.729 68.2349 249.537 68.0349 249.397 67.7789C249.261 67.5189 249.193 67.2189 249.193 66.8789ZM254.453 68.5889C254.141 68.5889 253.859 68.5189 253.607 68.3789C253.355 68.2349 253.157 68.0349 253.013 67.7789C252.869 67.5189 252.797 67.2189 252.797 66.8789C252.797 66.5429 252.871 66.2449 253.019 65.9849C253.167 65.7249 253.369 65.5249 253.625 65.3849C253.881 65.2449 254.167 65.1749 254.483 65.1749C254.799 65.1749 255.085 65.2449 255.341 65.3849C255.597 65.5249 255.799 65.7249 255.947 65.9849C256.095 66.2449 256.169 66.5429 256.169 66.8789C256.169 67.2149 256.093 67.5129 255.941 67.7729C255.789 68.0329 255.581 68.2349 255.317 68.3789C255.057 68.5189 254.769 68.5889 254.453 68.5889ZM254.453 67.9949C254.629 67.9949 254.793 67.9529 254.945 67.8689C255.101 67.7849 255.227 67.6589 255.323 67.4909C255.419 67.3229 255.467 67.1189 255.467 66.8789C255.467 66.6389 255.421 66.4369 255.329 66.2729C255.237 66.1049 255.115 65.9789 254.963 65.8949C254.811 65.8109 254.647 65.7689 254.471 65.7689C254.295 65.7689 254.131 65.8109 253.979 65.8949C253.831 65.9789 253.713 66.1049 253.625 66.2729C253.537 66.4369 253.493 66.6389 253.493 66.8789C253.493 67.2349 253.583 67.5109 253.763 67.7069C253.947 67.8989 254.177 67.9949 254.453 67.9949ZM259.839 65.2289V68.5349H259.155V68.1449C259.047 68.2809 258.905 68.3889 258.729 68.4689C258.557 68.5449 258.373 68.5829 258.177 68.5829C257.917 68.5829 257.683 68.5289 257.475 68.4209C257.271 68.3129 257.109 68.1529 256.989 67.9409C256.873 67.7289 256.815 67.4729 256.815 67.1729V65.2289H257.493V67.0709C257.493 67.3669 257.567 67.5949 257.715 67.7549C257.863 67.9109 258.065 67.9889 258.321 67.9889C258.577 67.9889 258.779 67.9109 258.927 67.7549C259.079 67.5949 259.155 67.3669 259.155 67.0709V65.2289H259.839ZM262.41 65.1749C262.67 65.1749 262.902 65.2289 263.106 65.3369C263.314 65.4449 263.476 65.6049 263.592 65.8169C263.708 66.0289 263.766 66.2849 263.766 66.5849V68.5349H263.088V66.6869C263.088 66.3909 263.014 66.1649 262.866 66.0089C262.718 65.8489 262.516 65.7689 262.26 65.7689C262.004 65.7689 261.8 65.8489 261.648 66.0089C261.5 66.1649 261.426 66.3909 261.426 66.6869V68.5349H260.742V65.2289H261.426V65.6069C261.538 65.4709 261.68 65.3649 261.852 65.2889C262.028 65.2129 262.214 65.1749 262.41 65.1749ZM265.436 65.7869V67.6169C265.436 67.7409 265.464 67.8309 265.52 67.8869C265.58 67.9389 265.68 67.9649 265.82 67.9649H266.24V68.5349H265.7C265.392 68.5349 265.156 68.4629 264.992 68.3189C264.828 68.1749 264.746 67.9409 264.746 67.6169V65.7869H264.356V65.2289H264.746V64.4069H265.436V65.2289H266.24V65.7869H265.436ZM267.147 68.5769C267.023 68.5769 266.919 68.5349 266.835 68.4509C266.751 68.3669 266.709 68.2629 266.709 68.1389C266.709 68.0149 266.751 67.9109 266.835 67.8269C266.919 67.7429 267.023 67.7009 267.147 67.7009C267.267 67.7009 267.369 67.7429 267.453 67.8269C267.537 67.9109 267.579 68.0149 267.579 68.1389C267.579 68.2629 267.537 68.3669 267.453 68.4509C267.369 68.5349 267.267 68.5769 267.147 68.5769Z" fill="white"/>
<rect x="67.2327" y="87.7441" width="241.581" height="26.2093" rx="5" fill="#181818"/>
<path d="M93.0632 103.372C92.5965 103.372 92.1765 103.292 91.8032 103.132C91.4299 102.966 91.1365 102.732 90.9232 102.432C90.7099 102.132 90.6032 101.782 90.6032 101.382H91.8232C91.8499 101.682 91.9665 101.929 92.1732 102.122C92.3865 102.316 92.6832 102.412 93.0632 102.412C93.4565 102.412 93.7632 102.319 93.9832 102.132C94.2032 101.939 94.3132 101.692 94.3132 101.392C94.3132 101.159 94.2432 100.969 94.1032 100.822C93.9699 100.676 93.7999 100.562 93.5932 100.482C93.3932 100.402 93.1132 100.316 92.7532 100.222C92.2999 100.102 91.9299 99.9824 91.6432 99.8624C91.3632 99.7357 91.1232 99.5424 90.9232 99.2824C90.7232 99.0224 90.6232 98.6757 90.6232 98.2424C90.6232 97.8424 90.7232 97.4924 90.9232 97.1924C91.1232 96.8924 91.4032 96.6624 91.7632 96.5024C92.1232 96.3424 92.5399 96.2624 93.0132 96.2624C93.6865 96.2624 94.2365 96.4324 94.6632 96.7724C95.0965 97.1057 95.3365 97.5657 95.3832 98.1524H94.1232C94.1032 97.899 93.9832 97.6824 93.7632 97.5024C93.5432 97.3224 93.2532 97.2324 92.8932 97.2324C92.5665 97.2324 92.2999 97.3157 92.0932 97.4824C91.8865 97.649 91.7832 97.889 91.7832 98.2024C91.7832 98.4157 91.8465 98.5924 91.9732 98.7324C92.1065 98.8657 92.2732 98.9724 92.4732 99.0524C92.6732 99.1324 92.9465 99.219 93.2932 99.3124C93.7532 99.439 94.1265 99.5657 94.4132 99.6924C94.7065 99.819 94.9532 100.016 95.1532 100.282C95.3599 100.542 95.4632 100.892 95.4632 101.332C95.4632 101.686 95.3665 102.019 95.1732 102.332C94.9865 102.646 94.7099 102.899 94.3432 103.092C93.9832 103.279 93.5565 103.372 93.0632 103.372ZM101.858 100.412C101.858 100.619 101.845 100.806 101.818 100.972H97.6083C97.6417 101.412 97.805 101.766 98.0983 102.032C98.3917 102.299 98.7517 102.432 99.1783 102.432C99.7917 102.432 100.225 102.176 100.478 101.662H101.708C101.542 102.169 101.238 102.586 100.798 102.912C100.365 103.232 99.825 103.392 99.1783 103.392C98.6517 103.392 98.1783 103.276 97.7583 103.042C97.345 102.802 97.0183 102.469 96.7783 102.042C96.545 101.609 96.4283 101.109 96.4283 100.542C96.4283 99.9757 96.5417 99.479 96.7683 99.0524C97.0017 98.619 97.325 98.2857 97.7383 98.0524C98.1583 97.819 98.6383 97.7024 99.1783 97.7024C99.6983 97.7024 100.162 97.8157 100.568 98.0424C100.975 98.269 101.292 98.589 101.518 99.0024C101.745 99.409 101.858 99.879 101.858 100.412ZM100.668 100.052C100.662 99.6324 100.512 99.2957 100.218 99.0424C99.925 98.789 99.5617 98.6624 99.1283 98.6624C98.735 98.6624 98.3983 98.789 98.1183 99.0424C97.8383 99.289 97.6717 99.6257 97.6183 100.052H100.668ZM102.6 100.522C102.6 99.969 102.714 99.479 102.94 99.0524C103.174 98.6257 103.487 98.2957 103.88 98.0624C104.28 97.8224 104.72 97.7024 105.2 97.7024C105.634 97.7024 106.01 97.789 106.33 97.9624C106.657 98.129 106.917 98.339 107.11 98.5924V97.7924H108.26V103.302H107.11V102.482C106.917 102.742 106.654 102.959 106.32 103.132C105.987 103.306 105.607 103.392 105.18 103.392C104.707 103.392 104.274 103.272 103.88 103.032C103.487 102.786 103.174 102.446 102.94 102.012C102.714 101.572 102.6 101.076 102.6 100.522ZM107.11 100.542C107.11 100.162 107.03 99.8324 106.87 99.5524C106.717 99.2724 106.514 99.059 106.26 98.9124C106.007 98.7657 105.734 98.6924 105.44 98.6924C105.147 98.6924 104.874 98.7657 104.62 98.9124C104.367 99.0524 104.16 99.2624 104 99.5424C103.847 99.8157 103.77 100.142 103.77 100.522C103.77 100.902 103.847 101.236 104 101.522C104.16 101.809 104.367 102.029 104.62 102.182C104.88 102.329 105.154 102.402 105.44 102.402C105.734 102.402 106.007 102.329 106.26 102.182C106.514 102.036 106.717 101.822 106.87 101.542C107.03 101.256 107.11 100.922 107.11 100.542ZM110.898 98.5924C111.064 98.3124 111.284 98.0957 111.558 97.9424C111.838 97.7824 112.168 97.7024 112.548 97.7024V98.8824H112.258C111.811 98.8824 111.471 98.9957 111.238 99.2224C111.011 99.449 110.898 99.8424 110.898 100.402V103.302H109.758V97.7924H110.898V98.5924ZM113.215 100.542C113.215 99.9757 113.329 99.479 113.555 99.0524C113.789 98.619 114.109 98.2857 114.515 98.0524C114.922 97.819 115.389 97.7024 115.915 97.7024C116.582 97.7024 117.132 97.8624 117.565 98.1824C118.005 98.4957 118.302 98.9457 118.455 99.5324H117.225C117.125 99.259 116.965 99.0457 116.745 98.8924C116.525 98.739 116.249 98.6624 115.915 98.6624C115.449 98.6624 115.075 98.829 114.795 99.1624C114.522 99.489 114.385 99.949 114.385 100.542C114.385 101.136 114.522 101.599 114.795 101.932C115.075 102.266 115.449 102.432 115.915 102.432C116.575 102.432 117.012 102.142 117.225 101.562H118.455C118.295 102.122 117.995 102.569 117.555 102.902C117.115 103.229 116.569 103.392 115.915 103.392C115.389 103.392 114.922 103.276 114.515 103.042C114.109 102.802 113.789 102.469 113.555 102.042C113.329 101.609 113.215 101.109 113.215 100.542ZM122.442 97.7024C122.862 97.7024 123.235 97.7924 123.562 97.9724C123.895 98.1524 124.155 98.419 124.342 98.7724C124.535 99.1257 124.632 99.5524 124.632 100.052V103.302H123.502V100.222C123.502 99.729 123.378 99.3524 123.132 99.0924C122.885 98.8257 122.548 98.6924 122.122 98.6924C121.695 98.6924 121.355 98.8257 121.102 99.0924C120.855 99.3524 120.732 99.729 120.732 100.222V103.302H119.592V95.9024H120.732V98.4324C120.925 98.199 121.168 98.019 121.462 97.8924C121.762 97.7657 122.088 97.7024 122.442 97.7024Z" fill="white"/>
</svg>
